G75*
%MOIN*%
%OFA0B0*%
%FSLAX26Y26*%
%IPPOS*%
%LPD*%
%AMOC8*
5,1,8,0,0,1.08239X$1,22.5*
%
%ADD10C,0.005353*%
%ADD11R,0.025717X0.017843*%
%ADD12C,0.088000*%
%ADD13C,0.082000*%
%ADD14C,0.118000*%
%ADD15R,0.051307X0.047370*%
%ADD16R,0.047370X0.051307*%
%ADD17R,0.047370X0.189102*%
%ADD18R,0.070992X0.141858*%
%ADD19C,0.083433*%
%ADD20R,0.043433X0.039496*%
%ADD21C,0.045780*%
D10*
X-00018371Y-00099710D02*
X00001993Y-00099710D01*
X-00018371Y-00099710D02*
X-00018371Y-00087220D01*
X00001993Y-00087220D01*
X00001993Y-00099710D01*
X00001993Y-00094358D02*
X-00018371Y-00094358D01*
X-00018371Y-00089006D02*
X00001993Y-00089006D01*
D11*
X-00008189Y-00034409D03*
X-00008189Y-00054094D03*
X-00008189Y-00073780D03*
X00050866Y-00073780D03*
X00050866Y-00093465D03*
X00050866Y-00054094D03*
X00050866Y-00034409D03*
D12*
X00028339Y00286063D03*
X-00085661Y00286063D03*
X-00178661Y00431063D03*
X-00078661Y00441063D03*
X-00278661Y00441063D03*
D13*
X-00168661Y-00323937D03*
X-00068661Y-00323937D03*
X00101339Y-00323937D03*
X00201339Y-00323937D03*
D14*
X-00128661Y00066063D03*
D15*
X-00002126Y00056063D03*
X00064803Y00056063D03*
X-00005197Y00166063D03*
X-00072126Y00166063D03*
X-00012126Y-00223937D03*
X00054803Y-00223937D03*
D16*
X00171339Y-00247402D03*
X00171339Y-00180472D03*
X00171339Y-00107402D03*
X00171339Y-00040472D03*
X00171339Y00032598D03*
X00171339Y00099528D03*
X-00148661Y-00040472D03*
X-00148661Y-00107402D03*
X-00148661Y-00170472D03*
X-00148661Y-00237402D03*
D17*
X00131969Y00240394D03*
X00210709Y00240394D03*
D18*
X00305197Y00445118D03*
X00037480Y00445118D03*
D19*
X00321732Y00135669D03*
X00321732Y00035669D03*
X00321732Y-00064331D03*
X00321732Y-00164331D03*
X00321732Y-00264331D03*
X00321732Y-00364331D03*
X-00278268Y-00364331D03*
X-00278661Y-00263937D03*
X-00278661Y-00163937D03*
X-00278268Y-00064331D03*
X-00278268Y00035669D03*
X-00278268Y00135669D03*
D20*
X-00268031Y00228661D03*
X-00185354Y00266063D03*
X-00268031Y00303465D03*
D21*
X-00218661Y00346063D03*
X-00318661Y00346063D03*
X-00188661Y00216063D03*
X-00128661Y00216063D03*
X00041339Y00116063D03*
X00101339Y00106063D03*
X00061339Y00176063D03*
X00225339Y00124063D03*
X00311339Y00216063D03*
X00381339Y00206063D03*
X00381339Y00266063D03*
X00311339Y00276063D03*
X00301339Y00336063D03*
X00371339Y00336063D03*
X00231339Y00396063D03*
X00171339Y00396063D03*
X00111339Y00396063D03*
X00111339Y00456063D03*
X00171339Y00456063D03*
X00231339Y00456063D03*
X-00088661Y-00013937D03*
X00087339Y-00043937D03*
X-00008661Y-00163937D03*
X-00078661Y-00163937D03*
X-00078661Y-00223937D03*
X00011339Y-00293937D03*
X00011339Y-00363937D03*
X-00218661Y-00213937D03*
X-00208661Y-00153937D03*
M02*
