G75*
%MOIN*%
%OFA0B0*%
%FSLAX26Y26*%
%IPPOS*%
%LPD*%
%AMOC8*
5,1,8,0,0,1.08239X$1,22.5*
%
%ADD10C,0.002953*%
%ADD11R,0.017717X0.009843*%
%ADD12C,0.080000*%
%ADD13C,0.074000*%
%ADD14C,0.110000*%
%ADD15R,0.043307X0.039370*%
%ADD16R,0.039370X0.043307*%
%ADD17R,0.039370X0.181102*%
%ADD18R,0.062992X0.133858*%
%ADD19C,0.075433*%
%ADD20R,0.035433X0.031496*%
%ADD21C,0.006000*%
%ADD22C,0.037780*%
D10*
X-00015571Y-00096910D02*
X-00000807Y-00096910D01*
X-00015571Y-00096910D02*
X-00015571Y-00090020D01*
X-00000807Y-00090020D01*
X-00000807Y-00096910D01*
X-00000807Y-00093958D02*
X-00015571Y-00093958D01*
X-00015571Y-00091006D02*
X-00000807Y-00091006D01*
D11*
X-00008189Y-00073780D03*
X-00008189Y-00054094D03*
X-00008189Y-00034409D03*
X00050866Y-00034409D03*
X00050866Y-00054094D03*
X00050866Y-00073780D03*
X00050866Y-00093465D03*
D12*
X00028339Y00286063D03*
X-00085661Y00286063D03*
X-00178661Y00431063D03*
X-00078661Y00441063D03*
X-00278661Y00441063D03*
D13*
X-00168661Y-00323937D03*
X-00068661Y-00323937D03*
X00101339Y-00323937D03*
X00201339Y-00323937D03*
D14*
X-00128661Y00066063D03*
D15*
X-00002126Y00056063D03*
X00064803Y00056063D03*
X-00005197Y00166063D03*
X-00072126Y00166063D03*
X-00012126Y-00223937D03*
X00054803Y-00223937D03*
D16*
X00171339Y-00247402D03*
X00171339Y-00180472D03*
X00171339Y-00107402D03*
X00171339Y-00040472D03*
X00171339Y00032598D03*
X00171339Y00099528D03*
X-00148661Y-00040472D03*
X-00148661Y-00107402D03*
X-00148661Y-00170472D03*
X-00148661Y-00237402D03*
D17*
X00131969Y00240394D03*
X00210709Y00240394D03*
D18*
X00305197Y00445118D03*
X00037480Y00445118D03*
D19*
X00321732Y00135669D03*
X00321732Y00035669D03*
X00321732Y-00064331D03*
X00321732Y-00164331D03*
X00321732Y-00264331D03*
X00321732Y-00364331D03*
X-00278268Y-00364331D03*
X-00278661Y-00263937D03*
X-00278661Y-00163937D03*
X-00278268Y-00064331D03*
X-00278268Y00035669D03*
X-00278268Y00135669D03*
D20*
X-00268031Y00228661D03*
X-00185354Y00266063D03*
X-00268031Y00303465D03*
D21*
X-00007757Y00011997D02*
X00024302Y00011997D01*
X00018304Y00005999D02*
X-00013755Y00005999D01*
X-00019754Y00000000D02*
X00015339Y00000000D01*
X00015339Y00003033D02*
X00015339Y-00044966D01*
X00009669Y-00050636D01*
X00009669Y-00048715D01*
X00011072Y-00047313D01*
X00012783Y-00044348D01*
X00013669Y-00041042D01*
X00013669Y-00034410D01*
X-00008188Y-00034410D01*
X-00008188Y-00034409D01*
X00013669Y-00034409D01*
X00013669Y-00027777D01*
X00012783Y-00024470D01*
X00011072Y-00021506D01*
X00008651Y-00019086D01*
X00005687Y-00017374D01*
X00002381Y-00016488D01*
X-00008188Y-00016488D01*
X-00008188Y-00034408D01*
X-00008189Y-00034408D01*
X-00008189Y-00016488D01*
X-00018759Y-00016488D01*
X-00022065Y-00017374D01*
X-00025029Y-00019086D01*
X-00027450Y-00021506D01*
X-00029161Y-00024470D01*
X-00030047Y-00027777D01*
X-00030047Y-00034409D01*
X-00008190Y-00034409D01*
X-00008190Y-00034410D01*
X-00030047Y-00034410D01*
X-00030047Y-00041042D01*
X-00029161Y-00044348D01*
X-00027450Y-00047313D01*
X-00026047Y-00048715D01*
X-00026047Y-00062744D01*
X-00024854Y-00063937D01*
X-00026047Y-00065130D01*
X-00026047Y-00082429D01*
X-00024421Y-00084054D01*
X-00026047Y-00085680D01*
X-00026047Y-00085937D01*
X-00027691Y-00085937D01*
X-00032661Y-00080966D01*
X-00032661Y-00012907D01*
X00002309Y00022063D01*
X00007624Y00027378D01*
X00023255Y00027378D01*
X00028527Y00032650D01*
X00028527Y00079476D01*
X00023255Y00084748D01*
X00009338Y00084748D01*
X00009338Y00137378D01*
X00020185Y00137378D01*
X00025457Y00142650D01*
X00025457Y00189476D01*
X00020185Y00194748D01*
X-00030578Y00194748D01*
X-00035850Y00189476D01*
X-00035850Y00142650D01*
X-00030578Y00137378D01*
X-00014661Y00137378D01*
X-00014661Y00084748D01*
X-00027507Y00084748D01*
X-00032779Y00079476D01*
X-00032779Y00032650D01*
X-00027507Y00027378D01*
X-00026317Y00027378D01*
X-00056661Y-00002966D01*
X-00056661Y-00090907D01*
X-00049632Y-00097937D01*
X-00037632Y-00109937D01*
X-00015691Y-00109937D01*
X-00013140Y-00107386D01*
X00003532Y-00107386D01*
X00009669Y-00101249D01*
X00009669Y-00085680D01*
X00008043Y-00084054D01*
X00009669Y-00082429D01*
X00009669Y-00079238D01*
X00010368Y-00079937D01*
X00034368Y-00103937D01*
X00034831Y-00103937D01*
X00038280Y-00107386D01*
X00063452Y-00107386D01*
X00068724Y-00102114D01*
X00068724Y-00085522D01*
X00069338Y-00084907D01*
X00069339Y-00084907D01*
X00069339Y-00104966D01*
X00018258Y-00156047D01*
X00014982Y-00148139D01*
X00007137Y-00140293D01*
X-00003114Y-00136047D01*
X-00014209Y-00136047D01*
X-00024460Y-00140293D01*
X-00032305Y-00148139D01*
X-00036551Y-00158389D01*
X-00036551Y-00169485D01*
X-00032305Y-00179735D01*
X-00024460Y-00187581D01*
X-00016551Y-00190856D01*
X-00019632Y-00193937D01*
X-00020947Y-00195252D01*
X-00037507Y-00195252D01*
X-00042779Y-00200524D01*
X-00042779Y-00247350D01*
X-00037507Y-00252622D01*
X00013255Y-00252622D01*
X00018527Y-00247350D01*
X00018527Y-00200524D01*
X00013255Y-00195252D01*
X00012994Y-00195252D01*
X00014309Y-00193937D01*
X00021338Y-00186907D01*
X00093338Y-00114907D01*
X00093338Y-00074966D01*
X00090199Y-00071827D01*
X00092886Y-00071827D01*
X00103137Y-00067581D01*
X00105339Y-00065379D01*
X00105339Y-00156907D01*
X00112368Y-00163937D01*
X00136368Y-00187937D01*
X00142654Y-00187937D01*
X00142654Y-00205854D01*
X00147926Y-00211126D01*
X00194751Y-00211126D01*
X00200023Y-00205854D01*
X00200023Y-00155091D01*
X00194751Y-00149819D01*
X00147926Y-00149819D01*
X00142654Y-00155091D01*
X00142654Y-00160282D01*
X00129338Y-00146966D01*
X00129338Y-00008966D01*
X00110309Y00010063D01*
X00134309Y00034063D01*
X00141338Y00041092D01*
X00141338Y00071092D01*
X00143523Y00073277D01*
X00147926Y00068874D01*
X00194751Y00068874D01*
X00200023Y00074146D01*
X00200023Y00112300D01*
X00201695Y00108265D01*
X00209540Y00100419D01*
X00219791Y00096173D01*
X00230886Y00096173D01*
X00241137Y00100419D01*
X00243339Y00102621D01*
X00243339Y00075033D01*
X00207338Y00039033D01*
X00206309Y00040063D01*
X00200023Y00040063D01*
X00200023Y00057980D01*
X00194751Y00063252D01*
X00147926Y00063252D01*
X00142654Y00057980D01*
X00142654Y00007217D01*
X00147926Y00001945D01*
X00194751Y00001945D01*
X00200023Y00007217D01*
X00200023Y00012408D01*
X00202368Y00010063D01*
X00202368Y00010063D01*
X00207339Y00005092D01*
X00207339Y-00091937D01*
X00200023Y-00091937D01*
X00200023Y-00082020D01*
X00194751Y-00076748D01*
X00147926Y-00076748D01*
X00142654Y-00082020D01*
X00142654Y-00132783D01*
X00147926Y-00138055D01*
X00194751Y-00138055D01*
X00200023Y-00132783D01*
X00200023Y-00115937D01*
X00244368Y-00115937D01*
X00277492Y-00149061D01*
X00275016Y-00155038D01*
X00275016Y-00173623D01*
X00282128Y-00190793D01*
X00295269Y-00203935D01*
X00312440Y-00211047D01*
X00331025Y-00211047D01*
X00348195Y-00203935D01*
X00361336Y-00190793D01*
X00368449Y-00173623D01*
X00368449Y-00155038D01*
X00361336Y-00137868D01*
X00348195Y-00124726D01*
X00331025Y-00117614D01*
X00312440Y-00117614D01*
X00295269Y-00124726D01*
X00291184Y-00128812D01*
X00254309Y-00091937D01*
X00231338Y-00091937D01*
X00231338Y00015033D01*
X00224309Y00022063D01*
X00267338Y00065092D01*
X00267338Y00345033D01*
X00260309Y00352063D01*
X00242309Y00370063D01*
X00241448Y00370063D01*
X00247137Y00372419D01*
X00254982Y00380265D01*
X00259228Y00390515D01*
X00259228Y00401611D01*
X00254982Y00411861D01*
X00247137Y00419707D01*
X00236886Y00423953D01*
X00225791Y00423953D01*
X00215540Y00419707D01*
X00207695Y00411861D01*
X00203449Y00401611D01*
X00203449Y00390515D01*
X00207695Y00380265D01*
X00215540Y00372419D01*
X00221229Y00370063D01*
X00181448Y00370063D01*
X00187137Y00372419D01*
X00194982Y00380265D01*
X00199228Y00390515D01*
X00199228Y00401611D01*
X00194982Y00411861D01*
X00187137Y00419707D01*
X00176886Y00423953D01*
X00165791Y00423953D01*
X00155540Y00419707D01*
X00147695Y00411861D01*
X00143449Y00401611D01*
X00143449Y00390515D01*
X00147695Y00380265D01*
X00155540Y00372419D01*
X00161229Y00370063D01*
X00121448Y00370063D01*
X00127137Y00372419D01*
X00134982Y00380265D01*
X00139228Y00390515D01*
X00139228Y00401611D01*
X00134982Y00411861D01*
X00127137Y00419707D01*
X00116886Y00423953D01*
X00105791Y00423953D01*
X00095540Y00419707D01*
X00087695Y00411861D01*
X00083449Y00401611D01*
X00083449Y00390515D01*
X00087695Y00380265D01*
X00095540Y00372419D01*
X00101229Y00370063D01*
X00094368Y00370063D01*
X00088368Y00364063D01*
X-00081691Y00364063D01*
X-00132380Y00414752D01*
X-00129661Y00421316D01*
X-00129661Y00440810D01*
X-00137121Y00458819D01*
X-00150905Y00472603D01*
X-00168915Y00480063D01*
X-00188408Y00480063D01*
X-00206418Y00472603D01*
X-00220202Y00458819D01*
X-00225708Y00445526D01*
X-00226966Y00453474D01*
X-00229544Y00461408D01*
X-00233332Y00468841D01*
X-00238235Y00475590D01*
X-00244134Y00481489D01*
X-00250883Y00486393D01*
X-00258316Y00490180D01*
X-00266250Y00492758D01*
X-00274490Y00494063D01*
X-00275661Y00494063D01*
X-00275661Y00444063D01*
X-00281661Y00444063D01*
X-00281661Y00494063D01*
X-00282833Y00494063D01*
X-00291072Y00492758D01*
X-00299006Y00490180D01*
X-00306439Y00486393D01*
X-00313188Y00481489D01*
X-00319087Y00475590D01*
X-00323991Y00468841D01*
X-00327778Y00461408D01*
X-00330356Y00453474D01*
X-00331661Y00445234D01*
X-00331661Y00444063D01*
X-00281662Y00444063D01*
X-00281662Y00438063D01*
X-00331661Y00438063D01*
X-00331661Y00436892D01*
X-00330356Y00428652D01*
X-00327778Y00420718D01*
X-00323991Y00413285D01*
X-00319087Y00406536D01*
X-00313188Y00400637D01*
X-00306439Y00395733D01*
X-00299006Y00391946D01*
X-00291072Y00389368D01*
X-00282833Y00388063D01*
X-00281661Y00388063D01*
X-00281661Y00438062D01*
X-00275661Y00438062D01*
X-00275661Y00388063D01*
X-00274490Y00388063D01*
X-00266250Y00389368D01*
X-00258316Y00391946D01*
X-00250883Y00395733D01*
X-00244134Y00400637D01*
X-00238235Y00406536D01*
X-00233332Y00413285D01*
X-00229544Y00420718D01*
X-00227661Y00426514D01*
X-00227661Y00421316D01*
X-00220202Y00403307D01*
X-00206418Y00389523D01*
X-00188408Y00382063D01*
X-00168915Y00382063D01*
X-00150905Y00389523D01*
X-00145998Y00394430D01*
X-00098661Y00347092D01*
X-00091632Y00340063D01*
X00098309Y00340063D01*
X00104309Y00346063D01*
X00232368Y00346063D01*
X00243339Y00335092D01*
X00243339Y00145505D01*
X00241137Y00147707D01*
X00239394Y00148429D01*
X00239394Y00334673D01*
X00234122Y00339945D01*
X00187296Y00339945D01*
X00182024Y00334673D01*
X00182024Y00146115D01*
X00187296Y00140843D01*
X00201339Y00140843D01*
X00201339Y00139001D01*
X00197449Y00129611D01*
X00197449Y00127484D01*
X00194751Y00130181D01*
X00147926Y00130181D01*
X00142654Y00124909D01*
X00142654Y00106348D01*
X00141339Y00105033D01*
X00117339Y00081033D01*
X00117339Y00051033D01*
X00088368Y00022063D01*
X00070368Y00022063D01*
X00063339Y00015033D01*
X00046368Y-00001937D01*
X00039339Y-00008966D01*
X00039339Y-00020488D01*
X00039338Y-00020488D01*
X00039338Y-00006907D01*
X00068309Y00022063D01*
X00073624Y00027378D01*
X00090185Y00027378D01*
X00095457Y00032650D01*
X00095457Y00078312D01*
X00095791Y00078173D01*
X00106886Y00078173D01*
X00117137Y00082419D01*
X00124982Y00090265D01*
X00129228Y00100515D01*
X00129228Y00111611D01*
X00124982Y00121861D01*
X00117137Y00129707D01*
X00106886Y00133953D01*
X00095791Y00133953D01*
X00085540Y00129707D01*
X00077695Y00121861D01*
X00073449Y00111611D01*
X00073449Y00100515D01*
X00077695Y00090265D01*
X00083212Y00084748D01*
X00039422Y00084748D01*
X00034150Y00079476D01*
X00034150Y00032650D01*
X00039422Y00027378D01*
X00039683Y00027378D01*
X00015339Y00003033D01*
X00015339Y-00005999D02*
X-00025752Y-00005999D01*
X-00031751Y-00011997D02*
X00015339Y-00011997D01*
X00015339Y-00017996D02*
X00006763Y-00017996D01*
X00012508Y-00023994D02*
X00015339Y-00023994D01*
X00015339Y-00029993D02*
X00013669Y-00029993D01*
X00013669Y-00035991D02*
X00015339Y-00035991D01*
X00015339Y-00041990D02*
X00013415Y-00041990D01*
X00012317Y-00047988D02*
X00010396Y-00047988D01*
X00015339Y-00061937D02*
X00027339Y-00049937D01*
X00027339Y-00001937D01*
X00063339Y00034063D01*
X00063339Y00052063D01*
X00064803Y00056063D01*
X00034150Y00053987D02*
X00028527Y00053987D01*
X00028527Y00059985D02*
X00034150Y00059985D01*
X00034150Y00065984D02*
X00028527Y00065984D01*
X00028527Y00071982D02*
X00034150Y00071982D01*
X00034150Y00077981D02*
X00028527Y00077981D01*
X00024024Y00083979D02*
X00038653Y00083979D01*
X00035791Y00088173D02*
X00046886Y00088173D01*
X00057137Y00092419D01*
X00064982Y00100265D01*
X00069228Y00110515D01*
X00069228Y00121611D01*
X00064982Y00131861D01*
X00057137Y00139707D01*
X00046886Y00143953D01*
X00035791Y00143953D01*
X00025540Y00139707D01*
X00017695Y00131861D01*
X00013449Y00121611D01*
X00013449Y00110515D01*
X00017695Y00100265D01*
X00025540Y00092419D01*
X00035791Y00088173D01*
X00031434Y00089978D02*
X00009338Y00089978D01*
X00009338Y00095976D02*
X00021983Y00095976D01*
X00016986Y00101975D02*
X00009338Y00101975D01*
X00009338Y00107973D02*
X00014502Y00107973D01*
X00013449Y00113972D02*
X00009338Y00113972D01*
X00009338Y00119970D02*
X00013449Y00119970D01*
X00015254Y00125969D02*
X00009338Y00125969D01*
X00009338Y00131968D02*
X00017801Y00131968D01*
X00020773Y00137966D02*
X00023800Y00137966D01*
X00025457Y00143965D02*
X00100666Y00143965D01*
X00100169Y00144825D02*
X00101881Y00141860D01*
X00104301Y00139440D01*
X00107266Y00137728D01*
X00110572Y00136843D01*
X00128969Y00136843D01*
X00128969Y00237393D01*
X00134968Y00237393D01*
X00134968Y00136843D01*
X00153365Y00136843D01*
X00156671Y00137728D01*
X00159636Y00139440D01*
X00162056Y00141860D01*
X00163767Y00144825D01*
X00164653Y00148131D01*
X00164653Y00237394D01*
X00134969Y00237394D01*
X00134969Y00243393D01*
X00164653Y00243393D01*
X00164653Y00332656D01*
X00163767Y00335963D01*
X00162056Y00338927D01*
X00159636Y00341347D01*
X00156671Y00343059D01*
X00153365Y00343945D01*
X00134968Y00343945D01*
X00134968Y00243394D01*
X00128969Y00243394D01*
X00128969Y00343945D01*
X00110572Y00343945D01*
X00107266Y00343059D01*
X00104301Y00341347D01*
X00101881Y00338927D01*
X00100169Y00335963D01*
X00099283Y00332656D01*
X00099283Y00243393D01*
X00128968Y00243393D01*
X00128968Y00237394D01*
X00099283Y00237394D01*
X00099283Y00148131D01*
X00100169Y00144825D01*
X00099283Y00149963D02*
X00071207Y00149963D01*
X00066886Y00148173D02*
X00077137Y00152419D01*
X00084982Y00160265D01*
X00089228Y00170515D01*
X00089228Y00181611D01*
X00084982Y00191861D01*
X00077137Y00199707D01*
X00066886Y00203953D01*
X00055791Y00203953D01*
X00045540Y00199707D01*
X00037695Y00191861D01*
X00033449Y00181611D01*
X00033449Y00170515D01*
X00037695Y00160265D01*
X00045540Y00152419D01*
X00055791Y00148173D01*
X00066886Y00148173D01*
X00058877Y00137966D02*
X00106854Y00137966D01*
X00111679Y00131968D02*
X00198425Y00131968D01*
X00200910Y00137966D02*
X00157083Y00137966D01*
X00163271Y00143965D02*
X00184174Y00143965D01*
X00182024Y00149963D02*
X00164653Y00149963D01*
X00164653Y00155962D02*
X00182024Y00155962D01*
X00182024Y00161960D02*
X00164653Y00161960D01*
X00164653Y00167959D02*
X00182024Y00167959D01*
X00182024Y00173957D02*
X00164653Y00173957D01*
X00164653Y00179956D02*
X00182024Y00179956D01*
X00182024Y00185954D02*
X00164653Y00185954D01*
X00164653Y00191953D02*
X00182024Y00191953D01*
X00182024Y00197951D02*
X00164653Y00197951D01*
X00164653Y00203950D02*
X00182024Y00203950D01*
X00182024Y00209948D02*
X00164653Y00209948D01*
X00164653Y00215947D02*
X00182024Y00215947D01*
X00182024Y00221945D02*
X00164653Y00221945D01*
X00164653Y00227944D02*
X00182024Y00227944D01*
X00182024Y00233942D02*
X00164653Y00233942D01*
X00164653Y00245939D02*
X00182024Y00245939D01*
X00182024Y00239941D02*
X00134969Y00239941D01*
X00134968Y00245939D02*
X00128969Y00245939D01*
X00128968Y00239941D02*
X00045033Y00239941D01*
X00038085Y00237063D02*
X00018592Y00237063D01*
X00000582Y00244523D01*
X-00013202Y00258307D01*
X-00020661Y00276316D01*
X-00020661Y00295810D01*
X-00013202Y00313819D01*
X00000582Y00327603D01*
X00018592Y00335063D01*
X00038085Y00335063D01*
X00056095Y00327603D01*
X00069879Y00313819D01*
X00077338Y00295810D01*
X00077338Y00276316D01*
X00069879Y00258307D01*
X00056095Y00244523D01*
X00038085Y00237063D01*
X00057511Y00245939D02*
X00099283Y00245939D01*
X00099283Y00251938D02*
X00063510Y00251938D01*
X00069508Y00257937D02*
X00099283Y00257937D01*
X00099283Y00263935D02*
X00072210Y00263935D01*
X00074695Y00269934D02*
X00099283Y00269934D01*
X00099283Y00275932D02*
X00077179Y00275932D01*
X00077338Y00281931D02*
X00099283Y00281931D01*
X00099283Y00287929D02*
X00077338Y00287929D01*
X00077338Y00293928D02*
X00099283Y00293928D01*
X00099283Y00299926D02*
X00075633Y00299926D01*
X00073149Y00305925D02*
X00099283Y00305925D01*
X00099283Y00311923D02*
X00070664Y00311923D01*
X00065776Y00317922D02*
X00099283Y00317922D01*
X00099283Y00323920D02*
X00059778Y00323920D01*
X00050504Y00329919D02*
X00099283Y00329919D01*
X00100157Y00335917D02*
X-00192676Y00335917D01*
X-00190772Y00340515D02*
X-00195018Y00330265D01*
X-00202863Y00322419D01*
X-00213114Y00318173D01*
X-00224209Y00318173D01*
X-00234460Y00322419D01*
X-00242305Y00330265D01*
X-00246551Y00340515D01*
X-00246551Y00351611D01*
X-00242305Y00361861D01*
X-00234460Y00369707D01*
X-00224209Y00373953D01*
X-00213114Y00373953D01*
X-00202863Y00369707D01*
X-00195018Y00361861D01*
X-00190772Y00351611D01*
X-00190772Y00340515D01*
X-00190772Y00341916D02*
X-00093485Y00341916D01*
X-00095408Y00335063D02*
X-00113418Y00327603D01*
X-00127202Y00313819D01*
X-00134661Y00295810D01*
X-00134661Y00285033D01*
X-00139632Y00280063D01*
X-00158638Y00280063D01*
X-00158638Y00285539D01*
X-00163910Y00290811D01*
X-00206799Y00290811D01*
X-00212071Y00285539D01*
X-00212071Y00246587D01*
X-00206799Y00241315D01*
X-00200577Y00241315D01*
X-00204460Y00239707D01*
X-00212305Y00231861D01*
X-00212661Y00231001D01*
X-00212661Y00291033D01*
X-00219691Y00298063D01*
X-00231691Y00310063D01*
X-00241315Y00310063D01*
X-00241315Y00322940D01*
X-00246587Y00328212D01*
X-00289476Y00328212D01*
X-00294748Y00322940D01*
X-00294748Y00283989D01*
X-00289476Y00278717D01*
X-00246587Y00278717D01*
X-00241315Y00283989D01*
X-00241315Y00285746D01*
X-00236661Y00281092D01*
X-00236661Y00157298D01*
X-00238663Y00162132D01*
X-00251805Y00175273D01*
X-00268975Y00182386D01*
X-00287560Y00182386D01*
X-00304730Y00175273D01*
X-00317872Y00162132D01*
X-00324984Y00144962D01*
X-00324984Y00126377D01*
X-00317872Y00109206D01*
X-00304730Y00096065D01*
X-00287560Y00088953D01*
X-00268975Y00088953D01*
X-00251805Y00096065D01*
X-00238663Y00109206D01*
X-00231551Y00126377D01*
X-00231551Y00144962D01*
X-00235102Y00153533D01*
X-00218661Y00137092D01*
X-00218661Y-00012907D01*
X-00182661Y-00048907D01*
X-00182661Y-00048907D01*
X-00177346Y-00054222D01*
X-00177346Y-00065854D01*
X-00172074Y-00071126D01*
X-00125248Y-00071126D01*
X-00119976Y-00065854D01*
X-00119976Y-00015091D01*
X-00125248Y-00009819D01*
X-00172074Y-00009819D01*
X-00177346Y-00015091D01*
X-00177346Y-00020282D01*
X-00194661Y-00002966D01*
X-00194661Y00147033D01*
X-00212661Y00165033D01*
X-00212661Y00201125D01*
X-00212305Y00200265D01*
X-00204460Y00192419D01*
X-00194209Y00188173D01*
X-00183114Y00188173D01*
X-00172863Y00192419D01*
X-00165018Y00200265D01*
X-00160772Y00210515D01*
X-00160772Y00221611D01*
X-00165018Y00231861D01*
X-00172863Y00239707D01*
X-00176746Y00241315D01*
X-00163910Y00241315D01*
X-00158638Y00246587D01*
X-00158638Y00256063D01*
X-00129691Y00256063D01*
X-00127273Y00258480D01*
X-00127202Y00258307D01*
X-00113418Y00244523D01*
X-00095408Y00237063D01*
X-00075915Y00237063D01*
X-00057905Y00244523D01*
X-00044121Y00258307D01*
X-00036661Y00276316D01*
X-00036661Y00295810D01*
X-00044121Y00313819D01*
X-00057905Y00327603D01*
X-00075915Y00335063D01*
X-00095408Y00335063D01*
X-00107827Y00329919D02*
X-00195363Y00329919D01*
X-00201362Y00323920D02*
X-00117100Y00323920D01*
X-00123099Y00317922D02*
X-00241315Y00317922D01*
X-00241315Y00311923D02*
X-00127987Y00311923D01*
X-00130471Y00305925D02*
X-00227553Y00305925D01*
X-00221554Y00299926D02*
X-00132956Y00299926D01*
X-00134661Y00293928D02*
X-00215556Y00293928D01*
X-00212661Y00287929D02*
X-00209680Y00287929D01*
X-00212071Y00281931D02*
X-00212661Y00281931D01*
X-00212661Y00275932D02*
X-00212071Y00275932D01*
X-00212071Y00269934D02*
X-00212661Y00269934D01*
X-00212661Y00263935D02*
X-00212071Y00263935D01*
X-00212071Y00257937D02*
X-00212661Y00257937D01*
X-00212661Y00251938D02*
X-00212071Y00251938D01*
X-00212661Y00245939D02*
X-00211423Y00245939D01*
X-00212661Y00239941D02*
X-00203894Y00239941D01*
X-00210224Y00233942D02*
X-00212661Y00233942D01*
X-00236661Y00233942D02*
X-00237315Y00233942D01*
X-00237315Y00231661D02*
X-00237315Y00246121D01*
X-00238201Y00249427D01*
X-00239912Y00252392D01*
X-00242333Y00254812D01*
X-00245297Y00256523D01*
X-00248603Y00257409D01*
X-00265032Y00257409D01*
X-00265032Y00231662D01*
X-00271031Y00231662D01*
X-00271031Y00257409D01*
X-00287460Y00257409D01*
X-00290766Y00256523D01*
X-00293730Y00254812D01*
X-00296150Y00252392D01*
X-00297862Y00249427D01*
X-00298748Y00246121D01*
X-00298748Y00231661D01*
X-00271032Y00231661D01*
X-00271032Y00225662D01*
X-00298748Y00225662D01*
X-00298748Y00211202D01*
X-00297862Y00207896D01*
X-00296150Y00204931D01*
X-00293730Y00202511D01*
X-00290766Y00200799D01*
X-00287460Y00199913D01*
X-00271031Y00199913D01*
X-00271031Y00225661D01*
X-00265032Y00225661D01*
X-00265032Y00199913D01*
X-00248603Y00199913D01*
X-00245297Y00200799D01*
X-00242333Y00202511D01*
X-00239912Y00204931D01*
X-00238201Y00207896D01*
X-00237315Y00211202D01*
X-00237315Y00225662D01*
X-00265031Y00225662D01*
X-00265031Y00231661D01*
X-00237315Y00231661D01*
X-00236661Y00227944D02*
X-00265031Y00227944D01*
X-00265032Y00233942D02*
X-00271031Y00233942D01*
X-00271032Y00227944D02*
X-00360661Y00227944D01*
X-00360661Y00233942D02*
X-00298748Y00233942D01*
X-00298748Y00239941D02*
X-00360661Y00239941D01*
X-00360661Y00245939D02*
X-00298748Y00245939D01*
X-00296412Y00251938D02*
X-00360661Y00251938D01*
X-00360661Y00257937D02*
X-00236661Y00257937D01*
X-00236661Y00263935D02*
X-00360661Y00263935D01*
X-00360661Y00269934D02*
X-00236661Y00269934D01*
X-00236661Y00275932D02*
X-00360661Y00275932D01*
X-00360661Y00281931D02*
X-00292690Y00281931D01*
X-00294748Y00287929D02*
X-00360661Y00287929D01*
X-00360661Y00293928D02*
X-00294748Y00293928D01*
X-00294748Y00299926D02*
X-00360661Y00299926D01*
X-00360661Y00305925D02*
X-00294748Y00305925D01*
X-00294748Y00311923D02*
X-00360661Y00311923D01*
X-00360661Y00317922D02*
X-00294748Y00317922D01*
X-00293768Y00323920D02*
X-00301362Y00323920D01*
X-00302863Y00322419D02*
X-00295018Y00330265D01*
X-00290772Y00340515D01*
X-00290772Y00351611D01*
X-00295018Y00361861D01*
X-00302863Y00369707D01*
X-00313114Y00373953D01*
X-00324209Y00373953D01*
X-00334460Y00369707D01*
X-00342305Y00361861D01*
X-00346551Y00351611D01*
X-00346551Y00340515D01*
X-00342305Y00330265D01*
X-00334460Y00322419D01*
X-00324209Y00318173D01*
X-00313114Y00318173D01*
X-00302863Y00322419D01*
X-00295363Y00329919D02*
X-00241959Y00329919D01*
X-00242295Y00323920D02*
X-00235961Y00323920D01*
X-00244647Y00335917D02*
X-00292676Y00335917D01*
X-00290772Y00341916D02*
X-00246551Y00341916D01*
X-00246551Y00347914D02*
X-00290772Y00347914D01*
X-00291725Y00353913D02*
X-00245597Y00353913D01*
X-00243113Y00359911D02*
X-00294210Y00359911D01*
X-00299066Y00365910D02*
X-00238256Y00365910D01*
X-00229144Y00371908D02*
X-00308179Y00371908D01*
X-00329144Y00371908D02*
X-00360661Y00371908D01*
X-00360661Y00365910D02*
X-00338256Y00365910D01*
X-00343113Y00359911D02*
X-00360661Y00359911D01*
X-00360661Y00353913D02*
X-00345597Y00353913D01*
X-00346551Y00347914D02*
X-00360661Y00347914D01*
X-00360661Y00341916D02*
X-00346551Y00341916D01*
X-00344647Y00335917D02*
X-00360661Y00335917D01*
X-00360661Y00329919D02*
X-00341959Y00329919D01*
X-00335961Y00323920D02*
X-00360661Y00323920D01*
X-00360661Y00377907D02*
X-00129476Y00377907D01*
X-00135474Y00383906D02*
X-00164466Y00383906D01*
X-00150524Y00389904D02*
X-00141473Y00389904D01*
X-00125528Y00407900D02*
X-00114794Y00407900D01*
X-00119529Y00401901D02*
X-00108796Y00401901D01*
X-00106418Y00399523D02*
X-00088408Y00392063D01*
X-00068915Y00392063D01*
X-00050905Y00399523D01*
X-00037121Y00413307D01*
X-00029661Y00431316D01*
X-00029661Y00450810D01*
X-00037121Y00468819D01*
X-00050905Y00482603D01*
X-00068915Y00490063D01*
X-00088408Y00490063D01*
X-00106418Y00482603D01*
X-00120202Y00468819D01*
X-00127661Y00450810D01*
X-00127661Y00431316D01*
X-00120202Y00413307D01*
X-00106418Y00399523D01*
X-00113531Y00395903D02*
X-00097678Y00395903D01*
X-00107532Y00389904D02*
X-00003016Y00389904D01*
X-00003016Y00395903D02*
X-00059645Y00395903D01*
X-00048527Y00401901D02*
X-00003016Y00401901D01*
X-00003016Y00407900D02*
X-00042528Y00407900D01*
X-00036876Y00413898D02*
X-00003016Y00413898D01*
X-00003016Y00419897D02*
X-00034392Y00419897D01*
X-00031907Y00425895D02*
X-00003016Y00425895D01*
X-00003016Y00431894D02*
X-00029661Y00431894D01*
X-00029661Y00437892D02*
X-00003016Y00437892D01*
X-00003016Y00443891D02*
X-00029661Y00443891D01*
X-00029661Y00449889D02*
X-00003016Y00449889D01*
X-00003016Y00455888D02*
X-00031765Y00455888D01*
X-00034250Y00461886D02*
X-00003016Y00461886D01*
X-00003016Y00467885D02*
X-00036734Y00467885D01*
X-00042185Y00473883D02*
X-00003016Y00473883D01*
X-00003016Y00479882D02*
X-00048184Y00479882D01*
X-00058817Y00485880D02*
X-00003016Y00485880D01*
X-00003016Y00491879D02*
X-00263545Y00491879D01*
X-00275661Y00491879D02*
X-00281661Y00491879D01*
X-00281661Y00485880D02*
X-00275661Y00485880D01*
X-00275661Y00479882D02*
X-00281661Y00479882D01*
X-00281661Y00473883D02*
X-00275661Y00473883D01*
X-00275661Y00467885D02*
X-00281661Y00467885D01*
X-00281661Y00461886D02*
X-00275661Y00461886D01*
X-00275661Y00455888D02*
X-00281661Y00455888D01*
X-00281661Y00449889D02*
X-00275661Y00449889D01*
X-00281662Y00443891D02*
X-00360045Y00443891D01*
X-00359652Y00448891D02*
X-00356677Y00458048D01*
X-00300646Y00514078D01*
X-00291489Y00517053D01*
X-00278662Y00518063D01*
X-00000728Y00518063D01*
X-00003016Y00515775D01*
X-00003016Y00374461D01*
X00002256Y00369189D01*
X00072704Y00369189D01*
X00077976Y00374461D01*
X00077976Y00515775D01*
X00075688Y00518063D01*
X00266989Y00518063D01*
X00264701Y00515775D01*
X00264701Y00374461D01*
X00269973Y00369189D01*
X00340421Y00369189D01*
X00345693Y00374461D01*
X00345693Y00511709D01*
X00399354Y00458048D01*
X00402329Y00448891D01*
X00403339Y00436063D01*
X00403339Y00283505D01*
X00397137Y00289707D01*
X00386886Y00293953D01*
X00375791Y00293953D01*
X00365540Y00289707D01*
X00357695Y00281861D01*
X00353449Y00271611D01*
X00353449Y00260515D01*
X00357695Y00250265D01*
X00365540Y00242419D01*
X00375791Y00238173D01*
X00386886Y00238173D01*
X00397137Y00242419D01*
X00403339Y00248621D01*
X00403339Y00223505D01*
X00397137Y00229707D01*
X00386886Y00233953D01*
X00375791Y00233953D01*
X00365540Y00229707D01*
X00357695Y00221861D01*
X00353449Y00211611D01*
X00353449Y00200515D01*
X00357695Y00190265D01*
X00365540Y00182419D01*
X00375791Y00178173D01*
X00386886Y00178173D01*
X00397137Y00182419D01*
X00403339Y00188621D01*
X00403339Y-00363937D01*
X00402329Y-00376765D01*
X00399354Y-00385922D01*
X00343323Y-00441952D01*
X00334166Y-00444927D01*
X00321339Y-00445937D01*
X-00278662Y-00445937D01*
X-00291489Y-00444927D01*
X-00300646Y-00441952D01*
X-00356677Y-00385922D01*
X-00359652Y-00376765D01*
X-00360661Y-00363937D01*
X-00360661Y00436063D01*
X-00359652Y00448891D01*
X-00359327Y00449889D02*
X-00330924Y00449889D01*
X-00329572Y00455888D02*
X-00357378Y00455888D01*
X-00352838Y00461886D02*
X-00327534Y00461886D01*
X-00324478Y00467885D02*
X-00346839Y00467885D01*
X-00340841Y00473883D02*
X-00320327Y00473883D01*
X-00314796Y00479882D02*
X-00334842Y00479882D01*
X-00328844Y00485880D02*
X-00307144Y00485880D01*
X-00293777Y00491879D02*
X-00322845Y00491879D01*
X-00316847Y00497877D02*
X-00003016Y00497877D01*
X-00003016Y00503876D02*
X-00310848Y00503876D01*
X-00304850Y00509875D02*
X-00003016Y00509875D01*
X-00002918Y00515873D02*
X-00295122Y00515873D01*
X-00250178Y00485880D02*
X-00098505Y00485880D01*
X-00109139Y00479882D02*
X-00168478Y00479882D01*
X-00153996Y00473883D02*
X-00115137Y00473883D01*
X-00120588Y00467885D02*
X-00146187Y00467885D01*
X-00140188Y00461886D02*
X-00123073Y00461886D01*
X-00125558Y00455888D02*
X-00135907Y00455888D01*
X-00133422Y00449889D02*
X-00127661Y00449889D01*
X-00127661Y00443891D02*
X-00130938Y00443891D01*
X-00129661Y00437892D02*
X-00127661Y00437892D01*
X-00127661Y00431894D02*
X-00129661Y00431894D01*
X-00129661Y00425895D02*
X-00125416Y00425895D01*
X-00122931Y00419897D02*
X-00130250Y00419897D01*
X-00131526Y00413898D02*
X-00120447Y00413898D01*
X-00164661Y00430063D02*
X-00086661Y00352063D01*
X00093339Y00352063D01*
X00099339Y00358063D01*
X00237339Y00358063D01*
X00255339Y00340063D01*
X00255339Y00070063D01*
X00207339Y00022063D01*
X00201339Y00028063D01*
X00171339Y00028063D01*
X00171339Y00032598D01*
X00142654Y00029993D02*
X00130239Y00029993D01*
X00136237Y00035991D02*
X00142654Y00035991D01*
X00142654Y00041990D02*
X00141338Y00041990D01*
X00141338Y00047988D02*
X00142654Y00047988D01*
X00142654Y00053987D02*
X00141338Y00053987D01*
X00141338Y00059985D02*
X00144659Y00059985D01*
X00141338Y00065984D02*
X00234289Y00065984D01*
X00240287Y00071982D02*
X00197860Y00071982D01*
X00200023Y00077981D02*
X00243339Y00077981D01*
X00243339Y00083979D02*
X00200023Y00083979D01*
X00200023Y00089978D02*
X00243339Y00089978D01*
X00243339Y00095976D02*
X00200023Y00095976D01*
X00200023Y00101975D02*
X00207984Y00101975D01*
X00201986Y00107973D02*
X00200023Y00107973D01*
X00171339Y00100063D02*
X00171339Y00099528D01*
X00171339Y00100063D02*
X00153339Y00100063D01*
X00129339Y00076063D01*
X00129339Y00046063D01*
X00093339Y00010063D01*
X00117339Y-00013937D01*
X00117339Y-00151937D01*
X00141339Y-00175937D01*
X00171339Y-00175937D01*
X00171339Y-00180472D01*
X00200023Y-00179956D02*
X00277639Y-00179956D01*
X00280123Y-00185954D02*
X00200023Y-00185954D01*
X00200023Y-00191953D02*
X00283287Y-00191953D01*
X00289286Y-00197951D02*
X00200023Y-00197951D01*
X00200023Y-00203950D02*
X00295305Y-00203950D01*
X00302264Y-00217330D02*
X00295151Y-00220954D01*
X00288693Y-00225646D01*
X00283048Y-00231291D01*
X00278356Y-00237749D01*
X00274731Y-00244862D01*
X00272265Y-00252454D01*
X00271016Y-00260339D01*
X00271016Y-00261331D01*
X00318732Y-00261331D01*
X00318732Y-00267330D01*
X00271016Y-00267330D01*
X00271016Y-00268322D01*
X00272265Y-00276207D01*
X00274731Y-00283799D01*
X00278356Y-00290912D01*
X00283048Y-00297370D01*
X00288693Y-00303015D01*
X00295151Y-00307707D01*
X00302264Y-00311331D01*
X00309856Y-00313798D01*
X00317741Y-00315047D01*
X00318732Y-00315047D01*
X00318732Y-00267331D01*
X00324732Y-00267331D01*
X00324732Y-00315047D01*
X00325724Y-00315047D01*
X00333608Y-00313798D01*
X00341201Y-00311331D01*
X00348313Y-00307707D01*
X00354772Y-00303015D01*
X00360417Y-00297370D01*
X00365109Y-00290912D01*
X00368733Y-00283799D01*
X00371200Y-00276207D01*
X00372449Y-00268322D01*
X00372449Y-00267330D01*
X00324733Y-00267330D01*
X00324733Y-00261331D01*
X00372449Y-00261331D01*
X00372449Y-00260339D01*
X00371200Y-00252454D01*
X00368733Y-00244862D01*
X00365109Y-00237749D01*
X00360417Y-00231291D01*
X00354772Y-00225646D01*
X00348313Y-00220954D01*
X00341201Y-00217330D01*
X00333608Y-00214863D01*
X00325724Y-00213614D01*
X00324732Y-00213614D01*
X00324732Y-00261330D01*
X00318732Y-00261330D01*
X00318732Y-00213614D01*
X00317741Y-00213614D01*
X00309856Y-00214863D01*
X00302264Y-00217330D01*
X00306520Y-00215947D02*
X00089457Y-00215947D01*
X00089457Y-00220937D02*
X00089457Y-00202540D01*
X00088571Y-00199234D01*
X00086859Y-00196270D01*
X00084439Y-00193849D01*
X00081474Y-00192138D01*
X00078168Y-00191252D01*
X00057803Y-00191252D01*
X00057803Y-00220937D01*
X00057804Y-00220937D02*
X00089457Y-00220937D01*
X00089456Y-00226937D02*
X00057804Y-00226937D01*
X00057804Y-00220937D01*
X00057803Y-00220937D02*
X00051803Y-00220937D01*
X00051803Y-00226937D01*
X00057803Y-00226937D01*
X00057803Y-00256622D01*
X00078168Y-00256622D01*
X00081474Y-00255736D01*
X00084439Y-00254024D01*
X00086859Y-00251604D01*
X00088571Y-00248640D01*
X00089457Y-00245334D01*
X00089456Y-00226937D01*
X00089457Y-00227944D02*
X00142654Y-00227944D01*
X00142654Y-00222020D02*
X00142654Y-00272783D01*
X00147926Y-00278055D01*
X00160486Y-00278055D01*
X00171327Y-00288895D01*
X00162342Y-00297880D01*
X00155339Y-00314787D01*
X00155339Y-00333087D01*
X00162342Y-00349994D01*
X00175282Y-00362934D01*
X00192188Y-00369937D01*
X00210489Y-00369937D01*
X00227395Y-00362934D01*
X00240335Y-00349994D01*
X00247338Y-00333087D01*
X00247338Y-00314787D01*
X00240335Y-00297880D01*
X00227395Y-00284940D01*
X00210489Y-00277937D01*
X00194869Y-00277937D01*
X00200023Y-00272783D01*
X00200023Y-00222020D01*
X00194751Y-00216748D01*
X00147926Y-00216748D01*
X00142654Y-00222020D01*
X00142728Y-00221945D02*
X00057804Y-00221945D01*
X00057803Y-00215947D02*
X00051803Y-00215947D01*
X00051803Y-00220937D02*
X00051803Y-00191252D01*
X00031438Y-00191252D01*
X00028132Y-00192138D01*
X00025167Y-00193849D01*
X00022747Y-00196270D01*
X00021036Y-00199234D01*
X00020150Y-00202540D01*
X00020150Y-00220937D01*
X00051803Y-00220937D01*
X00051803Y-00221945D02*
X00018527Y-00221945D01*
X00020150Y-00226937D02*
X00020150Y-00245334D01*
X00021036Y-00248640D01*
X00022747Y-00251604D01*
X00025167Y-00254024D01*
X00028132Y-00255736D01*
X00031438Y-00256622D01*
X00051803Y-00256622D01*
X00051803Y-00226937D01*
X00020150Y-00226937D01*
X00020150Y-00227944D02*
X00018527Y-00227944D01*
X00018527Y-00233942D02*
X00020150Y-00233942D01*
X00020150Y-00239941D02*
X00018527Y-00239941D01*
X00018527Y-00245939D02*
X00020312Y-00245939D01*
X00023081Y-00251938D02*
X00013939Y-00251938D01*
X00016886Y-00266047D02*
X00005791Y-00266047D01*
X-00004460Y-00270293D01*
X-00012305Y-00278139D01*
X-00016551Y-00288389D01*
X-00016551Y-00299485D01*
X-00012305Y-00309735D01*
X-00004460Y-00317581D01*
X00005791Y-00321827D01*
X00016886Y-00321827D01*
X00027137Y-00317581D01*
X00034982Y-00309735D01*
X00039228Y-00299485D01*
X00039228Y-00288389D01*
X00034982Y-00278139D01*
X00027137Y-00270293D01*
X00016886Y-00266047D01*
X00026269Y-00269934D02*
X00142654Y-00269934D01*
X00142654Y-00263935D02*
X-00121128Y-00263935D01*
X-00119976Y-00262783D02*
X-00125248Y-00268055D01*
X-00140661Y-00268055D01*
X-00140661Y-00270907D01*
X-00151153Y-00281399D01*
X-00142604Y-00284940D01*
X-00129664Y-00297880D01*
X-00122661Y-00314787D01*
X-00122661Y-00333087D01*
X-00129664Y-00349994D01*
X-00142604Y-00362934D01*
X-00159511Y-00369937D01*
X-00177811Y-00369937D01*
X-00194718Y-00362934D01*
X-00207658Y-00349994D01*
X-00214661Y-00333087D01*
X-00214661Y-00314787D01*
X-00207658Y-00297880D01*
X-00194718Y-00284940D01*
X-00182661Y-00279946D01*
X-00182661Y-00278966D01*
X-00175632Y-00271937D01*
X-00171750Y-00268055D01*
X-00172074Y-00268055D01*
X-00177346Y-00262783D01*
X-00177346Y-00212020D01*
X-00172074Y-00206748D01*
X-00125248Y-00206748D01*
X-00119976Y-00212020D01*
X-00119976Y-00262783D01*
X-00119976Y-00257937D02*
X00142654Y-00257937D01*
X00142654Y-00251938D02*
X00086525Y-00251938D01*
X00089294Y-00245939D02*
X00142654Y-00245939D01*
X00142654Y-00239941D02*
X00089457Y-00239941D01*
X00089457Y-00233942D02*
X00142654Y-00233942D01*
X00171339Y-00247402D02*
X00171339Y-00271937D01*
X00201339Y-00301937D01*
X00201339Y-00323937D01*
X00247338Y-00323920D02*
X00297216Y-00323920D01*
X00295269Y-00324726D02*
X00282128Y-00337868D01*
X00275016Y-00355038D01*
X00275016Y-00373623D01*
X00282128Y-00390793D01*
X00295269Y-00403935D01*
X00312440Y-00411047D01*
X00331025Y-00411047D01*
X00348195Y-00403935D01*
X00361336Y-00390793D01*
X00368449Y-00373623D01*
X00368449Y-00355038D01*
X00361336Y-00337868D01*
X00348195Y-00324726D01*
X00331025Y-00317614D01*
X00312440Y-00317614D01*
X00295269Y-00324726D01*
X00290077Y-00329919D02*
X00247338Y-00329919D01*
X00246166Y-00335917D02*
X00284078Y-00335917D01*
X00280451Y-00341916D02*
X00243681Y-00341916D01*
X00241197Y-00347914D02*
X00277967Y-00347914D01*
X00275482Y-00353913D02*
X00236416Y-00353913D01*
X00230418Y-00359911D02*
X00275016Y-00359911D01*
X00275016Y-00365910D02*
X00220210Y-00365910D01*
X00182467Y-00365910D02*
X00128633Y-00365910D01*
X00127544Y-00366701D02*
X00133911Y-00362075D01*
X00139476Y-00356510D01*
X00144102Y-00350143D01*
X00147675Y-00343130D01*
X00150107Y-00335645D01*
X00151338Y-00327872D01*
X00151338Y-00326937D01*
X00104339Y-00326937D01*
X00104339Y-00320937D01*
X00151338Y-00320937D01*
X00151338Y-00320002D01*
X00150107Y-00312229D01*
X00147675Y-00304744D01*
X00144102Y-00297731D01*
X00139476Y-00291364D01*
X00133911Y-00285799D01*
X00127544Y-00281173D01*
X00120532Y-00277600D01*
X00113047Y-00275168D01*
X00105274Y-00273937D01*
X00104338Y-00273937D01*
X00104338Y-00320936D01*
X00098339Y-00320936D01*
X00098339Y-00273937D01*
X00097403Y-00273937D01*
X00089630Y-00275168D01*
X00082145Y-00277600D01*
X00075133Y-00281173D01*
X00068766Y-00285799D01*
X00063201Y-00291364D01*
X00058575Y-00297731D01*
X00055002Y-00304744D01*
X00052570Y-00312229D01*
X00051339Y-00320002D01*
X00051339Y-00320937D01*
X00098338Y-00320937D01*
X00098338Y-00326937D01*
X00051339Y-00326937D01*
X00051339Y-00327872D01*
X00052570Y-00335645D01*
X00055002Y-00343130D01*
X00058575Y-00350143D01*
X00063201Y-00356510D01*
X00068766Y-00362075D01*
X00075133Y-00366701D01*
X00082145Y-00370274D01*
X00089630Y-00372706D01*
X00097403Y-00373937D01*
X00098339Y-00373937D01*
X00098339Y-00326938D01*
X00104338Y-00326938D01*
X00104338Y-00373937D01*
X00105274Y-00373937D01*
X00113047Y-00372706D01*
X00120532Y-00370274D01*
X00127544Y-00366701D01*
X00136075Y-00359911D02*
X00172259Y-00359911D01*
X00166261Y-00353913D02*
X00141363Y-00353913D01*
X00145238Y-00347914D02*
X00161480Y-00347914D01*
X00158996Y-00341916D02*
X00148070Y-00341916D01*
X00150019Y-00335917D02*
X00156511Y-00335917D01*
X00155339Y-00329919D02*
X00151014Y-00329919D01*
X00155339Y-00323920D02*
X00104339Y-00323920D01*
X00104338Y-00317922D02*
X00098339Y-00317922D01*
X00098338Y-00323920D02*
X-00065661Y-00323920D01*
X-00065661Y-00320937D02*
X-00018661Y-00320937D01*
X-00018661Y-00320002D01*
X-00019893Y-00312229D01*
X-00022325Y-00304744D01*
X-00025898Y-00297731D01*
X-00030523Y-00291364D01*
X-00036089Y-00285799D01*
X-00042456Y-00281173D01*
X-00049468Y-00277600D01*
X-00056953Y-00275168D01*
X-00064726Y-00273937D01*
X-00065661Y-00273937D01*
X-00065661Y-00320936D01*
X-00071661Y-00320936D01*
X-00071661Y-00273937D01*
X-00072596Y-00273937D01*
X-00080370Y-00275168D01*
X-00087855Y-00277600D01*
X-00094867Y-00281173D01*
X-00101234Y-00285799D01*
X-00106799Y-00291364D01*
X-00111425Y-00297731D01*
X-00114998Y-00304744D01*
X-00117430Y-00312229D01*
X-00118661Y-00320002D01*
X-00118661Y-00320937D01*
X-00071662Y-00320937D01*
X-00071662Y-00326937D01*
X-00118661Y-00326937D01*
X-00118661Y-00327872D01*
X-00117430Y-00335645D01*
X-00114998Y-00343130D01*
X-00111425Y-00350143D01*
X-00106799Y-00356510D01*
X-00101234Y-00362075D01*
X-00094867Y-00366701D01*
X-00087855Y-00370274D01*
X-00080370Y-00372706D01*
X-00072596Y-00373937D01*
X-00071661Y-00373937D01*
X-00071661Y-00326938D01*
X-00065661Y-00326938D01*
X-00065661Y-00373937D01*
X-00064726Y-00373937D01*
X-00056953Y-00372706D01*
X-00049468Y-00370274D01*
X-00042456Y-00366701D01*
X-00036089Y-00362075D01*
X-00030523Y-00356510D01*
X-00025898Y-00350143D01*
X-00022325Y-00343130D01*
X-00019893Y-00335645D01*
X-00018661Y-00327872D01*
X-00018661Y-00326937D01*
X-00065661Y-00326937D01*
X-00065661Y-00320937D01*
X-00065661Y-00317922D02*
X-00071661Y-00317922D01*
X-00071662Y-00323920D02*
X-00122661Y-00323920D01*
X-00122661Y-00317922D02*
X-00118332Y-00317922D01*
X-00117331Y-00311923D02*
X-00123848Y-00311923D01*
X-00126332Y-00305925D02*
X-00115382Y-00305925D01*
X-00112544Y-00299926D02*
X-00128817Y-00299926D01*
X-00133617Y-00293928D02*
X-00108662Y-00293928D01*
X-00103364Y-00287929D02*
X-00139615Y-00287929D01*
X-00149870Y-00281931D02*
X-00095910Y-00281931D01*
X-00082721Y-00275932D02*
X-00145686Y-00275932D01*
X-00140661Y-00269934D02*
X-00003591Y-00269934D01*
X-00010099Y-00275932D02*
X-00054602Y-00275932D01*
X-00065661Y-00275932D02*
X-00071661Y-00275932D01*
X-00071661Y-00281931D02*
X-00065661Y-00281931D01*
X-00065661Y-00287929D02*
X-00071661Y-00287929D01*
X-00071661Y-00293928D02*
X-00065661Y-00293928D01*
X-00065661Y-00299926D02*
X-00071661Y-00299926D01*
X-00071661Y-00305925D02*
X-00065661Y-00305925D01*
X-00065661Y-00311923D02*
X-00071661Y-00311923D01*
X-00071661Y-00329919D02*
X-00065661Y-00329919D01*
X-00065661Y-00335917D02*
X-00071661Y-00335917D01*
X-00071661Y-00341916D02*
X-00065661Y-00341916D01*
X-00065661Y-00347914D02*
X-00071661Y-00347914D01*
X-00071661Y-00353913D02*
X-00065661Y-00353913D01*
X-00065661Y-00359911D02*
X-00071661Y-00359911D01*
X-00071661Y-00365910D02*
X-00065661Y-00365910D01*
X-00065661Y-00371908D02*
X-00071661Y-00371908D01*
X-00082823Y-00371908D02*
X-00228119Y-00371908D01*
X-00227551Y-00368322D02*
X-00228800Y-00376207D01*
X-00231267Y-00383799D01*
X-00234891Y-00390912D01*
X-00239583Y-00397370D01*
X-00245228Y-00403015D01*
X-00251686Y-00407707D01*
X-00258799Y-00411331D01*
X-00266391Y-00413798D01*
X-00274276Y-00415047D01*
X-00275268Y-00415047D01*
X-00275268Y-00367331D01*
X-00281267Y-00367331D01*
X-00281267Y-00415047D01*
X-00282259Y-00415047D01*
X-00290144Y-00413798D01*
X-00297736Y-00411331D01*
X-00304849Y-00407707D01*
X-00311307Y-00403015D01*
X-00316952Y-00397370D01*
X-00321644Y-00390912D01*
X-00325268Y-00383799D01*
X-00327735Y-00376207D01*
X-00328984Y-00368322D01*
X-00328984Y-00367330D01*
X-00281268Y-00367330D01*
X-00281268Y-00361331D01*
X-00328984Y-00361331D01*
X-00328984Y-00360339D01*
X-00327735Y-00352454D01*
X-00325268Y-00344862D01*
X-00321644Y-00337749D01*
X-00316952Y-00331291D01*
X-00311307Y-00325646D01*
X-00304849Y-00320954D01*
X-00297736Y-00317330D01*
X-00290144Y-00314863D01*
X-00282259Y-00313614D01*
X-00281267Y-00313614D01*
X-00281267Y-00361330D01*
X-00275268Y-00361330D01*
X-00275268Y-00313614D01*
X-00274276Y-00313614D01*
X-00266391Y-00314863D01*
X-00258799Y-00317330D01*
X-00251686Y-00320954D01*
X-00245228Y-00325646D01*
X-00239583Y-00331291D01*
X-00234891Y-00337749D01*
X-00231267Y-00344862D01*
X-00228800Y-00352454D01*
X-00227551Y-00360339D01*
X-00227551Y-00361331D01*
X-00275267Y-00361331D01*
X-00275267Y-00367330D01*
X-00227551Y-00367330D01*
X-00227551Y-00368322D01*
X-00227619Y-00359911D02*
X-00197741Y-00359911D01*
X-00203739Y-00353913D02*
X-00228569Y-00353913D01*
X-00230275Y-00347914D02*
X-00208520Y-00347914D01*
X-00211004Y-00341916D02*
X-00232768Y-00341916D01*
X-00236222Y-00335917D02*
X-00213489Y-00335917D01*
X-00214661Y-00329919D02*
X-00240956Y-00329919D01*
X-00247604Y-00323920D02*
X-00214661Y-00323920D01*
X-00214661Y-00317922D02*
X-00257637Y-00317922D01*
X-00269369Y-00310653D02*
X-00252199Y-00303541D01*
X-00239057Y-00290400D01*
X-00231945Y-00273229D01*
X-00231945Y-00254644D01*
X-00239057Y-00237474D01*
X-00252199Y-00224333D01*
X-00269369Y-00217220D01*
X-00287954Y-00217220D01*
X-00305124Y-00224333D01*
X-00318266Y-00237474D01*
X-00325378Y-00254644D01*
X-00325378Y-00273229D01*
X-00318266Y-00290400D01*
X-00305124Y-00303541D01*
X-00287954Y-00310653D01*
X-00269369Y-00310653D01*
X-00275268Y-00317922D02*
X-00281267Y-00317922D01*
X-00281267Y-00323920D02*
X-00275268Y-00323920D01*
X-00275268Y-00329919D02*
X-00281267Y-00329919D01*
X-00281267Y-00335917D02*
X-00275268Y-00335917D01*
X-00275268Y-00341916D02*
X-00281267Y-00341916D01*
X-00281267Y-00347914D02*
X-00275268Y-00347914D01*
X-00275268Y-00353913D02*
X-00281267Y-00353913D01*
X-00281267Y-00359911D02*
X-00275268Y-00359911D01*
X-00275267Y-00365910D02*
X-00187533Y-00365910D01*
X-00149789Y-00365910D02*
X-00095956Y-00365910D01*
X-00103398Y-00359911D02*
X-00139582Y-00359911D01*
X-00133584Y-00353913D02*
X-00108686Y-00353913D01*
X-00112561Y-00347914D02*
X-00128803Y-00347914D01*
X-00126319Y-00341916D02*
X-00115393Y-00341916D01*
X-00117342Y-00335917D02*
X-00123834Y-00335917D01*
X-00122661Y-00329919D02*
X-00118337Y-00329919D01*
X-00168661Y-00323937D02*
X-00170661Y-00319937D01*
X-00170661Y-00283937D01*
X-00152661Y-00265937D01*
X-00152661Y-00241937D01*
X-00148661Y-00237402D01*
X-00119976Y-00239941D02*
X-00102099Y-00239941D01*
X-00102305Y-00239735D02*
X-00094460Y-00247581D01*
X-00084209Y-00251827D01*
X-00073114Y-00251827D01*
X-00062863Y-00247581D01*
X-00055018Y-00239735D01*
X-00050772Y-00229485D01*
X-00050772Y-00218389D01*
X-00055018Y-00208139D01*
X-00062863Y-00200293D01*
X-00073114Y-00196047D01*
X-00084209Y-00196047D01*
X-00094460Y-00200293D01*
X-00102305Y-00208139D01*
X-00106551Y-00218389D01*
X-00106551Y-00229485D01*
X-00102305Y-00239735D01*
X-00104705Y-00233942D02*
X-00119976Y-00233942D01*
X-00119976Y-00227944D02*
X-00106551Y-00227944D01*
X-00106551Y-00221945D02*
X-00119976Y-00221945D01*
X-00119976Y-00215947D02*
X-00105539Y-00215947D01*
X-00103055Y-00209948D02*
X-00122048Y-00209948D01*
X-00125248Y-00201126D02*
X-00119976Y-00195854D01*
X-00119976Y-00145091D01*
X-00125248Y-00139819D01*
X-00134661Y-00139819D01*
X-00134661Y-00138055D01*
X-00125248Y-00138055D01*
X-00119976Y-00132783D01*
X-00119976Y-00082020D01*
X-00125248Y-00076748D01*
X-00172074Y-00076748D01*
X-00177346Y-00082020D01*
X-00177346Y-00086282D01*
X-00206661Y-00056966D01*
X-00206661Y-00032966D01*
X-00243749Y00004121D01*
X-00238663Y00009206D01*
X-00231551Y00026377D01*
X-00231551Y00044962D01*
X-00238663Y00062132D01*
X-00251805Y00075273D01*
X-00268975Y00082386D01*
X-00287560Y00082386D01*
X-00304730Y00075273D01*
X-00317872Y00062132D01*
X-00324984Y00044962D01*
X-00324984Y00026377D01*
X-00317872Y00009206D01*
X-00304730Y-00003935D01*
X-00287560Y-00011047D01*
X-00268975Y-00011047D01*
X-00264412Y-00009157D01*
X-00230661Y-00042907D01*
X-00230661Y-00066907D01*
X-00223632Y-00073937D01*
X-00181632Y-00115937D01*
X-00177346Y-00115937D01*
X-00177346Y-00132783D01*
X-00172074Y-00138055D01*
X-00158661Y-00138055D01*
X-00158661Y-00139819D01*
X-00172074Y-00139819D01*
X-00177346Y-00145091D01*
X-00177346Y-00195854D01*
X-00172074Y-00201126D01*
X-00125248Y-00201126D01*
X-00122074Y-00197951D02*
X-00088806Y-00197951D01*
X-00084209Y-00191827D02*
X-00073114Y-00191827D01*
X-00062863Y-00187581D01*
X-00055018Y-00179735D01*
X-00050772Y-00169485D01*
X-00050772Y-00158389D01*
X-00055018Y-00148139D01*
X-00062863Y-00140293D01*
X-00073114Y-00136047D01*
X-00084209Y-00136047D01*
X-00094460Y-00140293D01*
X-00102305Y-00148139D01*
X-00106551Y-00158389D01*
X-00106551Y-00169485D01*
X-00102305Y-00179735D01*
X-00094460Y-00187581D01*
X-00084209Y-00191827D01*
X-00096086Y-00185954D02*
X-00119976Y-00185954D01*
X-00119976Y-00179956D02*
X-00102085Y-00179956D01*
X-00104699Y-00173957D02*
X-00119976Y-00173957D01*
X-00119976Y-00167959D02*
X-00106551Y-00167959D01*
X-00106551Y-00161960D02*
X-00119976Y-00161960D01*
X-00119976Y-00155962D02*
X-00105545Y-00155962D01*
X-00103061Y-00149963D02*
X-00119976Y-00149963D01*
X-00121103Y-00143965D02*
X-00098131Y-00143965D01*
X-00088841Y-00137966D02*
X-00125159Y-00137966D01*
X-00119976Y-00131968D02*
X00042338Y-00131968D01*
X00036339Y-00137966D02*
X00001519Y-00137966D01*
X00010808Y-00143965D02*
X00030341Y-00143965D01*
X00024342Y-00149963D02*
X00015738Y-00149963D01*
X00018223Y-00155962D02*
X00018344Y-00155962D01*
X00046286Y-00161960D02*
X00110391Y-00161960D01*
X00105339Y-00155962D02*
X00052284Y-00155962D01*
X00058283Y-00149963D02*
X00105339Y-00149963D01*
X00105339Y-00143965D02*
X00064281Y-00143965D01*
X00070280Y-00137966D02*
X00105339Y-00137966D01*
X00105339Y-00131968D02*
X00076278Y-00131968D01*
X00082277Y-00125969D02*
X00105339Y-00125969D01*
X00105339Y-00119970D02*
X00088275Y-00119970D01*
X00093338Y-00113972D02*
X00105339Y-00113972D01*
X00105339Y-00107973D02*
X00093338Y-00107973D01*
X00093338Y-00101975D02*
X00105339Y-00101975D01*
X00105339Y-00095976D02*
X00093338Y-00095976D01*
X00093338Y-00089978D02*
X00105339Y-00089978D01*
X00105339Y-00083979D02*
X00093338Y-00083979D01*
X00093338Y-00077981D02*
X00105339Y-00077981D01*
X00105339Y-00071982D02*
X00090354Y-00071982D01*
X00081339Y-00079937D02*
X00069339Y-00067937D01*
X00063339Y-00073937D01*
X00051339Y-00073937D01*
X00050866Y-00073780D01*
X00045339Y-00091937D02*
X00050866Y-00093465D01*
X00045339Y-00091937D02*
X00039339Y-00091937D01*
X00015339Y-00067937D01*
X00015339Y-00061937D01*
X00014410Y-00083979D02*
X00008118Y-00083979D01*
X00009669Y-00089978D02*
X00020409Y-00089978D01*
X00026407Y-00095976D02*
X00009669Y-00095976D01*
X00008943Y-00101975D02*
X00032406Y-00101975D01*
X00054335Y-00119970D02*
X-00119976Y-00119970D01*
X-00119976Y-00113972D02*
X00060333Y-00113972D01*
X00066332Y-00107973D02*
X-00013727Y-00107973D01*
X-00020661Y-00097937D02*
X-00032661Y-00097937D01*
X-00044661Y-00085937D01*
X-00044661Y-00007937D01*
X-00002661Y00034063D01*
X-00002661Y00052063D01*
X-00002126Y00056063D01*
X-00002661Y00058063D01*
X-00002661Y00166063D01*
X-00005197Y00166063D01*
X-00035850Y00167959D02*
X-00041472Y00167959D01*
X-00041472Y00173957D02*
X-00035850Y00173957D01*
X-00035850Y00179956D02*
X-00041472Y00179956D01*
X-00041472Y00185954D02*
X-00035850Y00185954D01*
X-00033373Y00191953D02*
X-00043949Y00191953D01*
X-00041472Y00189476D02*
X-00046744Y00194748D01*
X-00097507Y00194748D01*
X-00102779Y00189476D01*
X-00102779Y00142650D01*
X-00097507Y00137378D01*
X-00080661Y00137378D01*
X-00080661Y00135033D01*
X-00094506Y00121188D01*
X-00115931Y00130063D01*
X-00141392Y00130063D01*
X-00164914Y00120320D01*
X-00182918Y00102316D01*
X-00192661Y00078793D01*
X-00192661Y00053333D01*
X-00182918Y00029810D01*
X-00164914Y00011806D01*
X-00141392Y00002063D01*
X-00115931Y00002063D01*
X-00109397Y00004770D01*
X-00112305Y00001861D01*
X-00116551Y-00008389D01*
X-00116551Y-00019485D01*
X-00112305Y-00029735D01*
X-00104460Y-00037581D01*
X-00094209Y-00041827D01*
X-00083114Y-00041827D01*
X-00072863Y-00037581D01*
X-00065018Y-00029735D01*
X-00060772Y-00019485D01*
X-00060772Y-00008389D01*
X-00065018Y00001861D01*
X-00072863Y00009707D01*
X-00083114Y00013953D01*
X-00090262Y00013953D01*
X-00074405Y00029810D01*
X-00064661Y00053333D01*
X-00064661Y00078793D01*
X-00074405Y00102316D01*
X-00076921Y00104833D01*
X-00056661Y00125092D01*
X-00056661Y00137378D01*
X-00046744Y00137378D01*
X-00041472Y00142650D01*
X-00041472Y00189476D01*
X-00068661Y00166063D02*
X-00072126Y00166063D01*
X-00068661Y00166063D02*
X-00068661Y00130063D01*
X-00128661Y00070063D01*
X-00128661Y00066063D01*
X-00069360Y00041990D02*
X-00032779Y00041990D01*
X-00032779Y00047988D02*
X-00066875Y00047988D01*
X-00064661Y00053987D02*
X-00032779Y00053987D01*
X-00032779Y00059985D02*
X-00064661Y00059985D01*
X-00064661Y00065984D02*
X-00032779Y00065984D01*
X-00032779Y00071982D02*
X-00064661Y00071982D01*
X-00064661Y00077981D02*
X-00032779Y00077981D01*
X-00028276Y00083979D02*
X-00066809Y00083979D01*
X-00069294Y00089978D02*
X-00014661Y00089978D01*
X-00014661Y00095976D02*
X-00071779Y00095976D01*
X-00074263Y00101975D02*
X-00014661Y00101975D01*
X-00014661Y00107973D02*
X-00073781Y00107973D01*
X-00067782Y00113972D02*
X-00014661Y00113972D01*
X-00014661Y00119970D02*
X-00061783Y00119970D01*
X-00056661Y00125969D02*
X-00014661Y00125969D01*
X-00014661Y00131968D02*
X-00056661Y00131968D01*
X-00046156Y00137966D02*
X-00031166Y00137966D01*
X-00035850Y00143965D02*
X-00041472Y00143965D01*
X-00041472Y00149963D02*
X-00035850Y00149963D01*
X-00035850Y00155962D02*
X-00041472Y00155962D01*
X-00041472Y00161960D02*
X-00035850Y00161960D01*
X-00083727Y00131968D02*
X-00194661Y00131968D01*
X-00194661Y00137966D02*
X-00098095Y00137966D01*
X-00102779Y00143965D02*
X-00194661Y00143965D01*
X-00197591Y00149963D02*
X-00102779Y00149963D01*
X-00102779Y00155962D02*
X-00203590Y00155962D01*
X-00209588Y00161960D02*
X-00102779Y00161960D01*
X-00102779Y00167959D02*
X-00212661Y00167959D01*
X-00212661Y00173957D02*
X-00102779Y00173957D01*
X-00102779Y00179956D02*
X-00212661Y00179956D01*
X-00212661Y00185954D02*
X-00102779Y00185954D01*
X-00100303Y00191953D02*
X-00113989Y00191953D01*
X-00112863Y00192419D02*
X-00105018Y00200265D01*
X-00100772Y00210515D01*
X-00100772Y00221611D01*
X-00105018Y00231861D01*
X-00112863Y00239707D01*
X-00123114Y00243953D01*
X-00134209Y00243953D01*
X-00144460Y00239707D01*
X-00152305Y00231861D01*
X-00156551Y00221611D01*
X-00156551Y00210515D01*
X-00152305Y00200265D01*
X-00144460Y00192419D01*
X-00134209Y00188173D01*
X-00123114Y00188173D01*
X-00112863Y00192419D01*
X-00107331Y00197951D02*
X00043785Y00197951D01*
X00037786Y00191953D02*
X00022980Y00191953D01*
X00025457Y00185954D02*
X00035248Y00185954D01*
X00033449Y00179956D02*
X00025457Y00179956D01*
X00025457Y00173957D02*
X00033449Y00173957D01*
X00034508Y00167959D02*
X00025457Y00167959D01*
X00025457Y00161960D02*
X00036992Y00161960D01*
X00041998Y00155962D02*
X00025457Y00155962D01*
X00025457Y00149963D02*
X00051470Y00149963D01*
X00064876Y00131968D02*
X00090998Y00131968D01*
X00081803Y00125969D02*
X00067423Y00125969D01*
X00069228Y00119970D02*
X00076912Y00119970D01*
X00074427Y00113972D02*
X00069228Y00113972D01*
X00068175Y00107973D02*
X00073449Y00107973D01*
X00073449Y00101975D02*
X00065691Y00101975D01*
X00060694Y00095976D02*
X00075329Y00095976D01*
X00077982Y00089978D02*
X00051243Y00089978D01*
X00095457Y00077981D02*
X00117339Y00077981D01*
X00117339Y00071982D02*
X00095457Y00071982D01*
X00095457Y00065984D02*
X00117339Y00065984D01*
X00117339Y00059985D02*
X00095457Y00059985D01*
X00095457Y00053987D02*
X00117339Y00053987D01*
X00114293Y00047988D02*
X00095457Y00047988D01*
X00095457Y00041990D02*
X00108295Y00041990D01*
X00102296Y00035991D02*
X00095457Y00035991D01*
X00096298Y00029993D02*
X00092799Y00029993D01*
X00090299Y00023994D02*
X00070240Y00023994D01*
X00066301Y00017996D02*
X00064242Y00017996D01*
X00063339Y00015033D02*
X00063339Y00015033D01*
X00060302Y00011997D02*
X00058243Y00011997D01*
X00054304Y00005999D02*
X00052244Y00005999D01*
X00048305Y00000000D02*
X00046246Y00000000D01*
X00046368Y-00001937D02*
X00046368Y-00001937D01*
X00042306Y-00005999D02*
X00040247Y-00005999D01*
X00039338Y-00011997D02*
X00039339Y-00011997D01*
X00039338Y-00017996D02*
X00039339Y-00017996D01*
X00051339Y-00013937D02*
X00075339Y00010063D01*
X00093339Y00010063D01*
X00112243Y00011997D02*
X00142654Y00011997D01*
X00142654Y00017996D02*
X00118242Y00017996D01*
X00124240Y00023994D02*
X00142654Y00023994D01*
X00143872Y00005999D02*
X00114374Y00005999D01*
X00120372Y00000000D02*
X00207339Y00000000D01*
X00207339Y-00005999D02*
X00193406Y-00005999D01*
X00192735Y-00005819D02*
X00174338Y-00005819D01*
X00174338Y-00037472D01*
X00168339Y-00037472D01*
X00168339Y-00005819D01*
X00149942Y-00005819D01*
X00146636Y-00006705D01*
X00143671Y-00008416D01*
X00141251Y-00010837D01*
X00139539Y-00013801D01*
X00138654Y-00017107D01*
X00138654Y-00037473D01*
X00168338Y-00037473D01*
X00168338Y-00043472D01*
X00138654Y-00043472D01*
X00138654Y-00063837D01*
X00139539Y-00067144D01*
X00141251Y-00070108D01*
X00143671Y-00072528D01*
X00146636Y-00074240D01*
X00149942Y-00075126D01*
X00168339Y-00075126D01*
X00168339Y-00043473D01*
X00174338Y-00043473D01*
X00174338Y-00075126D01*
X00192735Y-00075126D01*
X00196041Y-00074240D01*
X00199006Y-00072528D01*
X00201426Y-00070108D01*
X00203138Y-00067144D01*
X00204023Y-00063837D01*
X00204023Y-00043472D01*
X00174339Y-00043472D01*
X00174339Y-00037473D01*
X00204023Y-00037473D01*
X00204023Y-00017107D01*
X00203138Y-00013801D01*
X00201426Y-00010837D01*
X00199006Y-00008416D01*
X00196041Y-00006705D01*
X00192735Y-00005819D01*
X00202096Y-00011997D02*
X00207339Y-00011997D01*
X00207339Y-00017996D02*
X00204023Y-00017996D01*
X00204023Y-00023994D02*
X00207339Y-00023994D01*
X00207339Y-00029993D02*
X00204023Y-00029993D01*
X00204023Y-00035991D02*
X00207339Y-00035991D01*
X00207339Y-00041990D02*
X00174339Y-00041990D01*
X00174338Y-00047988D02*
X00168339Y-00047988D01*
X00168338Y-00041990D02*
X00129338Y-00041990D01*
X00129338Y-00047988D02*
X00138654Y-00047988D01*
X00138654Y-00053987D02*
X00129338Y-00053987D01*
X00129338Y-00059985D02*
X00138654Y-00059985D01*
X00139229Y-00065984D02*
X00129338Y-00065984D01*
X00129338Y-00071982D02*
X00143125Y-00071982D01*
X00146693Y-00077981D02*
X00129338Y-00077981D01*
X00129338Y-00083979D02*
X00142654Y-00083979D01*
X00142654Y-00089978D02*
X00129338Y-00089978D01*
X00129338Y-00095976D02*
X00142654Y-00095976D01*
X00142654Y-00101975D02*
X00129338Y-00101975D01*
X00129338Y-00107973D02*
X00142654Y-00107973D01*
X00142654Y-00113972D02*
X00129338Y-00113972D01*
X00129338Y-00119970D02*
X00142654Y-00119970D01*
X00142654Y-00125969D02*
X00129338Y-00125969D01*
X00129338Y-00131968D02*
X00142654Y-00131968D01*
X00147837Y-00137966D02*
X00129338Y-00137966D01*
X00129338Y-00143965D02*
X00272396Y-00143965D01*
X00277118Y-00149963D02*
X00194896Y-00149963D01*
X00200023Y-00155962D02*
X00275016Y-00155962D01*
X00275016Y-00161960D02*
X00200023Y-00161960D01*
X00200023Y-00167959D02*
X00275016Y-00167959D01*
X00275154Y-00173957D02*
X00200023Y-00173957D01*
X00195929Y-00209948D02*
X00309787Y-00209948D01*
X00318732Y-00215947D02*
X00324732Y-00215947D01*
X00324732Y-00221945D02*
X00318732Y-00221945D01*
X00318732Y-00227944D02*
X00324732Y-00227944D01*
X00324732Y-00233942D02*
X00318732Y-00233942D01*
X00318732Y-00239941D02*
X00324732Y-00239941D01*
X00324732Y-00245939D02*
X00318732Y-00245939D01*
X00318732Y-00251938D02*
X00324732Y-00251938D01*
X00324732Y-00257937D02*
X00318732Y-00257937D01*
X00318732Y-00263935D02*
X00200023Y-00263935D01*
X00200023Y-00269934D02*
X00271271Y-00269934D01*
X00272221Y-00275932D02*
X00196874Y-00275932D01*
X00170360Y-00287929D02*
X00136041Y-00287929D01*
X00141339Y-00293928D02*
X00166294Y-00293928D01*
X00161494Y-00299926D02*
X00145221Y-00299926D01*
X00148059Y-00305925D02*
X00159009Y-00305925D01*
X00156525Y-00311923D02*
X00150008Y-00311923D01*
X00151009Y-00317922D02*
X00155339Y-00317922D01*
X00104338Y-00311923D02*
X00098339Y-00311923D01*
X00098339Y-00305925D02*
X00104338Y-00305925D01*
X00104338Y-00299926D02*
X00098339Y-00299926D01*
X00098339Y-00293928D02*
X00104338Y-00293928D01*
X00104338Y-00287929D02*
X00098339Y-00287929D01*
X00098339Y-00281931D02*
X00104338Y-00281931D01*
X00104338Y-00275932D02*
X00098339Y-00275932D01*
X00087279Y-00275932D02*
X00032776Y-00275932D01*
X00036553Y-00281931D02*
X00074090Y-00281931D01*
X00066636Y-00287929D02*
X00039038Y-00287929D01*
X00039228Y-00293928D02*
X00061338Y-00293928D01*
X00057456Y-00299926D02*
X00039045Y-00299926D01*
X00036561Y-00305925D02*
X00054618Y-00305925D01*
X00052669Y-00311923D02*
X00032794Y-00311923D01*
X00026313Y-00317922D02*
X00051668Y-00317922D01*
X00051663Y-00329919D02*
X-00018986Y-00329919D01*
X-00019981Y-00335917D02*
X00052658Y-00335917D01*
X00054607Y-00341916D02*
X00028759Y-00341916D01*
X00027137Y-00340293D02*
X00016886Y-00336047D01*
X00005791Y-00336047D01*
X-00004460Y-00340293D01*
X-00012305Y-00348139D01*
X-00016551Y-00358389D01*
X-00016551Y-00369485D01*
X-00012305Y-00379735D01*
X-00004460Y-00387581D01*
X00005791Y-00391827D01*
X00016886Y-00391827D01*
X00027137Y-00387581D01*
X00034982Y-00379735D01*
X00039228Y-00369485D01*
X00039228Y-00358389D01*
X00034982Y-00348139D01*
X00027137Y-00340293D01*
X00034758Y-00347914D02*
X00057439Y-00347914D01*
X00061314Y-00353913D02*
X00037374Y-00353913D01*
X00039228Y-00359911D02*
X00066602Y-00359911D01*
X00074044Y-00365910D02*
X00039228Y-00365910D01*
X00038224Y-00371908D02*
X00087176Y-00371908D01*
X00098339Y-00371908D02*
X00104338Y-00371908D01*
X00104338Y-00365910D02*
X00098339Y-00365910D01*
X00098339Y-00359911D02*
X00104338Y-00359911D01*
X00104338Y-00353913D02*
X00098339Y-00353913D01*
X00098339Y-00347914D02*
X00104338Y-00347914D01*
X00104338Y-00341916D02*
X00098339Y-00341916D01*
X00098339Y-00335917D02*
X00104338Y-00335917D01*
X00104338Y-00329919D02*
X00098339Y-00329919D01*
X00115500Y-00371908D02*
X00275016Y-00371908D01*
X00276790Y-00377907D02*
X00035740Y-00377907D01*
X00030812Y-00383906D02*
X00279275Y-00383906D01*
X00281759Y-00389904D02*
X00021528Y-00389904D01*
X00001149Y-00389904D02*
X-00234377Y-00389904D01*
X-00231321Y-00383906D02*
X-00008135Y-00383906D01*
X-00013063Y-00377907D02*
X-00229352Y-00377907D01*
X-00238517Y-00395903D02*
X00287237Y-00395903D01*
X00293236Y-00401901D02*
X-00244114Y-00401901D01*
X-00252064Y-00407900D02*
X00304841Y-00407900D01*
X00338623Y-00407900D02*
X00377376Y-00407900D01*
X00371377Y-00413898D02*
X-00267022Y-00413898D01*
X-00275268Y-00413898D02*
X-00281267Y-00413898D01*
X-00281267Y-00407900D02*
X-00275268Y-00407900D01*
X-00275268Y-00401901D02*
X-00281267Y-00401901D01*
X-00281267Y-00395903D02*
X-00275268Y-00395903D01*
X-00275268Y-00389904D02*
X-00281267Y-00389904D01*
X-00281267Y-00383906D02*
X-00275268Y-00383906D01*
X-00275268Y-00377907D02*
X-00281267Y-00377907D01*
X-00281267Y-00371908D02*
X-00275268Y-00371908D01*
X-00281268Y-00365910D02*
X-00360506Y-00365910D01*
X-00360661Y-00359911D02*
X-00328916Y-00359911D01*
X-00327966Y-00353913D02*
X-00360661Y-00353913D01*
X-00360661Y-00347914D02*
X-00326260Y-00347914D01*
X-00323767Y-00341916D02*
X-00360661Y-00341916D01*
X-00360661Y-00335917D02*
X-00320313Y-00335917D01*
X-00315580Y-00329919D02*
X-00360661Y-00329919D01*
X-00360661Y-00323920D02*
X-00308932Y-00323920D01*
X-00298898Y-00317922D02*
X-00360661Y-00317922D01*
X-00360661Y-00311923D02*
X-00213475Y-00311923D01*
X-00210990Y-00305925D02*
X-00257953Y-00305925D01*
X-00248584Y-00299926D02*
X-00208506Y-00299926D01*
X-00203706Y-00293928D02*
X-00242585Y-00293928D01*
X-00238034Y-00287929D02*
X-00197707Y-00287929D01*
X-00187453Y-00281931D02*
X-00235549Y-00281931D01*
X-00233064Y-00275932D02*
X-00179627Y-00275932D01*
X-00173628Y-00269934D02*
X-00231945Y-00269934D01*
X-00231945Y-00263935D02*
X-00176194Y-00263935D01*
X-00177346Y-00257937D02*
X-00231945Y-00257937D01*
X-00233066Y-00251938D02*
X-00177346Y-00251938D01*
X-00177346Y-00245939D02*
X-00235551Y-00245939D01*
X-00238035Y-00239941D02*
X-00228762Y-00239941D01*
X-00224209Y-00241827D02*
X-00213114Y-00241827D01*
X-00202863Y-00237581D01*
X-00195018Y-00229735D01*
X-00190772Y-00219485D01*
X-00190772Y-00208389D01*
X-00195018Y-00198139D01*
X-00202863Y-00190293D01*
X-00213114Y-00186047D01*
X-00224209Y-00186047D01*
X-00234460Y-00190293D01*
X-00242305Y-00198139D01*
X-00246551Y-00208389D01*
X-00246551Y-00219485D01*
X-00242305Y-00229735D01*
X-00234460Y-00237581D01*
X-00224209Y-00241827D01*
X-00208561Y-00239941D02*
X-00177346Y-00239941D01*
X-00177346Y-00233942D02*
X-00199225Y-00233942D01*
X-00194276Y-00227944D02*
X-00177346Y-00227944D01*
X-00177346Y-00221945D02*
X-00191791Y-00221945D01*
X-00190772Y-00215947D02*
X-00177346Y-00215947D01*
X-00175275Y-00209948D02*
X-00190772Y-00209948D01*
X-00192610Y-00203950D02*
X-00098116Y-00203950D01*
X-00068517Y-00197951D02*
X-00040207Y-00197951D01*
X-00042779Y-00203950D02*
X-00059206Y-00203950D01*
X-00054268Y-00209948D02*
X-00042779Y-00209948D01*
X-00042779Y-00215947D02*
X-00051783Y-00215947D01*
X-00050772Y-00221945D02*
X-00042779Y-00221945D01*
X-00042779Y-00227944D02*
X-00050772Y-00227944D01*
X-00052618Y-00233942D02*
X-00042779Y-00233942D01*
X-00042779Y-00239941D02*
X-00055223Y-00239941D01*
X-00061222Y-00245939D02*
X-00042779Y-00245939D01*
X-00038191Y-00251938D02*
X-00119976Y-00251938D01*
X-00119976Y-00245939D02*
X-00096101Y-00245939D01*
X-00041413Y-00281931D02*
X-00013876Y-00281931D01*
X-00016360Y-00287929D02*
X-00033959Y-00287929D01*
X-00028661Y-00293928D02*
X-00016551Y-00293928D01*
X-00016368Y-00299926D02*
X-00024779Y-00299926D01*
X-00021941Y-00305925D02*
X-00013884Y-00305925D01*
X-00010117Y-00311923D02*
X-00019992Y-00311923D01*
X-00018991Y-00317922D02*
X-00003636Y-00317922D01*
X-00006082Y-00341916D02*
X-00021930Y-00341916D01*
X-00024762Y-00347914D02*
X-00012081Y-00347914D01*
X-00014697Y-00353913D02*
X-00028637Y-00353913D01*
X-00033925Y-00359911D02*
X-00016551Y-00359911D01*
X-00016551Y-00365910D02*
X-00041367Y-00365910D01*
X-00054499Y-00371908D02*
X-00015547Y-00371908D01*
X00115398Y-00275932D02*
X00145803Y-00275932D01*
X00128587Y-00281931D02*
X00164362Y-00281931D01*
X00200023Y-00257937D02*
X00271396Y-00257937D01*
X00272432Y-00251938D02*
X00200023Y-00251938D01*
X00200023Y-00245939D02*
X00274381Y-00245939D01*
X00277239Y-00239941D02*
X00200023Y-00239941D01*
X00200023Y-00233942D02*
X00281122Y-00233942D01*
X00286395Y-00227944D02*
X00200023Y-00227944D01*
X00199949Y-00221945D02*
X00293787Y-00221945D01*
X00333677Y-00209948D02*
X00403339Y-00209948D01*
X00403339Y-00203950D02*
X00348159Y-00203950D01*
X00354179Y-00197951D02*
X00403339Y-00197951D01*
X00403339Y-00191953D02*
X00360177Y-00191953D01*
X00363341Y-00185954D02*
X00403339Y-00185954D01*
X00403339Y-00179956D02*
X00365826Y-00179956D01*
X00368310Y-00173957D02*
X00403339Y-00173957D01*
X00403339Y-00167959D02*
X00368449Y-00167959D01*
X00368449Y-00161960D02*
X00403339Y-00161960D01*
X00403339Y-00155962D02*
X00368449Y-00155962D01*
X00366347Y-00149963D02*
X00403339Y-00149963D01*
X00403339Y-00143965D02*
X00363862Y-00143965D01*
X00361377Y-00137966D02*
X00403339Y-00137966D01*
X00403339Y-00131968D02*
X00355436Y-00131968D01*
X00349438Y-00125969D02*
X00403339Y-00125969D01*
X00403339Y-00119970D02*
X00336713Y-00119970D01*
X00331025Y-00111047D02*
X00348195Y-00103935D01*
X00361336Y-00090793D01*
X00368449Y-00073623D01*
X00368449Y-00055038D01*
X00361336Y-00037868D01*
X00348195Y-00024726D01*
X00331025Y-00017614D01*
X00312440Y-00017614D01*
X00295269Y-00024726D01*
X00282128Y-00037868D01*
X00275016Y-00055038D01*
X00275016Y-00073623D01*
X00282128Y-00090793D01*
X00295269Y-00103935D01*
X00312440Y-00111047D01*
X00331025Y-00111047D01*
X00338445Y-00107973D02*
X00403339Y-00107973D01*
X00403339Y-00101975D02*
X00350155Y-00101975D01*
X00356154Y-00095976D02*
X00403339Y-00095976D01*
X00403339Y-00089978D02*
X00361674Y-00089978D01*
X00364159Y-00083979D02*
X00403339Y-00083979D01*
X00403339Y-00077981D02*
X00366644Y-00077981D01*
X00368449Y-00071982D02*
X00403339Y-00071982D01*
X00403339Y-00065984D02*
X00368449Y-00065984D01*
X00368449Y-00059985D02*
X00403339Y-00059985D01*
X00403339Y-00053987D02*
X00368013Y-00053987D01*
X00365529Y-00047988D02*
X00403339Y-00047988D01*
X00403339Y-00041990D02*
X00363044Y-00041990D01*
X00359460Y-00035991D02*
X00403339Y-00035991D01*
X00403339Y-00029993D02*
X00353461Y-00029993D01*
X00346427Y-00023994D02*
X00403339Y-00023994D01*
X00403339Y-00017996D02*
X00331946Y-00017996D01*
X00331025Y-00011047D02*
X00348195Y-00003935D01*
X00361336Y00009206D01*
X00368449Y00026377D01*
X00368449Y00044962D01*
X00361336Y00062132D01*
X00348195Y00075273D01*
X00331025Y00082386D01*
X00312440Y00082386D01*
X00295269Y00075273D01*
X00282128Y00062132D01*
X00275016Y00044962D01*
X00275016Y00026377D01*
X00282128Y00009206D01*
X00295269Y-00003935D01*
X00312440Y-00011047D01*
X00331025Y-00011047D01*
X00343213Y-00005999D02*
X00403339Y-00005999D01*
X00403339Y-00011997D02*
X00231338Y-00011997D01*
X00231338Y-00017996D02*
X00311519Y-00017996D01*
X00297037Y-00023994D02*
X00231338Y-00023994D01*
X00231338Y-00029993D02*
X00290003Y-00029993D01*
X00284005Y-00035991D02*
X00231338Y-00035991D01*
X00231338Y-00041990D02*
X00280421Y-00041990D01*
X00277936Y-00047988D02*
X00231338Y-00047988D01*
X00231338Y-00053987D02*
X00275451Y-00053987D01*
X00275016Y-00059985D02*
X00231338Y-00059985D01*
X00231338Y-00065984D02*
X00275016Y-00065984D01*
X00275016Y-00071982D02*
X00231338Y-00071982D01*
X00231338Y-00077981D02*
X00276821Y-00077981D01*
X00279305Y-00083979D02*
X00231338Y-00083979D01*
X00231338Y-00089978D02*
X00281790Y-00089978D01*
X00287311Y-00095976D02*
X00258348Y-00095976D01*
X00264347Y-00101975D02*
X00293309Y-00101975D01*
X00305019Y-00107973D02*
X00270345Y-00107973D01*
X00276344Y-00113972D02*
X00403339Y-00113972D01*
X00321732Y-00164331D02*
X00321339Y-00163937D01*
X00309339Y-00163937D01*
X00249339Y-00103937D01*
X00219339Y-00103937D01*
X00219339Y00010063D01*
X00207339Y00022063D01*
X00200434Y00011997D02*
X00200023Y00011997D01*
X00198805Y00005999D02*
X00206432Y00005999D01*
X00224309Y00022063D02*
X00224309Y00022063D01*
X00226240Y00023994D02*
X00276003Y00023994D01*
X00275016Y00029993D02*
X00232239Y00029993D01*
X00238237Y00035991D02*
X00275016Y00035991D01*
X00275016Y00041990D02*
X00244236Y00041990D01*
X00250234Y00047988D02*
X00276269Y00047988D01*
X00278754Y00053987D02*
X00256233Y00053987D01*
X00262231Y00059985D02*
X00281239Y00059985D01*
X00285980Y00065984D02*
X00267338Y00065984D01*
X00267338Y00071982D02*
X00291978Y00071982D01*
X00301805Y00077981D02*
X00267338Y00077981D01*
X00267338Y00083979D02*
X00403339Y00083979D01*
X00403339Y00077981D02*
X00341659Y00077981D01*
X00351486Y00071982D02*
X00403339Y00071982D01*
X00403339Y00065984D02*
X00357485Y00065984D01*
X00362226Y00059985D02*
X00403339Y00059985D01*
X00403339Y00053987D02*
X00364711Y00053987D01*
X00367195Y00047988D02*
X00403339Y00047988D01*
X00403339Y00041990D02*
X00368449Y00041990D01*
X00368449Y00035991D02*
X00403339Y00035991D01*
X00403339Y00029993D02*
X00368449Y00029993D01*
X00367462Y00023994D02*
X00403339Y00023994D01*
X00403339Y00017996D02*
X00364977Y00017996D01*
X00362492Y00011997D02*
X00403339Y00011997D01*
X00403339Y00005999D02*
X00358128Y00005999D01*
X00352130Y00000000D02*
X00403339Y00000000D01*
X00300251Y-00005999D02*
X00231338Y-00005999D01*
X00231338Y00000000D02*
X00291334Y00000000D01*
X00285336Y00005999D02*
X00231338Y00005999D01*
X00231338Y00011997D02*
X00280972Y00011997D01*
X00278487Y00017996D02*
X00228376Y00017996D01*
X00210295Y00041990D02*
X00200023Y00041990D01*
X00200023Y00047988D02*
X00216293Y00047988D01*
X00222292Y00053987D02*
X00200023Y00053987D01*
X00198018Y00059985D02*
X00228290Y00059985D01*
X00267338Y00089978D02*
X00309965Y00089978D01*
X00312440Y00088953D02*
X00331025Y00088953D01*
X00348195Y00096065D01*
X00361336Y00109206D01*
X00368449Y00126377D01*
X00368449Y00144962D01*
X00361336Y00162132D01*
X00348195Y00175273D01*
X00331025Y00182386D01*
X00312440Y00182386D01*
X00295269Y00175273D01*
X00282128Y00162132D01*
X00275016Y00144962D01*
X00275016Y00126377D01*
X00282128Y00109206D01*
X00295269Y00096065D01*
X00312440Y00088953D01*
X00295483Y00095976D02*
X00267338Y00095976D01*
X00267338Y00101975D02*
X00289359Y00101975D01*
X00283361Y00107973D02*
X00267338Y00107973D01*
X00267338Y00113972D02*
X00280154Y00113972D01*
X00277669Y00119970D02*
X00267338Y00119970D01*
X00267338Y00125969D02*
X00275185Y00125969D01*
X00275016Y00131968D02*
X00267338Y00131968D01*
X00267338Y00137966D02*
X00275016Y00137966D01*
X00275016Y00143965D02*
X00267338Y00143965D01*
X00267338Y00149963D02*
X00277087Y00149963D01*
X00279572Y00155962D02*
X00267338Y00155962D01*
X00267338Y00161960D02*
X00282057Y00161960D01*
X00287955Y00167959D02*
X00267338Y00167959D01*
X00267338Y00173957D02*
X00293953Y00173957D01*
X00306573Y00179956D02*
X00267338Y00179956D01*
X00267338Y00185954D02*
X00362005Y00185954D01*
X00356995Y00191953D02*
X00326011Y00191953D01*
X00327137Y00192419D02*
X00334982Y00200265D01*
X00339228Y00210515D01*
X00339228Y00221611D01*
X00334982Y00231861D01*
X00327137Y00239707D01*
X00316886Y00243953D01*
X00305791Y00243953D01*
X00295540Y00239707D01*
X00287695Y00231861D01*
X00283449Y00221611D01*
X00283449Y00210515D01*
X00287695Y00200265D01*
X00295540Y00192419D01*
X00305791Y00188173D01*
X00316886Y00188173D01*
X00327137Y00192419D01*
X00332669Y00197951D02*
X00354511Y00197951D01*
X00353449Y00203950D02*
X00336509Y00203950D01*
X00338993Y00209948D02*
X00353449Y00209948D01*
X00355245Y00215947D02*
X00339228Y00215947D01*
X00339090Y00221945D02*
X00357779Y00221945D01*
X00363777Y00227944D02*
X00336605Y00227944D01*
X00332901Y00233942D02*
X00375766Y00233942D01*
X00371523Y00239941D02*
X00326571Y00239941D01*
X00325975Y00251938D02*
X00357002Y00251938D01*
X00354517Y00257937D02*
X00332654Y00257937D01*
X00334982Y00260265D02*
X00339228Y00270515D01*
X00339228Y00281611D01*
X00334982Y00291861D01*
X00327137Y00299707D01*
X00316886Y00303953D01*
X00305791Y00303953D01*
X00295540Y00299707D01*
X00287695Y00291861D01*
X00283449Y00281611D01*
X00283449Y00270515D01*
X00287695Y00260265D01*
X00295540Y00252419D01*
X00305791Y00248173D01*
X00316886Y00248173D01*
X00327137Y00252419D01*
X00334982Y00260265D01*
X00336503Y00263935D02*
X00353449Y00263935D01*
X00353449Y00269934D02*
X00338987Y00269934D01*
X00339228Y00275932D02*
X00355239Y00275932D01*
X00357764Y00281931D02*
X00339096Y00281931D01*
X00336611Y00287929D02*
X00363763Y00287929D01*
X00375731Y00293928D02*
X00332916Y00293928D01*
X00326607Y00299926D02*
X00403339Y00299926D01*
X00403339Y00293928D02*
X00386947Y00293928D01*
X00398914Y00287929D02*
X00403339Y00287929D01*
X00403339Y00305925D02*
X00267338Y00305925D01*
X00267338Y00311923D02*
X00286737Y00311923D01*
X00285540Y00312419D02*
X00295791Y00308173D01*
X00306886Y00308173D01*
X00317137Y00312419D01*
X00324982Y00320265D01*
X00329228Y00330515D01*
X00329228Y00341611D01*
X00324982Y00351861D01*
X00317137Y00359707D01*
X00306886Y00363953D01*
X00295791Y00363953D01*
X00285540Y00359707D01*
X00277695Y00351861D01*
X00273449Y00341611D01*
X00273449Y00330515D01*
X00277695Y00320265D01*
X00285540Y00312419D01*
X00280038Y00317922D02*
X00267338Y00317922D01*
X00267338Y00323920D02*
X00276180Y00323920D01*
X00273696Y00329919D02*
X00267338Y00329919D01*
X00267338Y00335917D02*
X00273449Y00335917D01*
X00273575Y00341916D02*
X00267338Y00341916D01*
X00264458Y00347914D02*
X00276060Y00347914D01*
X00279746Y00353913D02*
X00258459Y00353913D01*
X00252461Y00359911D02*
X00286035Y00359911D01*
X00267253Y00371908D02*
X00245904Y00371908D01*
X00246462Y00365910D02*
X00403339Y00365910D01*
X00403339Y00359911D02*
X00386643Y00359911D01*
X00387137Y00359707D02*
X00376886Y00363953D01*
X00365791Y00363953D01*
X00355540Y00359707D01*
X00347695Y00351861D01*
X00343449Y00341611D01*
X00343449Y00330515D01*
X00347695Y00320265D01*
X00355540Y00312419D01*
X00365791Y00308173D01*
X00376886Y00308173D01*
X00387137Y00312419D01*
X00394982Y00320265D01*
X00399228Y00330515D01*
X00399228Y00341611D01*
X00394982Y00351861D01*
X00387137Y00359707D01*
X00392931Y00353913D02*
X00403339Y00353913D01*
X00403339Y00347914D02*
X00396617Y00347914D01*
X00399102Y00341916D02*
X00403339Y00341916D01*
X00403339Y00335917D02*
X00399228Y00335917D01*
X00398981Y00329919D02*
X00403339Y00329919D01*
X00403339Y00323920D02*
X00396496Y00323920D01*
X00392639Y00317922D02*
X00403339Y00317922D01*
X00403339Y00311923D02*
X00385939Y00311923D01*
X00356737Y00311923D02*
X00315939Y00311923D01*
X00322639Y00317922D02*
X00350038Y00317922D01*
X00346180Y00323920D02*
X00326496Y00323920D01*
X00328981Y00329919D02*
X00343696Y00329919D01*
X00343449Y00335917D02*
X00329228Y00335917D01*
X00329102Y00341916D02*
X00343575Y00341916D01*
X00346060Y00347914D02*
X00326617Y00347914D01*
X00322931Y00353913D02*
X00349746Y00353913D01*
X00356035Y00359911D02*
X00316643Y00359911D01*
X00343140Y00371908D02*
X00403339Y00371908D01*
X00403339Y00377907D02*
X00345693Y00377907D01*
X00345693Y00383906D02*
X00403339Y00383906D01*
X00403339Y00389904D02*
X00345693Y00389904D01*
X00345693Y00395903D02*
X00403339Y00395903D01*
X00403339Y00401901D02*
X00345693Y00401901D01*
X00345693Y00407900D02*
X00403339Y00407900D01*
X00403339Y00413898D02*
X00345693Y00413898D01*
X00345693Y00419897D02*
X00403339Y00419897D01*
X00403339Y00425895D02*
X00345693Y00425895D01*
X00345693Y00431894D02*
X00403339Y00431894D01*
X00403195Y00437892D02*
X00345693Y00437892D01*
X00345693Y00443891D02*
X00402722Y00443891D01*
X00402004Y00449889D02*
X00345693Y00449889D01*
X00345693Y00455888D02*
X00400055Y00455888D01*
X00395515Y00461886D02*
X00345693Y00461886D01*
X00345693Y00467885D02*
X00389517Y00467885D01*
X00383518Y00473883D02*
X00345693Y00473883D01*
X00345693Y00479882D02*
X00377520Y00479882D01*
X00371521Y00485880D02*
X00345693Y00485880D01*
X00345693Y00491879D02*
X00365523Y00491879D01*
X00359524Y00497877D02*
X00345693Y00497877D01*
X00345693Y00503876D02*
X00353525Y00503876D01*
X00347527Y00509875D02*
X00345693Y00509875D01*
X00264701Y00509875D02*
X00077976Y00509875D01*
X00077878Y00515873D02*
X00264799Y00515873D01*
X00264701Y00503876D02*
X00077976Y00503876D01*
X00077976Y00497877D02*
X00264701Y00497877D01*
X00264701Y00491879D02*
X00077976Y00491879D01*
X00077976Y00485880D02*
X00264701Y00485880D01*
X00264701Y00479882D02*
X00246714Y00479882D01*
X00247137Y00479707D02*
X00236886Y00483953D01*
X00225791Y00483953D01*
X00215540Y00479707D01*
X00207695Y00471861D01*
X00203449Y00461611D01*
X00203449Y00450515D01*
X00207695Y00440265D01*
X00215540Y00432419D01*
X00225791Y00428173D01*
X00236886Y00428173D01*
X00247137Y00432419D01*
X00254982Y00440265D01*
X00259228Y00450515D01*
X00259228Y00461611D01*
X00254982Y00471861D01*
X00247137Y00479707D01*
X00252960Y00473883D02*
X00264701Y00473883D01*
X00264701Y00467885D02*
X00256629Y00467885D01*
X00259114Y00461886D02*
X00264701Y00461886D01*
X00264701Y00455888D02*
X00259228Y00455888D01*
X00258969Y00449889D02*
X00264701Y00449889D01*
X00264701Y00443891D02*
X00256484Y00443891D01*
X00252610Y00437892D02*
X00264701Y00437892D01*
X00264701Y00431894D02*
X00245868Y00431894D01*
X00246678Y00419897D02*
X00264701Y00419897D01*
X00264701Y00425895D02*
X00077976Y00425895D01*
X00077976Y00419897D02*
X00095999Y00419897D01*
X00089732Y00413898D02*
X00077976Y00413898D01*
X00077976Y00407900D02*
X00086054Y00407900D01*
X00083569Y00401901D02*
X00077976Y00401901D01*
X00077976Y00395903D02*
X00083449Y00395903D01*
X00083702Y00389904D02*
X00077976Y00389904D01*
X00077976Y00383906D02*
X00086187Y00383906D01*
X00090052Y00377907D02*
X00077976Y00377907D01*
X00075424Y00371908D02*
X00096773Y00371908D01*
X00090215Y00365910D02*
X-00083538Y00365910D01*
X-00089536Y00371908D02*
X-00000463Y00371908D01*
X-00003016Y00377907D02*
X-00095535Y00377907D01*
X-00101533Y00383906D02*
X-00003016Y00383906D01*
X00006173Y00329919D02*
X-00063496Y00329919D01*
X-00054222Y00323920D02*
X-00003100Y00323920D01*
X-00009099Y00317922D02*
X-00048224Y00317922D01*
X-00043336Y00311923D02*
X-00013987Y00311923D01*
X-00016471Y00305925D02*
X-00040851Y00305925D01*
X-00038367Y00299926D02*
X-00018956Y00299926D01*
X-00020661Y00293928D02*
X-00036661Y00293928D01*
X-00036661Y00287929D02*
X-00020661Y00287929D01*
X-00020661Y00281931D02*
X-00036661Y00281931D01*
X-00036821Y00275932D02*
X-00020502Y00275932D01*
X-00018018Y00269934D02*
X-00039305Y00269934D01*
X-00041790Y00263935D02*
X-00015533Y00263935D01*
X-00012831Y00257937D02*
X-00044491Y00257937D01*
X-00050490Y00251938D02*
X-00006833Y00251938D01*
X-00000834Y00245939D02*
X-00056488Y00245939D01*
X-00068967Y00239941D02*
X00011644Y00239941D01*
X00055784Y00203950D02*
X-00103491Y00203950D01*
X-00101007Y00209948D02*
X00099283Y00209948D01*
X00099283Y00203950D02*
X00066893Y00203950D01*
X00078892Y00197951D02*
X00099283Y00197951D01*
X00099283Y00191953D02*
X00084891Y00191953D01*
X00087429Y00185954D02*
X00099283Y00185954D01*
X00099283Y00179956D02*
X00089228Y00179956D01*
X00089228Y00173957D02*
X00099283Y00173957D01*
X00099283Y00167959D02*
X00088169Y00167959D01*
X00085685Y00161960D02*
X00099283Y00161960D01*
X00099283Y00155962D02*
X00080679Y00155962D01*
X00128969Y00155962D02*
X00134968Y00155962D01*
X00134968Y00161960D02*
X00128969Y00161960D01*
X00128969Y00167959D02*
X00134968Y00167959D01*
X00134968Y00173957D02*
X00128969Y00173957D01*
X00128969Y00179956D02*
X00134968Y00179956D01*
X00134968Y00185954D02*
X00128969Y00185954D01*
X00128969Y00191953D02*
X00134968Y00191953D01*
X00134968Y00197951D02*
X00128969Y00197951D01*
X00128969Y00203950D02*
X00134968Y00203950D01*
X00134968Y00209948D02*
X00128969Y00209948D01*
X00128969Y00215947D02*
X00134968Y00215947D01*
X00134968Y00221945D02*
X00128969Y00221945D01*
X00128969Y00227944D02*
X00134968Y00227944D01*
X00134968Y00233942D02*
X00128969Y00233942D01*
X00099283Y00233942D02*
X-00107099Y00233942D01*
X-00103395Y00227944D02*
X00099283Y00227944D01*
X00099283Y00221945D02*
X-00100910Y00221945D01*
X-00100772Y00215947D02*
X00099283Y00215947D01*
X00128969Y00251938D02*
X00134968Y00251938D01*
X00134968Y00257937D02*
X00128969Y00257937D01*
X00128969Y00263935D02*
X00134968Y00263935D01*
X00134968Y00269934D02*
X00128969Y00269934D01*
X00128969Y00275932D02*
X00134968Y00275932D01*
X00134968Y00281931D02*
X00128969Y00281931D01*
X00128969Y00287929D02*
X00134968Y00287929D01*
X00134968Y00293928D02*
X00128969Y00293928D01*
X00128969Y00299926D02*
X00134968Y00299926D01*
X00134968Y00305925D02*
X00128969Y00305925D01*
X00128969Y00311923D02*
X00134968Y00311923D01*
X00134968Y00317922D02*
X00128969Y00317922D01*
X00128969Y00323920D02*
X00134968Y00323920D01*
X00134968Y00329919D02*
X00128969Y00329919D01*
X00128969Y00335917D02*
X00134968Y00335917D01*
X00134968Y00341916D02*
X00128969Y00341916D01*
X00105286Y00341916D02*
X00100162Y00341916D01*
X00125904Y00371908D02*
X00156773Y00371908D01*
X00150052Y00377907D02*
X00132625Y00377907D01*
X00136490Y00383906D02*
X00146187Y00383906D01*
X00143702Y00389904D02*
X00138975Y00389904D01*
X00139228Y00395903D02*
X00143449Y00395903D01*
X00143569Y00401901D02*
X00139108Y00401901D01*
X00136623Y00407900D02*
X00146054Y00407900D01*
X00149732Y00413898D02*
X00132945Y00413898D01*
X00126678Y00419897D02*
X00155999Y00419897D01*
X00156809Y00431894D02*
X00125868Y00431894D01*
X00127137Y00432419D02*
X00134982Y00440265D01*
X00139228Y00450515D01*
X00139228Y00461611D01*
X00134982Y00471861D01*
X00127137Y00479707D01*
X00116886Y00483953D01*
X00105791Y00483953D01*
X00095540Y00479707D01*
X00087695Y00471861D01*
X00083449Y00461611D01*
X00083449Y00450515D01*
X00087695Y00440265D01*
X00095540Y00432419D01*
X00105791Y00428173D01*
X00116886Y00428173D01*
X00127137Y00432419D01*
X00132610Y00437892D02*
X00150067Y00437892D01*
X00147695Y00440265D02*
X00155540Y00432419D01*
X00165791Y00428173D01*
X00176886Y00428173D01*
X00187137Y00432419D01*
X00194982Y00440265D01*
X00199228Y00450515D01*
X00199228Y00461611D01*
X00194982Y00471861D01*
X00187137Y00479707D01*
X00176886Y00483953D01*
X00165791Y00483953D01*
X00155540Y00479707D01*
X00147695Y00471861D01*
X00143449Y00461611D01*
X00143449Y00450515D01*
X00147695Y00440265D01*
X00146193Y00443891D02*
X00136484Y00443891D01*
X00138969Y00449889D02*
X00143708Y00449889D01*
X00143449Y00455888D02*
X00139228Y00455888D01*
X00139114Y00461886D02*
X00143563Y00461886D01*
X00146048Y00467885D02*
X00136629Y00467885D01*
X00132960Y00473883D02*
X00149717Y00473883D01*
X00155963Y00479882D02*
X00126714Y00479882D01*
X00095963Y00479882D02*
X00077976Y00479882D01*
X00077976Y00473883D02*
X00089717Y00473883D01*
X00086048Y00467885D02*
X00077976Y00467885D01*
X00077976Y00461886D02*
X00083563Y00461886D01*
X00083449Y00455888D02*
X00077976Y00455888D01*
X00077976Y00449889D02*
X00083708Y00449889D01*
X00086193Y00443891D02*
X00077976Y00443891D01*
X00077976Y00437892D02*
X00090067Y00437892D01*
X00096809Y00431894D02*
X00077976Y00431894D01*
X00185868Y00431894D02*
X00216809Y00431894D01*
X00210067Y00437892D02*
X00192610Y00437892D01*
X00196484Y00443891D02*
X00206193Y00443891D01*
X00203708Y00449889D02*
X00198969Y00449889D01*
X00199228Y00455888D02*
X00203449Y00455888D01*
X00203563Y00461886D02*
X00199114Y00461886D01*
X00196629Y00467885D02*
X00206048Y00467885D01*
X00209717Y00473883D02*
X00192960Y00473883D01*
X00186714Y00479882D02*
X00215963Y00479882D01*
X00215999Y00419897D02*
X00186678Y00419897D01*
X00192945Y00413898D02*
X00209732Y00413898D01*
X00206054Y00407900D02*
X00196623Y00407900D01*
X00199108Y00401901D02*
X00203569Y00401901D01*
X00203449Y00395903D02*
X00199228Y00395903D01*
X00198975Y00389904D02*
X00203702Y00389904D01*
X00206187Y00383906D02*
X00196490Y00383906D01*
X00192625Y00377907D02*
X00210052Y00377907D01*
X00216773Y00371908D02*
X00185904Y00371908D01*
X00183268Y00335917D02*
X00163780Y00335917D01*
X00164653Y00329919D02*
X00182024Y00329919D01*
X00182024Y00323920D02*
X00164653Y00323920D01*
X00164653Y00317922D02*
X00182024Y00317922D01*
X00182024Y00311923D02*
X00164653Y00311923D01*
X00164653Y00305925D02*
X00182024Y00305925D01*
X00182024Y00299926D02*
X00164653Y00299926D01*
X00164653Y00293928D02*
X00182024Y00293928D01*
X00182024Y00287929D02*
X00164653Y00287929D01*
X00164653Y00281931D02*
X00182024Y00281931D01*
X00182024Y00275932D02*
X00164653Y00275932D01*
X00164653Y00269934D02*
X00182024Y00269934D01*
X00182024Y00263935D02*
X00164653Y00263935D01*
X00164653Y00257937D02*
X00182024Y00257937D01*
X00182024Y00251938D02*
X00164653Y00251938D01*
X00210709Y00240394D02*
X00213339Y00238063D01*
X00213339Y00136063D01*
X00225339Y00124063D01*
X00242692Y00101975D02*
X00243339Y00101975D01*
X00243339Y00149963D02*
X00239394Y00149963D01*
X00239394Y00155962D02*
X00243339Y00155962D01*
X00243339Y00161960D02*
X00239394Y00161960D01*
X00239394Y00167959D02*
X00243339Y00167959D01*
X00243339Y00173957D02*
X00239394Y00173957D01*
X00239394Y00179956D02*
X00243339Y00179956D01*
X00243339Y00185954D02*
X00239394Y00185954D01*
X00239394Y00191953D02*
X00243339Y00191953D01*
X00243339Y00197951D02*
X00239394Y00197951D01*
X00239394Y00203950D02*
X00243339Y00203950D01*
X00243339Y00209948D02*
X00239394Y00209948D01*
X00239394Y00215947D02*
X00243339Y00215947D01*
X00243339Y00221945D02*
X00239394Y00221945D01*
X00239394Y00227944D02*
X00243339Y00227944D01*
X00243339Y00233942D02*
X00239394Y00233942D01*
X00239394Y00239941D02*
X00243339Y00239941D01*
X00243339Y00245939D02*
X00239394Y00245939D01*
X00239394Y00251938D02*
X00243339Y00251938D01*
X00243339Y00257937D02*
X00239394Y00257937D01*
X00239394Y00263935D02*
X00243339Y00263935D01*
X00243339Y00269934D02*
X00239394Y00269934D01*
X00239394Y00275932D02*
X00243339Y00275932D01*
X00243339Y00281931D02*
X00239394Y00281931D01*
X00239394Y00287929D02*
X00243339Y00287929D01*
X00243339Y00293928D02*
X00239394Y00293928D01*
X00239394Y00299926D02*
X00243339Y00299926D01*
X00243339Y00305925D02*
X00239394Y00305925D01*
X00239394Y00311923D02*
X00243339Y00311923D01*
X00243339Y00317922D02*
X00239394Y00317922D01*
X00239394Y00323920D02*
X00243339Y00323920D01*
X00243339Y00329919D02*
X00239394Y00329919D01*
X00238149Y00335917D02*
X00242514Y00335917D01*
X00236515Y00341916D02*
X00158651Y00341916D01*
X00252625Y00377907D02*
X00264701Y00377907D01*
X00264701Y00383906D02*
X00256490Y00383906D01*
X00258975Y00389904D02*
X00264701Y00389904D01*
X00264701Y00395903D02*
X00259228Y00395903D01*
X00259108Y00401901D02*
X00264701Y00401901D01*
X00264701Y00407900D02*
X00256623Y00407900D01*
X00252945Y00413898D02*
X00264701Y00413898D01*
X00267338Y00299926D02*
X00296070Y00299926D01*
X00289761Y00293928D02*
X00267338Y00293928D01*
X00267338Y00287929D02*
X00286066Y00287929D01*
X00283581Y00281931D02*
X00267338Y00281931D01*
X00267338Y00275932D02*
X00283449Y00275932D01*
X00283690Y00269934D02*
X00267338Y00269934D01*
X00267338Y00263935D02*
X00286174Y00263935D01*
X00290023Y00257937D02*
X00267338Y00257937D01*
X00267338Y00251938D02*
X00296702Y00251938D01*
X00296106Y00239941D02*
X00267338Y00239941D01*
X00267338Y00245939D02*
X00362020Y00245939D01*
X00386911Y00233942D02*
X00403339Y00233942D01*
X00403339Y00227944D02*
X00398900Y00227944D01*
X00403339Y00239941D02*
X00391154Y00239941D01*
X00400657Y00245939D02*
X00403339Y00245939D01*
X00403339Y00185954D02*
X00400672Y00185954D01*
X00403339Y00179956D02*
X00391189Y00179956D01*
X00403339Y00173957D02*
X00349511Y00173957D01*
X00355510Y00167959D02*
X00403339Y00167959D01*
X00403339Y00161960D02*
X00361408Y00161960D01*
X00363892Y00155962D02*
X00403339Y00155962D01*
X00403339Y00149963D02*
X00366377Y00149963D01*
X00368449Y00143965D02*
X00403339Y00143965D01*
X00403339Y00137966D02*
X00368449Y00137966D01*
X00368449Y00131968D02*
X00403339Y00131968D01*
X00403339Y00125969D02*
X00368280Y00125969D01*
X00365795Y00119970D02*
X00403339Y00119970D01*
X00403339Y00113972D02*
X00363310Y00113972D01*
X00360103Y00107973D02*
X00403339Y00107973D01*
X00403339Y00101975D02*
X00354105Y00101975D01*
X00347981Y00095976D02*
X00403339Y00095976D01*
X00403339Y00089978D02*
X00333500Y00089978D01*
X00336891Y00179956D02*
X00371487Y00179956D01*
X00296666Y00191953D02*
X00267338Y00191953D01*
X00267338Y00197951D02*
X00290008Y00197951D01*
X00286168Y00203950D02*
X00267338Y00203950D01*
X00267338Y00209948D02*
X00283684Y00209948D01*
X00283449Y00215947D02*
X00267338Y00215947D01*
X00267338Y00221945D02*
X00283588Y00221945D01*
X00286072Y00227944D02*
X00267338Y00227944D01*
X00267338Y00233942D02*
X00289776Y00233942D01*
X00134968Y00149963D02*
X00128969Y00149963D01*
X00128969Y00143965D02*
X00134968Y00143965D01*
X00134968Y00137966D02*
X00128969Y00137966D01*
X00120875Y00125969D02*
X00143714Y00125969D01*
X00142654Y00119970D02*
X00125766Y00119970D01*
X00128250Y00113972D02*
X00142654Y00113972D01*
X00142654Y00107973D02*
X00129228Y00107973D01*
X00129228Y00101975D02*
X00138280Y00101975D01*
X00132281Y00095976D02*
X00127348Y00095976D01*
X00126283Y00089978D02*
X00124695Y00089978D01*
X00120284Y00083979D02*
X00118697Y00083979D01*
X00142228Y00071982D02*
X00144817Y00071982D01*
X00034150Y00047988D02*
X00028527Y00047988D01*
X00028527Y00041990D02*
X00034150Y00041990D01*
X00034150Y00035991D02*
X00028527Y00035991D01*
X00025870Y00029993D02*
X00036807Y00029993D01*
X00036299Y00023994D02*
X00004240Y00023994D01*
X-00001758Y00017996D02*
X00030301Y00017996D01*
X00051339Y-00013937D02*
X00051339Y-00031937D01*
X00050866Y-00034409D01*
X00057339Y-00055937D02*
X00075339Y-00037937D01*
X00081339Y-00037937D01*
X00087339Y-00043937D01*
X00104734Y-00065984D02*
X00105339Y-00065984D01*
X00081339Y-00079937D02*
X00081339Y-00109937D01*
X00009339Y-00181937D01*
X-00008661Y-00163937D01*
X-00033061Y-00149963D02*
X-00054262Y-00149963D01*
X-00051777Y-00155962D02*
X-00035545Y-00155962D01*
X-00036551Y-00161960D02*
X-00050772Y-00161960D01*
X-00050772Y-00167959D02*
X-00036551Y-00167959D01*
X-00034699Y-00173957D02*
X-00052624Y-00173957D01*
X-00055238Y-00179956D02*
X-00032085Y-00179956D01*
X-00026086Y-00185954D02*
X-00061237Y-00185954D01*
X-00017648Y-00191953D02*
X-00119976Y-00191953D01*
X-00146661Y-00169937D02*
X-00148661Y-00170472D01*
X-00146661Y-00169937D02*
X-00146661Y-00109937D01*
X-00148661Y-00107402D01*
X-00152661Y-00103937D01*
X-00176661Y-00103937D01*
X-00218661Y-00061937D01*
X-00218661Y-00037937D01*
X-00272661Y00016063D01*
X-00272661Y00034063D01*
X-00278268Y00035669D01*
X-00235023Y00017996D02*
X-00218661Y00017996D01*
X-00218661Y00023994D02*
X-00232538Y00023994D01*
X-00231551Y00029993D02*
X-00218661Y00029993D01*
X-00218661Y00035991D02*
X-00231551Y00035991D01*
X-00231551Y00041990D02*
X-00218661Y00041990D01*
X-00218661Y00047988D02*
X-00232805Y00047988D01*
X-00235289Y00053987D02*
X-00218661Y00053987D01*
X-00218661Y00059985D02*
X-00237774Y00059985D01*
X-00242515Y00065984D02*
X-00218661Y00065984D01*
X-00218661Y00071982D02*
X-00248514Y00071982D01*
X-00258341Y00077981D02*
X-00218661Y00077981D01*
X-00218661Y00083979D02*
X-00360661Y00083979D01*
X-00360661Y00077981D02*
X-00298194Y00077981D01*
X-00308022Y00071982D02*
X-00360661Y00071982D01*
X-00360661Y00065984D02*
X-00314020Y00065984D01*
X-00318761Y00059985D02*
X-00360661Y00059985D01*
X-00360661Y00053987D02*
X-00321246Y00053987D01*
X-00323730Y00047988D02*
X-00360661Y00047988D01*
X-00360661Y00041990D02*
X-00324984Y00041990D01*
X-00324984Y00035991D02*
X-00360661Y00035991D01*
X-00360661Y00029993D02*
X-00324984Y00029993D01*
X-00323997Y00023994D02*
X-00360661Y00023994D01*
X-00360661Y00017996D02*
X-00321513Y00017996D01*
X-00319028Y00011997D02*
X-00360661Y00011997D01*
X-00360661Y00005999D02*
X-00314664Y00005999D01*
X-00308665Y00000000D02*
X-00360661Y00000000D01*
X-00360661Y-00005999D02*
X-00299749Y-00005999D01*
X-00288481Y-00017996D02*
X-00360661Y-00017996D01*
X-00360661Y-00023994D02*
X-00302962Y-00023994D01*
X-00304730Y-00024726D02*
X-00317872Y-00037868D01*
X-00324984Y-00055038D01*
X-00324984Y-00073623D01*
X-00317872Y-00090793D01*
X-00304730Y-00103935D01*
X-00287560Y-00111047D01*
X-00268975Y-00111047D01*
X-00251805Y-00103935D01*
X-00238663Y-00090793D01*
X-00231551Y-00073623D01*
X-00231551Y-00055038D01*
X-00238663Y-00037868D01*
X-00251805Y-00024726D01*
X-00268975Y-00017614D01*
X-00287560Y-00017614D01*
X-00304730Y-00024726D01*
X-00309997Y-00029993D02*
X-00360661Y-00029993D01*
X-00360661Y-00035991D02*
X-00315995Y-00035991D01*
X-00319579Y-00041990D02*
X-00360661Y-00041990D01*
X-00360661Y-00047988D02*
X-00322064Y-00047988D01*
X-00324549Y-00053987D02*
X-00360661Y-00053987D01*
X-00360661Y-00059985D02*
X-00324984Y-00059985D01*
X-00324984Y-00065984D02*
X-00360661Y-00065984D01*
X-00360661Y-00071982D02*
X-00324984Y-00071982D01*
X-00323179Y-00077981D02*
X-00360661Y-00077981D01*
X-00360661Y-00083979D02*
X-00320695Y-00083979D01*
X-00318210Y-00089978D02*
X-00360661Y-00089978D01*
X-00360661Y-00095976D02*
X-00312689Y-00095976D01*
X-00306690Y-00101975D02*
X-00360661Y-00101975D01*
X-00360661Y-00107973D02*
X-00294981Y-00107973D01*
X-00287954Y-00117220D02*
X-00305124Y-00124333D01*
X-00318266Y-00137474D01*
X-00325378Y-00154644D01*
X-00325378Y-00173229D01*
X-00318266Y-00190400D01*
X-00305124Y-00203541D01*
X-00287954Y-00210653D01*
X-00269369Y-00210653D01*
X-00252199Y-00203541D01*
X-00239057Y-00190400D01*
X-00231945Y-00173229D01*
X-00231945Y-00170095D01*
X-00224460Y-00177581D01*
X-00214209Y-00181827D01*
X-00203114Y-00181827D01*
X-00192863Y-00177581D01*
X-00185018Y-00169735D01*
X-00180772Y-00159485D01*
X-00180772Y-00148389D01*
X-00185018Y-00138139D01*
X-00192863Y-00130293D01*
X-00203114Y-00126047D01*
X-00214209Y-00126047D01*
X-00224460Y-00130293D01*
X-00232305Y-00138139D01*
X-00235543Y-00145957D01*
X-00239057Y-00137474D01*
X-00252199Y-00124333D01*
X-00269369Y-00117220D01*
X-00287954Y-00117220D01*
X-00294593Y-00119970D02*
X-00360661Y-00119970D01*
X-00360661Y-00113972D02*
X-00183597Y-00113972D01*
X-00189595Y-00107973D02*
X-00261555Y-00107973D01*
X-00262730Y-00119970D02*
X-00177346Y-00119970D01*
X-00177346Y-00125969D02*
X-00250562Y-00125969D01*
X-00244564Y-00131968D02*
X-00226134Y-00131968D01*
X-00232133Y-00137966D02*
X-00238853Y-00137966D01*
X-00236369Y-00143965D02*
X-00234718Y-00143965D01*
X-00232246Y-00173957D02*
X-00228083Y-00173957D01*
X-00234731Y-00179956D02*
X-00218726Y-00179956D01*
X-00237216Y-00185954D02*
X-00177346Y-00185954D01*
X-00177346Y-00179956D02*
X-00198597Y-00179956D01*
X-00189240Y-00173957D02*
X-00177346Y-00173957D01*
X-00177346Y-00167959D02*
X-00184282Y-00167959D01*
X-00181797Y-00161960D02*
X-00177346Y-00161960D01*
X-00177346Y-00155962D02*
X-00180772Y-00155962D01*
X-00180772Y-00149963D02*
X-00177346Y-00149963D01*
X-00176220Y-00143965D02*
X-00182604Y-00143965D01*
X-00185190Y-00137966D02*
X-00172163Y-00137966D01*
X-00177346Y-00131968D02*
X-00191189Y-00131968D01*
X-00195594Y-00101975D02*
X-00249845Y-00101975D01*
X-00243846Y-00095976D02*
X-00201592Y-00095976D01*
X-00207591Y-00089978D02*
X-00238326Y-00089978D01*
X-00235841Y-00083979D02*
X-00213589Y-00083979D01*
X-00219588Y-00077981D02*
X-00233356Y-00077981D01*
X-00231551Y-00071982D02*
X-00225586Y-00071982D01*
X-00230661Y-00065984D02*
X-00231551Y-00065984D01*
X-00231551Y-00059985D02*
X-00230661Y-00059985D01*
X-00230661Y-00053987D02*
X-00231987Y-00053987D01*
X-00230661Y-00047988D02*
X-00234471Y-00047988D01*
X-00236956Y-00041990D02*
X-00231579Y-00041990D01*
X-00237578Y-00035991D02*
X-00240540Y-00035991D01*
X-00243576Y-00029993D02*
X-00246539Y-00029993D01*
X-00249575Y-00023994D02*
X-00253573Y-00023994D01*
X-00255573Y-00017996D02*
X-00268054Y-00017996D01*
X-00261572Y-00011997D02*
X-00360661Y-00011997D01*
X-00241871Y00005999D02*
X-00218661Y00005999D01*
X-00218661Y00011997D02*
X-00237508Y00011997D01*
X-00239628Y00000000D02*
X-00218661Y00000000D01*
X-00218661Y-00005999D02*
X-00233629Y-00005999D01*
X-00227631Y-00011997D02*
X-00218661Y-00011997D01*
X-00221632Y-00017996D02*
X-00213573Y-00017996D01*
X-00215634Y-00023994D02*
X-00207575Y-00023994D01*
X-00209635Y-00029993D02*
X-00201576Y-00029993D01*
X-00206661Y-00035991D02*
X-00195578Y-00035991D01*
X-00189579Y-00041990D02*
X-00206661Y-00041990D01*
X-00206661Y-00047988D02*
X-00183581Y-00047988D01*
X-00177582Y-00053987D02*
X-00206661Y-00053987D01*
X-00203643Y-00059985D02*
X-00177346Y-00059985D01*
X-00177216Y-00065984D02*
X-00197644Y-00065984D01*
X-00191646Y-00071982D02*
X-00056661Y-00071982D01*
X-00056661Y-00065984D02*
X-00120106Y-00065984D01*
X-00119976Y-00059985D02*
X-00056661Y-00059985D01*
X-00056661Y-00053987D02*
X-00119976Y-00053987D01*
X-00119976Y-00047988D02*
X-00056661Y-00047988D01*
X-00056661Y-00041990D02*
X-00119976Y-00041990D01*
X-00119976Y-00035991D02*
X-00106049Y-00035991D01*
X-00112048Y-00029993D02*
X-00119976Y-00029993D01*
X-00119976Y-00023994D02*
X-00114683Y-00023994D01*
X-00116551Y-00017996D02*
X-00119976Y-00017996D01*
X-00123070Y-00011997D02*
X-00116551Y-00011997D01*
X-00115561Y-00005999D02*
X-00191629Y-00005999D01*
X-00194661Y00000000D02*
X-00113076Y00000000D01*
X-00086219Y00017996D02*
X-00035699Y00017996D01*
X-00029701Y00023994D02*
X-00080221Y00023994D01*
X-00074329Y00029993D02*
X-00030122Y00029993D01*
X-00032779Y00035991D02*
X-00071844Y00035991D01*
X-00078392Y00011997D02*
X-00041698Y00011997D01*
X-00047696Y00005999D02*
X-00069155Y00005999D01*
X-00064247Y00000000D02*
X-00053695Y00000000D01*
X-00056661Y-00005999D02*
X-00061762Y-00005999D01*
X-00060772Y-00011997D02*
X-00056661Y-00011997D01*
X-00056661Y-00017996D02*
X-00060772Y-00017996D01*
X-00062640Y-00023994D02*
X-00056661Y-00023994D01*
X-00056661Y-00029993D02*
X-00065275Y-00029993D01*
X-00071273Y-00035991D02*
X-00056661Y-00035991D01*
X-00032661Y-00035991D02*
X-00030047Y-00035991D01*
X-00030047Y-00029993D02*
X-00032661Y-00029993D01*
X-00032661Y-00023994D02*
X-00028886Y-00023994D01*
X-00032661Y-00017996D02*
X-00023141Y-00017996D01*
X-00008189Y-00017996D02*
X-00008188Y-00017996D01*
X-00008189Y-00023994D02*
X-00008188Y-00023994D01*
X-00008189Y-00029993D02*
X-00008188Y-00029993D01*
X-00029793Y-00041990D02*
X-00032661Y-00041990D01*
X-00032661Y-00047988D02*
X-00026774Y-00047988D01*
X-00026047Y-00053987D02*
X-00032661Y-00053987D01*
X-00032661Y-00059985D02*
X-00026047Y-00059985D01*
X-00026047Y-00065984D02*
X-00032661Y-00065984D01*
X-00032661Y-00071982D02*
X-00026047Y-00071982D01*
X-00026047Y-00077981D02*
X-00032661Y-00077981D01*
X-00029648Y-00083979D02*
X-00024496Y-00083979D01*
X-00014661Y-00091937D02*
X-00020661Y-00097937D01*
X-00014661Y-00091937D02*
X-00008661Y-00091937D01*
X-00008189Y-00093465D01*
X-00039595Y-00107973D02*
X-00119976Y-00107973D01*
X-00119976Y-00101975D02*
X-00045594Y-00101975D01*
X-00051592Y-00095976D02*
X-00119976Y-00095976D01*
X-00119976Y-00089978D02*
X-00056661Y-00089978D01*
X-00056661Y-00083979D02*
X-00119976Y-00083979D01*
X-00124016Y-00077981D02*
X-00056661Y-00077981D01*
X-00119976Y-00125969D02*
X00048336Y-00125969D01*
X00068724Y-00101975D02*
X00069339Y-00101975D01*
X00069339Y-00095976D02*
X00068724Y-00095976D01*
X00068724Y-00089978D02*
X00069339Y-00089978D01*
X00057339Y-00055937D02*
X00051339Y-00055937D01*
X00050866Y-00054094D01*
X00129338Y-00035991D02*
X00138654Y-00035991D01*
X00138654Y-00029993D02*
X00129338Y-00029993D01*
X00129338Y-00023994D02*
X00138654Y-00023994D01*
X00138654Y-00017996D02*
X00129338Y-00017996D01*
X00129338Y-00011997D02*
X00140581Y-00011997D01*
X00149272Y-00005999D02*
X00126371Y-00005999D01*
X00168339Y-00005999D02*
X00174338Y-00005999D01*
X00174338Y-00011997D02*
X00168339Y-00011997D01*
X00168339Y-00017996D02*
X00174338Y-00017996D01*
X00174338Y-00023994D02*
X00168339Y-00023994D01*
X00168339Y-00029993D02*
X00174338Y-00029993D01*
X00174338Y-00035991D02*
X00168339Y-00035991D01*
X00168339Y-00053987D02*
X00174338Y-00053987D01*
X00174338Y-00059985D02*
X00168339Y-00059985D01*
X00168339Y-00065984D02*
X00174338Y-00065984D01*
X00174338Y-00071982D02*
X00168339Y-00071982D01*
X00195984Y-00077981D02*
X00207339Y-00077981D01*
X00207339Y-00083979D02*
X00200023Y-00083979D01*
X00200023Y-00089978D02*
X00207339Y-00089978D01*
X00207339Y-00071982D02*
X00199552Y-00071982D01*
X00203448Y-00065984D02*
X00207339Y-00065984D01*
X00207339Y-00059985D02*
X00204023Y-00059985D01*
X00204023Y-00053987D02*
X00207339Y-00053987D01*
X00207339Y-00047988D02*
X00204023Y-00047988D01*
X00219339Y-00103937D02*
X00171339Y-00103937D01*
X00171339Y-00107402D01*
X00200023Y-00119970D02*
X00248402Y-00119970D01*
X00254400Y-00125969D02*
X00200023Y-00125969D01*
X00200023Y-00131968D02*
X00260399Y-00131968D01*
X00266397Y-00137966D02*
X00194840Y-00137966D01*
X00147781Y-00149963D02*
X00132335Y-00149963D01*
X00138334Y-00155962D02*
X00142654Y-00155962D01*
X00122388Y-00173957D02*
X00034289Y-00173957D01*
X00040287Y-00167959D02*
X00116390Y-00167959D01*
X00128387Y-00179956D02*
X00028290Y-00179956D01*
X00022292Y-00185954D02*
X00134385Y-00185954D01*
X00142654Y-00191953D02*
X00080783Y-00191953D01*
X00087830Y-00197951D02*
X00142654Y-00197951D01*
X00142654Y-00203950D02*
X00089457Y-00203950D01*
X00089457Y-00209948D02*
X00146748Y-00209948D01*
X00057803Y-00209948D02*
X00051803Y-00209948D01*
X00051803Y-00203950D02*
X00057803Y-00203950D01*
X00057803Y-00197951D02*
X00051803Y-00197951D01*
X00051803Y-00191953D02*
X00057803Y-00191953D01*
X00028823Y-00191953D02*
X00016293Y-00191953D01*
X00015955Y-00197951D02*
X00021776Y-00197951D01*
X00020150Y-00203950D02*
X00018527Y-00203950D01*
X00018527Y-00209948D02*
X00020150Y-00209948D01*
X00020150Y-00215947D02*
X00018527Y-00215947D01*
X-00012126Y-00223937D02*
X-00014661Y-00223937D01*
X-00014661Y-00205937D01*
X00009339Y-00181937D01*
X-00018841Y-00137966D02*
X-00068481Y-00137966D01*
X-00059192Y-00143965D02*
X-00028131Y-00143965D01*
X00051803Y-00227944D02*
X00057803Y-00227944D01*
X00057803Y-00233942D02*
X00051803Y-00233942D01*
X00051803Y-00239941D02*
X00057803Y-00239941D01*
X00057803Y-00245939D02*
X00051803Y-00245939D01*
X00051803Y-00251938D02*
X00057803Y-00251938D01*
X00220130Y-00281931D02*
X00274124Y-00281931D01*
X00276836Y-00287929D02*
X00230384Y-00287929D01*
X00236383Y-00293928D02*
X00280547Y-00293928D01*
X00285604Y-00299926D02*
X00241183Y-00299926D01*
X00243668Y-00305925D02*
X00292697Y-00305925D01*
X00304085Y-00311923D02*
X00246152Y-00311923D01*
X00247338Y-00317922D02*
X00311697Y-00317922D01*
X00318732Y-00311923D02*
X00324732Y-00311923D01*
X00324732Y-00305925D02*
X00318732Y-00305925D01*
X00318732Y-00299926D02*
X00324732Y-00299926D01*
X00324732Y-00293928D02*
X00318732Y-00293928D01*
X00318732Y-00287929D02*
X00324732Y-00287929D01*
X00324732Y-00281931D02*
X00318732Y-00281931D01*
X00318732Y-00275932D02*
X00324732Y-00275932D01*
X00324732Y-00269934D02*
X00318732Y-00269934D01*
X00324733Y-00263935D02*
X00403339Y-00263935D01*
X00403339Y-00269934D02*
X00372193Y-00269934D01*
X00371243Y-00275932D02*
X00403339Y-00275932D01*
X00403339Y-00281931D02*
X00369340Y-00281931D01*
X00366629Y-00287929D02*
X00403339Y-00287929D01*
X00403339Y-00293928D02*
X00362918Y-00293928D01*
X00357861Y-00299926D02*
X00403339Y-00299926D01*
X00403339Y-00305925D02*
X00350767Y-00305925D01*
X00339379Y-00311923D02*
X00403339Y-00311923D01*
X00403339Y-00317922D02*
X00331767Y-00317922D01*
X00346249Y-00323920D02*
X00403339Y-00323920D01*
X00403339Y-00329919D02*
X00353387Y-00329919D01*
X00359386Y-00335917D02*
X00403339Y-00335917D01*
X00403339Y-00341916D02*
X00363013Y-00341916D01*
X00365498Y-00347914D02*
X00403339Y-00347914D01*
X00403339Y-00353913D02*
X00367983Y-00353913D01*
X00368449Y-00359911D02*
X00403339Y-00359911D01*
X00403183Y-00365910D02*
X00368449Y-00365910D01*
X00368449Y-00371908D02*
X00402711Y-00371908D01*
X00401958Y-00377907D02*
X00366674Y-00377907D01*
X00364189Y-00383906D02*
X00400009Y-00383906D01*
X00395371Y-00389904D02*
X00361705Y-00389904D01*
X00356227Y-00395903D02*
X00389373Y-00395903D01*
X00383374Y-00401901D02*
X00350229Y-00401901D01*
X00365379Y-00419897D02*
X-00322702Y-00419897D01*
X-00328700Y-00413898D02*
X-00289514Y-00413898D01*
X-00304472Y-00407900D02*
X-00334699Y-00407900D01*
X-00340697Y-00401901D02*
X-00312421Y-00401901D01*
X-00318018Y-00395903D02*
X-00346696Y-00395903D01*
X-00352694Y-00389904D02*
X-00322158Y-00389904D01*
X-00325214Y-00383906D02*
X-00357332Y-00383906D01*
X-00359281Y-00377907D02*
X-00327183Y-00377907D01*
X-00328416Y-00371908D02*
X-00360034Y-00371908D01*
X-00316703Y-00425895D02*
X00359380Y-00425895D01*
X00353382Y-00431894D02*
X-00310705Y-00431894D01*
X-00304706Y-00437892D02*
X00347383Y-00437892D01*
X00337357Y-00443891D02*
X-00294680Y-00443891D01*
X-00299370Y-00305925D02*
X-00360661Y-00305925D01*
X-00360661Y-00299926D02*
X-00308739Y-00299926D01*
X-00314738Y-00293928D02*
X-00360661Y-00293928D01*
X-00360661Y-00287929D02*
X-00319289Y-00287929D01*
X-00321774Y-00281931D02*
X-00360661Y-00281931D01*
X-00360661Y-00275932D02*
X-00324258Y-00275932D01*
X-00325378Y-00269934D02*
X-00360661Y-00269934D01*
X-00360661Y-00263935D02*
X-00325378Y-00263935D01*
X-00325378Y-00257937D02*
X-00360661Y-00257937D01*
X-00360661Y-00251938D02*
X-00324257Y-00251938D01*
X-00321772Y-00245939D02*
X-00360661Y-00245939D01*
X-00360661Y-00239941D02*
X-00319287Y-00239941D01*
X-00314734Y-00233942D02*
X-00360661Y-00233942D01*
X-00360661Y-00227944D02*
X-00308735Y-00227944D01*
X-00299361Y-00221945D02*
X-00360661Y-00221945D01*
X-00360661Y-00215947D02*
X-00246551Y-00215947D01*
X-00246551Y-00209948D02*
X-00267667Y-00209948D01*
X-00253185Y-00203950D02*
X-00244712Y-00203950D01*
X-00246609Y-00197951D02*
X-00242118Y-00197951D01*
X-00240610Y-00191953D02*
X-00236119Y-00191953D01*
X-00201203Y-00191953D02*
X-00177346Y-00191953D01*
X-00175249Y-00197951D02*
X-00195205Y-00197951D01*
X-00245532Y-00221945D02*
X-00257962Y-00221945D01*
X-00248587Y-00227944D02*
X-00243047Y-00227944D01*
X-00242589Y-00233942D02*
X-00238098Y-00233942D01*
X-00289656Y-00209948D02*
X-00360661Y-00209948D01*
X-00360661Y-00203950D02*
X-00304138Y-00203950D01*
X-00310714Y-00197951D02*
X-00360661Y-00197951D01*
X-00360661Y-00191953D02*
X-00316713Y-00191953D01*
X-00320107Y-00185954D02*
X-00360661Y-00185954D01*
X-00360661Y-00179956D02*
X-00322592Y-00179956D01*
X-00325076Y-00173957D02*
X-00360661Y-00173957D01*
X-00360661Y-00167959D02*
X-00325378Y-00167959D01*
X-00325378Y-00161960D02*
X-00360661Y-00161960D01*
X-00360661Y-00155962D02*
X-00325378Y-00155962D01*
X-00323439Y-00149963D02*
X-00360661Y-00149963D01*
X-00360661Y-00143965D02*
X-00320954Y-00143965D01*
X-00318469Y-00137966D02*
X-00360661Y-00137966D01*
X-00360661Y-00131968D02*
X-00312759Y-00131968D01*
X-00306760Y-00125969D02*
X-00360661Y-00125969D01*
X-00185647Y-00077981D02*
X-00173307Y-00077981D01*
X-00177346Y-00083979D02*
X-00179648Y-00083979D01*
X-00170661Y-00043937D02*
X-00152661Y-00043937D01*
X-00148661Y-00040472D01*
X-00170661Y-00043937D02*
X-00206661Y-00007937D01*
X-00206661Y00142063D01*
X-00224661Y00160063D01*
X-00224661Y00286063D01*
X-00236661Y00298063D01*
X-00266661Y00298063D01*
X-00268031Y00303465D01*
X-00243373Y00281931D02*
X-00237500Y00281931D01*
X-00236661Y00251938D02*
X-00239650Y00251938D01*
X-00237315Y00245939D02*
X-00236661Y00245939D01*
X-00236661Y00239941D02*
X-00237315Y00239941D01*
X-00265032Y00239941D02*
X-00271031Y00239941D01*
X-00271031Y00245939D02*
X-00265032Y00245939D01*
X-00265032Y00251938D02*
X-00271031Y00251938D01*
X-00271031Y00221945D02*
X-00265032Y00221945D01*
X-00265032Y00215947D02*
X-00271031Y00215947D01*
X-00271031Y00209948D02*
X-00265032Y00209948D01*
X-00265032Y00203950D02*
X-00271031Y00203950D01*
X-00295169Y00203950D02*
X-00360661Y00203950D01*
X-00360661Y00209948D02*
X-00298412Y00209948D01*
X-00298748Y00215947D02*
X-00360661Y00215947D01*
X-00360661Y00221945D02*
X-00298748Y00221945D01*
X-00360661Y00197951D02*
X-00236661Y00197951D01*
X-00236661Y00191953D02*
X-00360661Y00191953D01*
X-00360661Y00185954D02*
X-00236661Y00185954D01*
X-00236661Y00179956D02*
X-00263109Y00179956D01*
X-00250489Y00173957D02*
X-00236661Y00173957D01*
X-00236661Y00167959D02*
X-00244490Y00167959D01*
X-00238592Y00161960D02*
X-00236661Y00161960D01*
X-00233623Y00149963D02*
X-00231532Y00149963D01*
X-00231551Y00143965D02*
X-00225533Y00143965D01*
X-00219535Y00137966D02*
X-00231551Y00137966D01*
X-00231551Y00131968D02*
X-00218661Y00131968D01*
X-00218661Y00125969D02*
X-00231720Y00125969D01*
X-00234205Y00119970D02*
X-00218661Y00119970D01*
X-00218661Y00113972D02*
X-00236689Y00113972D01*
X-00239896Y00107973D02*
X-00218661Y00107973D01*
X-00218661Y00101975D02*
X-00245895Y00101975D01*
X-00252019Y00095976D02*
X-00218661Y00095976D01*
X-00218661Y00089978D02*
X-00266500Y00089978D01*
X-00290035Y00089978D02*
X-00360661Y00089978D01*
X-00360661Y00095976D02*
X-00304517Y00095976D01*
X-00310640Y00101975D02*
X-00360661Y00101975D01*
X-00360661Y00107973D02*
X-00316639Y00107973D01*
X-00319846Y00113972D02*
X-00360661Y00113972D01*
X-00360661Y00119970D02*
X-00322331Y00119970D01*
X-00324815Y00125969D02*
X-00360661Y00125969D01*
X-00360661Y00131968D02*
X-00324984Y00131968D01*
X-00324984Y00137966D02*
X-00360661Y00137966D01*
X-00360661Y00143965D02*
X-00324984Y00143965D01*
X-00322912Y00149963D02*
X-00360661Y00149963D01*
X-00360661Y00155962D02*
X-00320428Y00155962D01*
X-00317943Y00161960D02*
X-00360661Y00161960D01*
X-00360661Y00167959D02*
X-00312045Y00167959D01*
X-00306047Y00173957D02*
X-00360661Y00173957D01*
X-00360661Y00179956D02*
X-00293427Y00179956D01*
X-00240894Y00203950D02*
X-00236661Y00203950D01*
X-00236661Y00209948D02*
X-00237651Y00209948D01*
X-00237315Y00215947D02*
X-00236661Y00215947D01*
X-00236661Y00221945D02*
X-00237315Y00221945D01*
X-00212661Y00197951D02*
X-00209992Y00197951D01*
X-00212661Y00191953D02*
X-00203334Y00191953D01*
X-00173989Y00191953D02*
X-00143334Y00191953D01*
X-00149992Y00197951D02*
X-00167331Y00197951D01*
X-00163491Y00203950D02*
X-00153832Y00203950D01*
X-00156316Y00209948D02*
X-00161007Y00209948D01*
X-00160772Y00215947D02*
X-00156551Y00215947D01*
X-00156412Y00221945D02*
X-00160910Y00221945D01*
X-00163395Y00227944D02*
X-00153928Y00227944D01*
X-00150224Y00233942D02*
X-00167099Y00233942D01*
X-00173429Y00239941D02*
X-00143894Y00239941D01*
X-00159285Y00245939D02*
X-00114834Y00245939D01*
X-00113429Y00239941D02*
X-00102356Y00239941D01*
X-00120833Y00251938D02*
X-00158638Y00251938D01*
X-00134661Y00268063D02*
X-00116661Y00286063D01*
X-00085661Y00286063D01*
X-00134661Y00287929D02*
X-00161028Y00287929D01*
X-00158638Y00281931D02*
X-00137764Y00281931D01*
X-00134661Y00268063D02*
X-00182661Y00268063D01*
X-00185354Y00266063D01*
X-00127817Y00257937D02*
X-00126831Y00257937D01*
X-00099483Y00347914D02*
X-00190772Y00347914D01*
X-00191725Y00353913D02*
X-00105482Y00353913D01*
X-00111480Y00359911D02*
X-00194210Y00359911D01*
X-00199066Y00365910D02*
X-00117479Y00365910D01*
X-00123477Y00371908D02*
X-00208179Y00371908D01*
X-00192856Y00383906D02*
X-00360661Y00383906D01*
X-00360661Y00389904D02*
X-00292722Y00389904D01*
X-00281661Y00389904D02*
X-00275661Y00389904D01*
X-00275661Y00395903D02*
X-00281661Y00395903D01*
X-00281661Y00401901D02*
X-00275661Y00401901D01*
X-00275661Y00407900D02*
X-00281661Y00407900D01*
X-00281661Y00413898D02*
X-00275661Y00413898D01*
X-00275661Y00419897D02*
X-00281661Y00419897D01*
X-00281661Y00425895D02*
X-00275661Y00425895D01*
X-00275661Y00431894D02*
X-00281661Y00431894D01*
X-00281661Y00437892D02*
X-00275661Y00437892D01*
X-00233019Y00413898D02*
X-00224589Y00413898D01*
X-00222104Y00407900D02*
X-00237244Y00407900D01*
X-00242870Y00401901D02*
X-00218796Y00401901D01*
X-00212797Y00395903D02*
X-00250650Y00395903D01*
X-00264601Y00389904D02*
X-00206799Y00389904D01*
X-00227073Y00419897D02*
X-00229963Y00419897D01*
X-00227862Y00425895D02*
X-00227661Y00425895D01*
X-00226399Y00449889D02*
X-00223900Y00449889D01*
X-00221416Y00455888D02*
X-00227751Y00455888D01*
X-00229788Y00461886D02*
X-00217134Y00461886D01*
X-00211136Y00467885D02*
X-00232844Y00467885D01*
X-00236995Y00473883D02*
X-00203327Y00473883D01*
X-00188845Y00479882D02*
X-00242527Y00479882D01*
X-00178661Y00431063D02*
X-00176661Y00430063D01*
X-00164661Y00430063D01*
X-00306672Y00395903D02*
X-00360661Y00395903D01*
X-00360661Y00401901D02*
X-00314453Y00401901D01*
X-00320078Y00407900D02*
X-00360661Y00407900D01*
X-00360661Y00413898D02*
X-00324304Y00413898D01*
X-00327360Y00419897D02*
X-00360661Y00419897D01*
X-00360661Y00425895D02*
X-00329461Y00425895D01*
X-00330870Y00431894D02*
X-00360661Y00431894D01*
X-00360517Y00437892D02*
X-00331661Y00437892D01*
X-00194661Y00125969D02*
X-00151275Y00125969D01*
X-00165264Y00119970D02*
X-00194661Y00119970D01*
X-00194661Y00113972D02*
X-00171262Y00113972D01*
X-00177261Y00107973D02*
X-00194661Y00107973D01*
X-00194661Y00101975D02*
X-00183059Y00101975D01*
X-00185544Y00095976D02*
X-00194661Y00095976D01*
X-00194661Y00089978D02*
X-00188029Y00089978D01*
X-00190513Y00083979D02*
X-00194661Y00083979D01*
X-00194661Y00077981D02*
X-00192661Y00077981D01*
X-00192661Y00071982D02*
X-00194661Y00071982D01*
X-00194661Y00065984D02*
X-00192661Y00065984D01*
X-00192661Y00059985D02*
X-00194661Y00059985D01*
X-00194661Y00053987D02*
X-00192661Y00053987D01*
X-00194661Y00047988D02*
X-00190448Y00047988D01*
X-00187963Y00041990D02*
X-00194661Y00041990D01*
X-00194661Y00035991D02*
X-00185478Y00035991D01*
X-00182994Y00029993D02*
X-00194661Y00029993D01*
X-00194661Y00023994D02*
X-00177102Y00023994D01*
X-00171104Y00017996D02*
X-00194661Y00017996D01*
X-00194661Y00011997D02*
X-00165105Y00011997D01*
X-00150893Y00005999D02*
X-00194661Y00005999D01*
X-00185631Y-00011997D02*
X-00174252Y-00011997D01*
X-00177346Y-00017996D02*
X-00179632Y-00017996D01*
X-00106047Y00125969D02*
X-00089726Y00125969D01*
X00282343Y-00119970D02*
X00306751Y-00119970D01*
X00294027Y-00125969D02*
X00288341Y-00125969D01*
X00336944Y-00215947D02*
X00403339Y-00215947D01*
X00403339Y-00221945D02*
X00349678Y-00221945D01*
X00357069Y-00227944D02*
X00403339Y-00227944D01*
X00403339Y-00233942D02*
X00362343Y-00233942D01*
X00366226Y-00239941D02*
X00403339Y-00239941D01*
X00403339Y-00245939D02*
X00369083Y-00245939D01*
X00371032Y-00251938D02*
X00403339Y-00251938D01*
X00403339Y-00257937D02*
X00372068Y-00257937D01*
D22*
X00087339Y-00043937D03*
X-00008661Y-00163937D03*
X-00078661Y-00163937D03*
X-00078661Y-00223937D03*
X00011339Y-00293937D03*
X00011339Y-00363937D03*
X-00218661Y-00213937D03*
X-00208661Y-00153937D03*
X-00088661Y-00013937D03*
X00041339Y00116063D03*
X00101339Y00106063D03*
X00061339Y00176063D03*
X00225339Y00124063D03*
X00311339Y00216063D03*
X00381339Y00206063D03*
X00381339Y00266063D03*
X00311339Y00276063D03*
X00301339Y00336063D03*
X00371339Y00336063D03*
X00231339Y00396063D03*
X00171339Y00396063D03*
X00111339Y00396063D03*
X00111339Y00456063D03*
X00171339Y00456063D03*
X00231339Y00456063D03*
X-00128661Y00216063D03*
X-00188661Y00216063D03*
X-00218661Y00346063D03*
X-00318661Y00346063D03*
M02*
