G75*
%MOIN*%
%OFA0B0*%
%FSLAX26Y26*%
%IPPOS*%
%LPD*%
%AMOC8*
5,1,8,0,0,1.08239X$1,22.5*
%
%ADD10C,0.088000*%
%ADD11C,0.082000*%
%ADD12R,0.033000X0.058000*%
%ADD13C,0.118000*%
%ADD14C,0.083433*%
%ADD15C,0.045780*%
D10*
X-00085661Y00286063D03*
X00028339Y00286063D03*
X-00178661Y00431063D03*
X-00078661Y00441063D03*
X-00278661Y00441063D03*
D11*
X-00168661Y-00323937D03*
X-00068661Y-00323937D03*
X00101339Y-00323937D03*
X00201339Y-00323937D03*
D12*
X00053339Y-00213937D03*
X00021339Y-00213937D03*
X-00010661Y-00213937D03*
D13*
X-00128661Y00066063D03*
D14*
X-00278268Y00035669D03*
X-00278268Y00135669D03*
X-00278268Y-00064331D03*
X-00278661Y-00163937D03*
X-00278661Y-00263937D03*
X-00278268Y-00364331D03*
X00321732Y-00364331D03*
X00321732Y-00264331D03*
X00321732Y-00164331D03*
X00321732Y-00064331D03*
X00321732Y00035669D03*
X00321732Y00135669D03*
D15*
X00087339Y-00043937D03*
X-00008661Y-00163937D03*
X-00078661Y-00163937D03*
X-00078661Y-00223937D03*
X00011339Y-00293937D03*
X00011339Y-00363937D03*
X-00218661Y-00213937D03*
X-00208661Y-00153937D03*
X-00088661Y-00013937D03*
X00041339Y00116063D03*
X00101339Y00106063D03*
X00061339Y00176063D03*
X00225339Y00124063D03*
X00311339Y00216063D03*
X00381339Y00206063D03*
X00381339Y00266063D03*
X00311339Y00276063D03*
X00301339Y00336063D03*
X00371339Y00336063D03*
X00231339Y00396063D03*
X00171339Y00396063D03*
X00111339Y00396063D03*
X00111339Y00456063D03*
X00171339Y00456063D03*
X00231339Y00456063D03*
X-00128661Y00216063D03*
X-00188661Y00216063D03*
X-00218661Y00346063D03*
X-00318661Y00346063D03*
M02*
