G75*
%MOIN*%
%OFA0B0*%
%FSLAX26Y26*%
%IPPOS*%
%LPD*%
%AMOC8*
5,1,8,0,0,1.08239X$1,22.5*
%
%ADD10C,0.080000*%
%ADD11C,0.074000*%
%ADD12R,0.025000X0.050000*%
%ADD13C,0.110000*%
%ADD14C,0.075433*%
%ADD15C,0.006000*%
%ADD16C,0.037780*%
D10*
X-00085661Y00286063D03*
X00028339Y00286063D03*
X-00178661Y00431063D03*
X-00078661Y00441063D03*
X-00278661Y00441063D03*
D11*
X-00168661Y-00323937D03*
X-00068661Y-00323937D03*
X00101339Y-00323937D03*
X00201339Y-00323937D03*
D12*
X00053339Y-00213937D03*
X00021339Y-00213937D03*
X-00010661Y-00213937D03*
D13*
X-00128661Y00066063D03*
D14*
X-00278268Y00035669D03*
X-00278268Y00135669D03*
X-00278268Y-00064331D03*
X-00278661Y-00163937D03*
X-00278661Y-00263937D03*
X-00278268Y-00364331D03*
X00321732Y-00364331D03*
X00321732Y-00264331D03*
X00321732Y-00164331D03*
X00321732Y-00064331D03*
X00321732Y00035669D03*
X00321732Y00135669D03*
D15*
X00063695Y-00028139D02*
X00059449Y-00038389D01*
X00059449Y-00049485D01*
X00063695Y-00059735D01*
X00071540Y-00067581D01*
X00075339Y-00069154D01*
X00075339Y-00098966D01*
X00018258Y-00156047D01*
X00014982Y-00148139D01*
X00007137Y-00140293D01*
X-00003114Y-00136047D01*
X-00014209Y-00136047D01*
X-00018007Y-00137621D01*
X-00206661Y00051033D01*
X-00206661Y00069033D01*
X-00213691Y00076063D01*
X-00153691Y00136063D01*
X-00129691Y00136063D01*
X-00122661Y00143092D01*
X-00014661Y00251092D01*
X-00014661Y00257092D01*
X-00013273Y00258480D01*
X-00013202Y00258307D01*
X00000582Y00244523D01*
X00018592Y00237063D01*
X00038085Y00237063D01*
X00056095Y00244523D01*
X00069879Y00258307D01*
X00077338Y00276316D01*
X00077338Y00295810D01*
X00069879Y00313819D01*
X00056095Y00327603D01*
X00038085Y00335063D01*
X00018592Y00335063D01*
X00000582Y00327603D01*
X-00013202Y00313819D01*
X-00020661Y00295810D01*
X-00020661Y00285033D01*
X-00031632Y00274063D01*
X-00038661Y00267033D01*
X-00038661Y00261033D01*
X-00139632Y00160063D01*
X-00163632Y00160063D01*
X-00230661Y00093033D01*
X-00242749Y00105121D01*
X-00238663Y00109206D01*
X-00231551Y00126377D01*
X-00231551Y00144962D01*
X-00238663Y00162132D01*
X-00251805Y00175273D01*
X-00268975Y00182386D01*
X-00287560Y00182386D01*
X-00304730Y00175273D01*
X-00317872Y00162132D01*
X-00324984Y00144962D01*
X-00324984Y00126377D01*
X-00317872Y00109206D01*
X-00304730Y00096065D01*
X-00287560Y00088953D01*
X-00268975Y00088953D01*
X-00262998Y00091429D01*
X-00242661Y00071093D01*
X-00242661Y00071092D01*
X-00235632Y00064063D01*
X-00235632Y00064063D01*
X-00230661Y00059092D01*
X-00230661Y00041092D01*
X-00223632Y00034063D01*
X-00034978Y-00154591D01*
X-00036551Y-00158389D01*
X-00036551Y-00169485D01*
X-00032305Y-00179735D01*
X-00029496Y-00182544D01*
X-00032161Y-00185209D01*
X-00032161Y-00242665D01*
X-00026889Y-00247937D01*
X00031454Y-00247937D01*
X00032856Y-00249339D01*
X00035821Y-00251051D01*
X00039127Y-00251937D01*
X00050339Y-00251937D01*
X00050339Y-00216937D01*
X00056338Y-00216937D01*
X00056338Y-00251937D01*
X00067550Y-00251937D01*
X00070856Y-00251051D01*
X00073821Y-00249339D01*
X00076241Y-00246919D01*
X00077953Y-00243955D01*
X00078838Y-00240648D01*
X00078838Y-00216937D01*
X00056339Y-00216937D01*
X00056339Y-00210937D01*
X00078838Y-00210937D01*
X00078838Y-00187225D01*
X00077953Y-00183919D01*
X00076241Y-00180955D01*
X00073821Y-00178534D01*
X00070856Y-00176823D01*
X00067550Y-00175937D01*
X00056338Y-00175937D01*
X00056338Y-00210937D01*
X00050339Y-00210937D01*
X00050339Y-00175937D01*
X00039127Y-00175937D01*
X00035821Y-00176823D01*
X00033338Y-00178256D01*
X00033338Y-00174907D01*
X00099338Y-00108907D01*
X00099338Y-00069154D01*
X00103137Y-00067581D01*
X00110982Y-00059735D01*
X00115228Y-00049485D01*
X00115228Y-00038389D01*
X00110982Y-00028139D01*
X00103137Y-00020293D01*
X00092886Y-00016047D01*
X00081791Y-00016047D01*
X00071540Y-00020293D01*
X00063695Y-00028139D01*
X00062927Y-00029993D02*
X-00065275Y-00029993D01*
X-00065018Y-00029735D02*
X-00060772Y-00019485D01*
X-00060772Y-00008389D01*
X-00065018Y00001861D01*
X-00072863Y00009707D01*
X-00083114Y00013953D01*
X-00090262Y00013953D01*
X-00074405Y00029810D01*
X-00064661Y00053333D01*
X-00064661Y00078793D01*
X-00074405Y00102316D01*
X-00092408Y00120320D01*
X-00115931Y00130063D01*
X-00141392Y00130063D01*
X-00164914Y00120320D01*
X-00182918Y00102316D01*
X-00192661Y00078793D01*
X-00192661Y00053333D01*
X-00182918Y00029810D01*
X-00164914Y00011806D01*
X-00141392Y00002063D01*
X-00115931Y00002063D01*
X-00109397Y00004770D01*
X-00112305Y00001861D01*
X-00116551Y-00008389D01*
X-00116551Y-00019485D01*
X-00112305Y-00029735D01*
X-00104460Y-00037581D01*
X-00094209Y-00041827D01*
X-00083114Y-00041827D01*
X-00072863Y-00037581D01*
X-00065018Y-00029735D01*
X-00062640Y-00023994D02*
X00067839Y-00023994D01*
X00077087Y-00017996D02*
X-00060772Y-00017996D01*
X-00060772Y-00011997D02*
X00243339Y-00011997D01*
X00243339Y-00017996D02*
X00097590Y-00017996D01*
X00106838Y-00023994D02*
X00243339Y-00023994D01*
X00243339Y-00029993D02*
X00111750Y-00029993D01*
X00114235Y-00035991D02*
X00243339Y-00035991D01*
X00243339Y-00041990D02*
X00115228Y-00041990D01*
X00115228Y-00047988D02*
X00243339Y-00047988D01*
X00243339Y-00053987D02*
X00113363Y-00053987D01*
X00110732Y-00059985D02*
X00243339Y-00059985D01*
X00243339Y-00065984D02*
X00104734Y-00065984D01*
X00099338Y-00071982D02*
X00243339Y-00071982D01*
X00243339Y-00077981D02*
X00099338Y-00077981D01*
X00099338Y-00083979D02*
X00243339Y-00083979D01*
X00243339Y-00089978D02*
X00099338Y-00089978D01*
X00099338Y-00095976D02*
X00243339Y-00095976D01*
X00243339Y-00101975D02*
X00099338Y-00101975D01*
X00099338Y-00107973D02*
X00243339Y-00107973D01*
X00243339Y-00113972D02*
X00094274Y-00113972D01*
X00088275Y-00119970D02*
X00243339Y-00119970D01*
X00243339Y-00125969D02*
X00082277Y-00125969D01*
X00076278Y-00131968D02*
X00243339Y-00131968D01*
X00243339Y-00137966D02*
X00070280Y-00137966D01*
X00064281Y-00143965D02*
X00243339Y-00143965D01*
X00243339Y-00149963D02*
X00058283Y-00149963D01*
X00052284Y-00155962D02*
X00243339Y-00155962D01*
X00243339Y-00161960D02*
X00046286Y-00161960D01*
X00040287Y-00167959D02*
X00243339Y-00167959D01*
X00243339Y-00173957D02*
X00034289Y-00173957D01*
X00021339Y-00175937D02*
X00015339Y-00181937D01*
X00015339Y-00205937D01*
X00021339Y-00211937D01*
X00021339Y-00213937D01*
X00050339Y-00209948D02*
X00056338Y-00209948D01*
X00056338Y-00203950D02*
X00050339Y-00203950D01*
X00050339Y-00197951D02*
X00056338Y-00197951D01*
X00056338Y-00191953D02*
X00050339Y-00191953D01*
X00050339Y-00185954D02*
X00056338Y-00185954D01*
X00056338Y-00179956D02*
X00050339Y-00179956D01*
X00075242Y-00179956D02*
X00243339Y-00179956D01*
X00243339Y-00185954D02*
X00078498Y-00185954D01*
X00078838Y-00191953D02*
X00243339Y-00191953D01*
X00243339Y-00197951D02*
X00078838Y-00197951D01*
X00078838Y-00203950D02*
X00243339Y-00203950D01*
X00243339Y-00209948D02*
X00078838Y-00209948D01*
X00056339Y-00215947D02*
X00243339Y-00215947D01*
X00243339Y-00221945D02*
X00078838Y-00221945D01*
X00078838Y-00227944D02*
X00243339Y-00227944D01*
X00243339Y-00233942D02*
X00078838Y-00233942D01*
X00078838Y-00239941D02*
X00243339Y-00239941D01*
X00243339Y-00245939D02*
X00076807Y-00245939D01*
X00056338Y-00245939D02*
X00050339Y-00245939D01*
X00050339Y-00239941D02*
X00056338Y-00239941D01*
X00056338Y-00233942D02*
X00050339Y-00233942D01*
X00050339Y-00227944D02*
X00056338Y-00227944D01*
X00056338Y-00221945D02*
X00050339Y-00221945D01*
X00027137Y-00270293D02*
X00016886Y-00266047D01*
X00005791Y-00266047D01*
X-00004460Y-00270293D01*
X-00012305Y-00278139D01*
X-00016551Y-00288389D01*
X-00016551Y-00299485D01*
X-00012305Y-00309735D01*
X-00004460Y-00317581D01*
X00005791Y-00321827D01*
X00016886Y-00321827D01*
X00027137Y-00317581D01*
X00034982Y-00309735D01*
X00039228Y-00299485D01*
X00039228Y-00288389D01*
X00034982Y-00278139D01*
X00027137Y-00270293D01*
X00026269Y-00269934D02*
X00243339Y-00269934D01*
X00243339Y-00275932D02*
X00115398Y-00275932D01*
X00113047Y-00275168D02*
X00105274Y-00273937D01*
X00104338Y-00273937D01*
X00104338Y-00320936D01*
X00098339Y-00320936D01*
X00098339Y-00273937D01*
X00097403Y-00273937D01*
X00089630Y-00275168D01*
X00082145Y-00277600D01*
X00075133Y-00281173D01*
X00068766Y-00285799D01*
X00063201Y-00291364D01*
X00058575Y-00297731D01*
X00055002Y-00304744D01*
X00052570Y-00312229D01*
X00051339Y-00320002D01*
X00051339Y-00320937D01*
X00098338Y-00320937D01*
X00098338Y-00326937D01*
X00051339Y-00326937D01*
X00051339Y-00327872D01*
X00052570Y-00335645D01*
X00055002Y-00343130D01*
X00058575Y-00350143D01*
X00063201Y-00356510D01*
X00068766Y-00362075D01*
X00075133Y-00366701D01*
X00082145Y-00370274D01*
X00089630Y-00372706D01*
X00097403Y-00373937D01*
X00098339Y-00373937D01*
X00098339Y-00326938D01*
X00104338Y-00326938D01*
X00104338Y-00373937D01*
X00105274Y-00373937D01*
X00113047Y-00372706D01*
X00120532Y-00370274D01*
X00127544Y-00366701D01*
X00133911Y-00362075D01*
X00139476Y-00356510D01*
X00144102Y-00350143D01*
X00147675Y-00343130D01*
X00150107Y-00335645D01*
X00151338Y-00327872D01*
X00151338Y-00326937D01*
X00104339Y-00326937D01*
X00104339Y-00320937D01*
X00151338Y-00320937D01*
X00151338Y-00320002D01*
X00150107Y-00312229D01*
X00147675Y-00304744D01*
X00144102Y-00297731D01*
X00139476Y-00291364D01*
X00133911Y-00285799D01*
X00127544Y-00281173D01*
X00120532Y-00277600D01*
X00113047Y-00275168D01*
X00104338Y-00275932D02*
X00098339Y-00275932D01*
X00098339Y-00281931D02*
X00104338Y-00281931D01*
X00104338Y-00287929D02*
X00098339Y-00287929D01*
X00098339Y-00293928D02*
X00104338Y-00293928D01*
X00104338Y-00299926D02*
X00098339Y-00299926D01*
X00098339Y-00305925D02*
X00104338Y-00305925D01*
X00104338Y-00311923D02*
X00098339Y-00311923D01*
X00098339Y-00317922D02*
X00104338Y-00317922D01*
X00104339Y-00323920D02*
X00155339Y-00323920D01*
X00155339Y-00317922D02*
X00151009Y-00317922D01*
X00155339Y-00314787D02*
X00155339Y-00333087D01*
X00162342Y-00349994D01*
X00175282Y-00362934D01*
X00192188Y-00369937D01*
X00210489Y-00369937D01*
X00227395Y-00362934D01*
X00240335Y-00349994D01*
X00247338Y-00333087D01*
X00247338Y-00314787D01*
X00240335Y-00297880D01*
X00227395Y-00284940D01*
X00210489Y-00277937D01*
X00192188Y-00277937D01*
X00175282Y-00284940D01*
X00162342Y-00297880D01*
X00155339Y-00314787D01*
X00156525Y-00311923D02*
X00150008Y-00311923D01*
X00148059Y-00305925D02*
X00159009Y-00305925D01*
X00161494Y-00299926D02*
X00145221Y-00299926D01*
X00141339Y-00293928D02*
X00166294Y-00293928D01*
X00172293Y-00287929D02*
X00136041Y-00287929D01*
X00128587Y-00281931D02*
X00182547Y-00281931D01*
X00220130Y-00281931D02*
X00243339Y-00281931D01*
X00243339Y-00287929D02*
X00230384Y-00287929D01*
X00236383Y-00293928D02*
X00243339Y-00293928D01*
X00243339Y-00299926D02*
X00241183Y-00299926D01*
X00243339Y-00300907D02*
X00250368Y-00307937D01*
X00281592Y-00339161D01*
X00275016Y-00355038D01*
X00275016Y-00373623D01*
X00282128Y-00390793D01*
X00295269Y-00403935D01*
X00312440Y-00411047D01*
X00331025Y-00411047D01*
X00348195Y-00403935D01*
X00361336Y-00390793D01*
X00368449Y-00373623D01*
X00368449Y-00355038D01*
X00361336Y-00337868D01*
X00348195Y-00324726D01*
X00331025Y-00317614D01*
X00312440Y-00317614D01*
X00299391Y-00323019D01*
X00267338Y-00290966D01*
X00267338Y00099033D01*
X00251655Y00114717D01*
X00253228Y00118515D01*
X00253228Y00129611D01*
X00248982Y00139861D01*
X00241137Y00147707D01*
X00230886Y00151953D01*
X00219791Y00151953D01*
X00209540Y00147707D01*
X00201695Y00139861D01*
X00197449Y00129611D01*
X00197449Y00118515D01*
X00201695Y00108265D01*
X00209540Y00100419D01*
X00219791Y00096173D01*
X00230886Y00096173D01*
X00234684Y00097747D01*
X00243339Y00089092D01*
X00243339Y-00300907D01*
X00243668Y-00305925D02*
X00248356Y-00305925D01*
X00246152Y-00311923D02*
X00254354Y-00311923D01*
X00260353Y-00317922D02*
X00247338Y-00317922D01*
X00247338Y-00323920D02*
X00266351Y-00323920D01*
X00272350Y-00329919D02*
X00247338Y-00329919D01*
X00246166Y-00335917D02*
X00278348Y-00335917D01*
X00280451Y-00341916D02*
X00243681Y-00341916D01*
X00241197Y-00347914D02*
X00277967Y-00347914D01*
X00275482Y-00353913D02*
X00236416Y-00353913D01*
X00230418Y-00359911D02*
X00275016Y-00359911D01*
X00275016Y-00365910D02*
X00220210Y-00365910D01*
X00182467Y-00365910D02*
X00128633Y-00365910D01*
X00136075Y-00359911D02*
X00172259Y-00359911D01*
X00166261Y-00353913D02*
X00141363Y-00353913D01*
X00145238Y-00347914D02*
X00161480Y-00347914D01*
X00158996Y-00341916D02*
X00148070Y-00341916D01*
X00150019Y-00335917D02*
X00156511Y-00335917D01*
X00155339Y-00329919D02*
X00151014Y-00329919D01*
X00104338Y-00329919D02*
X00098339Y-00329919D01*
X00098339Y-00335917D02*
X00104338Y-00335917D01*
X00104338Y-00341916D02*
X00098339Y-00341916D01*
X00098339Y-00347914D02*
X00104338Y-00347914D01*
X00104338Y-00353913D02*
X00098339Y-00353913D01*
X00098339Y-00359911D02*
X00104338Y-00359911D01*
X00104338Y-00365910D02*
X00098339Y-00365910D01*
X00098339Y-00371908D02*
X00104338Y-00371908D01*
X00115500Y-00371908D02*
X00275016Y-00371908D01*
X00276790Y-00377907D02*
X00035740Y-00377907D01*
X00034982Y-00379735D02*
X00039228Y-00369485D01*
X00039228Y-00358389D01*
X00034982Y-00348139D01*
X00027137Y-00340293D01*
X00016886Y-00336047D01*
X00005791Y-00336047D01*
X-00004460Y-00340293D01*
X-00012305Y-00348139D01*
X-00016551Y-00358389D01*
X-00016551Y-00369485D01*
X-00012305Y-00379735D01*
X-00004460Y-00387581D01*
X00005791Y-00391827D01*
X00016886Y-00391827D01*
X00027137Y-00387581D01*
X00034982Y-00379735D01*
X00030812Y-00383906D02*
X00279275Y-00383906D01*
X00281759Y-00389904D02*
X00021528Y-00389904D01*
X00001149Y-00389904D02*
X-00234377Y-00389904D01*
X-00234891Y-00390912D02*
X-00231267Y-00383799D01*
X-00228800Y-00376207D01*
X-00227551Y-00368322D01*
X-00227551Y-00367330D01*
X-00275267Y-00367330D01*
X-00275267Y-00361331D01*
X-00227551Y-00361331D01*
X-00227551Y-00360339D01*
X-00228800Y-00352454D01*
X-00231267Y-00344862D01*
X-00234891Y-00337749D01*
X-00239583Y-00331291D01*
X-00245228Y-00325646D01*
X-00251686Y-00320954D01*
X-00258799Y-00317330D01*
X-00266391Y-00314863D01*
X-00274276Y-00313614D01*
X-00275268Y-00313614D01*
X-00275268Y-00361330D01*
X-00281267Y-00361330D01*
X-00281267Y-00313614D01*
X-00282259Y-00313614D01*
X-00290144Y-00314863D01*
X-00297736Y-00317330D01*
X-00304849Y-00320954D01*
X-00311307Y-00325646D01*
X-00316952Y-00331291D01*
X-00321644Y-00337749D01*
X-00325268Y-00344862D01*
X-00327735Y-00352454D01*
X-00328984Y-00360339D01*
X-00328984Y-00361331D01*
X-00281268Y-00361331D01*
X-00281268Y-00367330D01*
X-00328984Y-00367330D01*
X-00328984Y-00368322D01*
X-00327735Y-00376207D01*
X-00325268Y-00383799D01*
X-00321644Y-00390912D01*
X-00316952Y-00397370D01*
X-00311307Y-00403015D01*
X-00304849Y-00407707D01*
X-00297736Y-00411331D01*
X-00290144Y-00413798D01*
X-00282259Y-00415047D01*
X-00281267Y-00415047D01*
X-00281267Y-00367331D01*
X-00275268Y-00367331D01*
X-00275268Y-00415047D01*
X-00274276Y-00415047D01*
X-00266391Y-00413798D01*
X-00258799Y-00411331D01*
X-00251686Y-00407707D01*
X-00245228Y-00403015D01*
X-00239583Y-00397370D01*
X-00234891Y-00390912D01*
X-00238517Y-00395903D02*
X00287237Y-00395903D01*
X00293236Y-00401901D02*
X-00244114Y-00401901D01*
X-00252064Y-00407900D02*
X00304841Y-00407900D01*
X00338623Y-00407900D02*
X00377376Y-00407900D01*
X00371377Y-00413898D02*
X-00267022Y-00413898D01*
X-00275268Y-00413898D02*
X-00281267Y-00413898D01*
X-00281267Y-00407900D02*
X-00275268Y-00407900D01*
X-00275268Y-00401901D02*
X-00281267Y-00401901D01*
X-00281267Y-00395903D02*
X-00275268Y-00395903D01*
X-00275268Y-00389904D02*
X-00281267Y-00389904D01*
X-00281267Y-00383906D02*
X-00275268Y-00383906D01*
X-00275268Y-00377907D02*
X-00281267Y-00377907D01*
X-00281267Y-00371908D02*
X-00275268Y-00371908D01*
X-00275267Y-00365910D02*
X-00187533Y-00365910D01*
X-00194718Y-00362934D02*
X-00177811Y-00369937D01*
X-00159511Y-00369937D01*
X-00142604Y-00362934D01*
X-00129664Y-00349994D01*
X-00122661Y-00333087D01*
X-00122661Y-00314787D01*
X-00129664Y-00297880D01*
X-00142604Y-00284940D01*
X-00159511Y-00277937D01*
X-00177811Y-00277937D01*
X-00194718Y-00284940D01*
X-00207658Y-00297880D01*
X-00214661Y-00314787D01*
X-00214661Y-00333087D01*
X-00207658Y-00349994D01*
X-00194718Y-00362934D01*
X-00197741Y-00359911D02*
X-00227619Y-00359911D01*
X-00228569Y-00353913D02*
X-00203739Y-00353913D01*
X-00208520Y-00347914D02*
X-00230275Y-00347914D01*
X-00232768Y-00341916D02*
X-00211004Y-00341916D01*
X-00213489Y-00335917D02*
X-00236222Y-00335917D01*
X-00240956Y-00329919D02*
X-00214661Y-00329919D01*
X-00214661Y-00323920D02*
X-00247604Y-00323920D01*
X-00257637Y-00317922D02*
X-00214661Y-00317922D01*
X-00213475Y-00311923D02*
X-00360661Y-00311923D01*
X-00360661Y-00305925D02*
X-00299370Y-00305925D01*
X-00305124Y-00303541D02*
X-00287954Y-00310653D01*
X-00269369Y-00310653D01*
X-00252199Y-00303541D01*
X-00239057Y-00290400D01*
X-00231945Y-00273229D01*
X-00231945Y-00254644D01*
X-00239057Y-00237474D01*
X-00252199Y-00224333D01*
X-00269369Y-00217220D01*
X-00287954Y-00217220D01*
X-00305124Y-00224333D01*
X-00318266Y-00237474D01*
X-00325378Y-00254644D01*
X-00325378Y-00273229D01*
X-00318266Y-00290400D01*
X-00305124Y-00303541D01*
X-00308739Y-00299926D02*
X-00360661Y-00299926D01*
X-00360661Y-00293928D02*
X-00314738Y-00293928D01*
X-00319289Y-00287929D02*
X-00360661Y-00287929D01*
X-00360661Y-00281931D02*
X-00321774Y-00281931D01*
X-00324258Y-00275932D02*
X-00360661Y-00275932D01*
X-00360661Y-00269934D02*
X-00325378Y-00269934D01*
X-00325378Y-00263935D02*
X-00360661Y-00263935D01*
X-00360661Y-00257937D02*
X-00325378Y-00257937D01*
X-00324257Y-00251938D02*
X-00360661Y-00251938D01*
X-00360661Y-00245939D02*
X-00321772Y-00245939D01*
X-00319287Y-00239941D02*
X-00360661Y-00239941D01*
X-00360661Y-00233942D02*
X-00314734Y-00233942D01*
X-00308735Y-00227944D02*
X-00360661Y-00227944D01*
X-00360661Y-00221945D02*
X-00299361Y-00221945D01*
X-00287954Y-00210653D02*
X-00269369Y-00210653D01*
X-00252199Y-00203541D01*
X-00239057Y-00190400D01*
X-00231945Y-00173229D01*
X-00231945Y-00170095D01*
X-00224460Y-00177581D01*
X-00214209Y-00181827D01*
X-00203114Y-00181827D01*
X-00192863Y-00177581D01*
X-00185018Y-00169735D01*
X-00180772Y-00159485D01*
X-00180772Y-00148389D01*
X-00185018Y-00138139D01*
X-00192863Y-00130293D01*
X-00203114Y-00126047D01*
X-00214209Y-00126047D01*
X-00224460Y-00130293D01*
X-00232305Y-00138139D01*
X-00235543Y-00145957D01*
X-00239057Y-00137474D01*
X-00252199Y-00124333D01*
X-00269369Y-00117220D01*
X-00287954Y-00117220D01*
X-00305124Y-00124333D01*
X-00318266Y-00137474D01*
X-00325378Y-00154644D01*
X-00325378Y-00173229D01*
X-00318266Y-00190400D01*
X-00305124Y-00203541D01*
X-00287954Y-00210653D01*
X-00289656Y-00209948D02*
X-00360661Y-00209948D01*
X-00360661Y-00203950D02*
X-00304138Y-00203950D01*
X-00310714Y-00197951D02*
X-00360661Y-00197951D01*
X-00360661Y-00191953D02*
X-00316713Y-00191953D01*
X-00320107Y-00185954D02*
X-00360661Y-00185954D01*
X-00360661Y-00179956D02*
X-00322592Y-00179956D01*
X-00325076Y-00173957D02*
X-00360661Y-00173957D01*
X-00360661Y-00167959D02*
X-00325378Y-00167959D01*
X-00325378Y-00161960D02*
X-00360661Y-00161960D01*
X-00360661Y-00155962D02*
X-00325378Y-00155962D01*
X-00323439Y-00149963D02*
X-00360661Y-00149963D01*
X-00360661Y-00143965D02*
X-00320954Y-00143965D01*
X-00318469Y-00137966D02*
X-00360661Y-00137966D01*
X-00360661Y-00131968D02*
X-00312759Y-00131968D01*
X-00306760Y-00125969D02*
X-00360661Y-00125969D01*
X-00360661Y-00119970D02*
X-00294593Y-00119970D01*
X-00287560Y-00111047D02*
X-00304730Y-00103935D01*
X-00317872Y-00090793D01*
X-00324984Y-00073623D01*
X-00324984Y-00055038D01*
X-00317872Y-00037868D01*
X-00304730Y-00024726D01*
X-00287560Y-00017614D01*
X-00268975Y-00017614D01*
X-00251805Y-00024726D01*
X-00238663Y-00037868D01*
X-00231551Y-00055038D01*
X-00231551Y-00073623D01*
X-00238663Y-00090793D01*
X-00251805Y-00103935D01*
X-00268975Y-00111047D01*
X-00287560Y-00111047D01*
X-00294981Y-00107973D02*
X-00360661Y-00107973D01*
X-00360661Y-00101975D02*
X-00306690Y-00101975D01*
X-00312689Y-00095976D02*
X-00360661Y-00095976D01*
X-00360661Y-00089978D02*
X-00318210Y-00089978D01*
X-00320695Y-00083979D02*
X-00360661Y-00083979D01*
X-00360661Y-00077981D02*
X-00323179Y-00077981D01*
X-00324984Y-00071982D02*
X-00360661Y-00071982D01*
X-00360661Y-00065984D02*
X-00324984Y-00065984D01*
X-00324984Y-00059985D02*
X-00360661Y-00059985D01*
X-00360661Y-00053987D02*
X-00324549Y-00053987D01*
X-00322064Y-00047988D02*
X-00360661Y-00047988D01*
X-00360661Y-00041990D02*
X-00319579Y-00041990D01*
X-00315995Y-00035991D02*
X-00360661Y-00035991D01*
X-00360661Y-00029993D02*
X-00309997Y-00029993D01*
X-00302962Y-00023994D02*
X-00360661Y-00023994D01*
X-00360661Y-00017996D02*
X-00288481Y-00017996D01*
X-00287560Y-00011047D02*
X-00268975Y-00011047D01*
X-00251805Y-00003935D01*
X-00238663Y00009206D01*
X-00231551Y00026377D01*
X-00231551Y00044962D01*
X-00238663Y00062132D01*
X-00251805Y00075273D01*
X-00268975Y00082386D01*
X-00287560Y00082386D01*
X-00294952Y00079324D01*
X-00326661Y00111033D01*
X-00326661Y00155092D01*
X-00089315Y00392439D01*
X-00088408Y00392063D01*
X-00068915Y00392063D01*
X-00050905Y00399523D01*
X-00037121Y00413307D01*
X-00029661Y00431316D01*
X-00029661Y00450810D01*
X-00037121Y00468819D01*
X-00050905Y00482603D01*
X-00068915Y00490063D01*
X-00088408Y00490063D01*
X-00106418Y00482603D01*
X-00120202Y00468819D01*
X-00127661Y00450810D01*
X-00127661Y00431316D01*
X-00120202Y00413307D01*
X-00111295Y00404400D01*
X-00343632Y00172063D01*
X-00350661Y00165033D01*
X-00350661Y00101092D01*
X-00314786Y00065218D01*
X-00317872Y00062132D01*
X-00324984Y00044962D01*
X-00324984Y00026377D01*
X-00317872Y00009206D01*
X-00304730Y-00003935D01*
X-00287560Y-00011047D01*
X-00299749Y-00005999D02*
X-00360661Y-00005999D01*
X-00360661Y-00011997D02*
X-00177572Y-00011997D01*
X-00183570Y-00005999D02*
X-00256787Y-00005999D01*
X-00247870Y00000000D02*
X-00189569Y00000000D01*
X-00195567Y00005999D02*
X-00241871Y00005999D01*
X-00237508Y00011997D02*
X-00201566Y00011997D01*
X-00207564Y00017996D02*
X-00235023Y00017996D01*
X-00232538Y00023994D02*
X-00213563Y00023994D01*
X-00219562Y00029993D02*
X-00231551Y00029993D01*
X-00231551Y00035991D02*
X-00225560Y00035991D01*
X-00230661Y00041990D02*
X-00231551Y00041990D01*
X-00230661Y00047988D02*
X-00232805Y00047988D01*
X-00230661Y00053987D02*
X-00235289Y00053987D01*
X-00237774Y00059985D02*
X-00231554Y00059985D01*
X-00237553Y00065984D02*
X-00242515Y00065984D01*
X-00243551Y00071982D02*
X-00248514Y00071982D01*
X-00249550Y00077981D02*
X-00258341Y00077981D01*
X-00255548Y00083979D02*
X-00299607Y00083979D01*
X-00305606Y00089978D02*
X-00290035Y00089978D01*
X-00304517Y00095976D02*
X-00311604Y00095976D01*
X-00310640Y00101975D02*
X-00317603Y00101975D01*
X-00316639Y00107973D02*
X-00323601Y00107973D01*
X-00326661Y00113972D02*
X-00319846Y00113972D01*
X-00322331Y00119970D02*
X-00326661Y00119970D01*
X-00326661Y00125969D02*
X-00324815Y00125969D01*
X-00324984Y00131968D02*
X-00326661Y00131968D01*
X-00326661Y00137966D02*
X-00324984Y00137966D01*
X-00324984Y00143965D02*
X-00326661Y00143965D01*
X-00326661Y00149963D02*
X-00322912Y00149963D01*
X-00320428Y00155962D02*
X-00325792Y00155962D01*
X-00319794Y00161960D02*
X-00317943Y00161960D01*
X-00313795Y00167959D02*
X-00312045Y00167959D01*
X-00307797Y00173957D02*
X-00306047Y00173957D01*
X-00301798Y00179956D02*
X-00293427Y00179956D01*
X-00295800Y00185954D02*
X-00113741Y00185954D01*
X-00113989Y00191953D02*
X-00107742Y00191953D01*
X-00112863Y00192419D02*
X-00105018Y00200265D01*
X-00100772Y00210515D01*
X-00100772Y00221611D01*
X-00105018Y00231861D01*
X-00112863Y00239707D01*
X-00123114Y00243953D01*
X-00134209Y00243953D01*
X-00144460Y00239707D01*
X-00152305Y00231861D01*
X-00156551Y00221611D01*
X-00156551Y00210515D01*
X-00152305Y00200265D01*
X-00144460Y00192419D01*
X-00134209Y00188173D01*
X-00123114Y00188173D01*
X-00112863Y00192419D01*
X-00107331Y00197951D02*
X-00101743Y00197951D01*
X-00103491Y00203950D02*
X-00095745Y00203950D01*
X-00101007Y00209948D02*
X-00089746Y00209948D01*
X-00083748Y00215947D02*
X-00100772Y00215947D01*
X-00100910Y00221945D02*
X-00077749Y00221945D01*
X-00071751Y00227944D02*
X-00103395Y00227944D01*
X-00107099Y00233942D02*
X-00065752Y00233942D01*
X-00068967Y00239941D02*
X-00059754Y00239941D01*
X-00057905Y00244523D02*
X-00044121Y00258307D01*
X-00036661Y00276316D01*
X-00036661Y00295810D01*
X-00044121Y00313819D01*
X-00057905Y00327603D01*
X-00075915Y00335063D01*
X-00095408Y00335063D01*
X-00113418Y00327603D01*
X-00127202Y00313819D01*
X-00134661Y00295810D01*
X-00134661Y00276316D01*
X-00127202Y00258307D01*
X-00113418Y00244523D01*
X-00095408Y00237063D01*
X-00075915Y00237063D01*
X-00057905Y00244523D01*
X-00056488Y00245939D02*
X-00053755Y00245939D01*
X-00050490Y00251938D02*
X-00047757Y00251938D01*
X-00044491Y00257937D02*
X-00041758Y00257937D01*
X-00041790Y00263935D02*
X-00038661Y00263935D01*
X-00039305Y00269934D02*
X-00035761Y00269934D01*
X-00036821Y00275932D02*
X-00029763Y00275932D01*
X-00023764Y00281931D02*
X-00036661Y00281931D01*
X-00036661Y00287929D02*
X-00020661Y00287929D01*
X-00020661Y00293928D02*
X-00036661Y00293928D01*
X-00038367Y00299926D02*
X-00018956Y00299926D01*
X-00016471Y00305925D02*
X-00040851Y00305925D01*
X-00043336Y00311923D02*
X-00013987Y00311923D01*
X-00009099Y00317922D02*
X-00048224Y00317922D01*
X-00054222Y00323920D02*
X-00003100Y00323920D01*
X00006173Y00329919D02*
X-00063496Y00329919D01*
X-00107827Y00329919D02*
X-00151835Y00329919D01*
X-00145836Y00335917D02*
X00273449Y00335917D01*
X00273449Y00330515D02*
X00273449Y00341611D01*
X00277695Y00351861D01*
X00285540Y00359707D01*
X00295791Y00363953D01*
X00306886Y00363953D01*
X00317137Y00359707D01*
X00324982Y00351861D01*
X00329228Y00341611D01*
X00329228Y00330515D01*
X00324982Y00320265D01*
X00317137Y00312419D01*
X00306886Y00308173D01*
X00295791Y00308173D01*
X00285540Y00312419D01*
X00277695Y00320265D01*
X00273449Y00330515D01*
X00273696Y00329919D02*
X00050504Y00329919D01*
X00059778Y00323920D02*
X00276180Y00323920D01*
X00280038Y00317922D02*
X00065776Y00317922D01*
X00070664Y00311923D02*
X00286737Y00311923D01*
X00295540Y00299707D02*
X00287695Y00291861D01*
X00283449Y00281611D01*
X00283449Y00270515D01*
X00287695Y00260265D01*
X00295540Y00252419D01*
X00305791Y00248173D01*
X00316886Y00248173D01*
X00327137Y00252419D01*
X00334982Y00260265D01*
X00339228Y00270515D01*
X00339228Y00281611D01*
X00334982Y00291861D01*
X00327137Y00299707D01*
X00316886Y00303953D01*
X00305791Y00303953D01*
X00295540Y00299707D01*
X00296070Y00299926D02*
X00075633Y00299926D01*
X00077338Y00293928D02*
X00289761Y00293928D01*
X00286066Y00287929D02*
X00077338Y00287929D01*
X00077338Y00281931D02*
X00283581Y00281931D01*
X00283449Y00275932D02*
X00077179Y00275932D01*
X00074695Y00269934D02*
X00283690Y00269934D01*
X00286174Y00263935D02*
X00072210Y00263935D01*
X00069508Y00257937D02*
X00290023Y00257937D01*
X00296702Y00251938D02*
X00063510Y00251938D01*
X00057511Y00245939D02*
X00362020Y00245939D01*
X00365540Y00242419D02*
X00357695Y00250265D01*
X00353449Y00260515D01*
X00353449Y00271611D01*
X00357695Y00281861D01*
X00365540Y00289707D01*
X00375791Y00293953D01*
X00386886Y00293953D01*
X00397137Y00289707D01*
X00403339Y00283505D01*
X00403339Y00436063D01*
X00402329Y00448891D01*
X00399354Y00458048D01*
X00343323Y00514078D01*
X00334166Y00517053D01*
X00321339Y00518063D01*
X-00278662Y00518063D01*
X-00291489Y00517053D01*
X-00300646Y00514078D01*
X-00356677Y00458048D01*
X-00359652Y00448891D01*
X-00360661Y00436063D01*
X-00360661Y-00363937D01*
X-00359652Y-00376765D01*
X-00356677Y-00385922D01*
X-00300646Y-00441952D01*
X-00291489Y-00444927D01*
X-00278662Y-00445937D01*
X00321339Y-00445937D01*
X00334166Y-00444927D01*
X00343323Y-00441952D01*
X00399354Y-00385922D01*
X00402329Y-00376765D01*
X00403339Y-00363937D01*
X00403339Y00188621D01*
X00397137Y00182419D01*
X00386886Y00178173D01*
X00375791Y00178173D01*
X00365540Y00182419D01*
X00357695Y00190265D01*
X00353449Y00200515D01*
X00353449Y00211611D01*
X00357695Y00221861D01*
X00365540Y00229707D01*
X00375791Y00233953D01*
X00386886Y00233953D01*
X00397137Y00229707D01*
X00403339Y00223505D01*
X00403339Y00248621D01*
X00397137Y00242419D01*
X00386886Y00238173D01*
X00375791Y00238173D01*
X00365540Y00242419D01*
X00371523Y00239941D02*
X00326571Y00239941D01*
X00327137Y00239707D02*
X00316886Y00243953D01*
X00305791Y00243953D01*
X00295540Y00239707D01*
X00287695Y00231861D01*
X00283449Y00221611D01*
X00283449Y00210515D01*
X00287695Y00200265D01*
X00295540Y00192419D01*
X00305791Y00188173D01*
X00316886Y00188173D01*
X00327137Y00192419D01*
X00334982Y00200265D01*
X00339228Y00210515D01*
X00339228Y00221611D01*
X00334982Y00231861D01*
X00327137Y00239707D01*
X00332901Y00233942D02*
X00375766Y00233942D01*
X00386911Y00233942D02*
X00403339Y00233942D01*
X00403339Y00227944D02*
X00398900Y00227944D01*
X00403339Y00239941D02*
X00391154Y00239941D01*
X00400657Y00245939D02*
X00403339Y00245939D01*
X00363777Y00227944D02*
X00336605Y00227944D01*
X00339090Y00221945D02*
X00357779Y00221945D01*
X00355245Y00215947D02*
X00339228Y00215947D01*
X00338993Y00209948D02*
X00353449Y00209948D01*
X00353449Y00203950D02*
X00336509Y00203950D01*
X00332669Y00197951D02*
X00354511Y00197951D01*
X00356995Y00191953D02*
X00326011Y00191953D01*
X00331025Y00182386D02*
X00312440Y00182386D01*
X00295269Y00175273D01*
X00282128Y00162132D01*
X00275016Y00144962D01*
X00275016Y00126377D01*
X00282128Y00109206D01*
X00295269Y00096065D01*
X00312440Y00088953D01*
X00331025Y00088953D01*
X00348195Y00096065D01*
X00361336Y00109206D01*
X00368449Y00126377D01*
X00368449Y00144962D01*
X00361336Y00162132D01*
X00348195Y00175273D01*
X00331025Y00182386D01*
X00336891Y00179956D02*
X00371487Y00179956D01*
X00362005Y00185954D02*
X00087429Y00185954D01*
X00089228Y00181611D02*
X00084982Y00191861D01*
X00077137Y00199707D01*
X00066886Y00203953D01*
X00055791Y00203953D01*
X00045540Y00199707D01*
X00037695Y00191861D01*
X00033449Y00181611D01*
X00033449Y00170515D01*
X00037695Y00160265D01*
X00045540Y00152419D01*
X00055791Y00148173D01*
X00066886Y00148173D01*
X00077137Y00152419D01*
X00084982Y00160265D01*
X00089228Y00170515D01*
X00089228Y00181611D01*
X00089228Y00179956D02*
X00306573Y00179956D01*
X00293953Y00173957D02*
X00089228Y00173957D01*
X00088169Y00167959D02*
X00287955Y00167959D01*
X00282057Y00161960D02*
X00085685Y00161960D01*
X00080679Y00155962D02*
X00279572Y00155962D01*
X00277087Y00149963D02*
X00235689Y00149963D01*
X00244879Y00143965D02*
X00275016Y00143965D01*
X00275016Y00137966D02*
X00249767Y00137966D01*
X00252252Y00131968D02*
X00275016Y00131968D01*
X00275185Y00125969D02*
X00253228Y00125969D01*
X00253228Y00119970D02*
X00277669Y00119970D01*
X00280154Y00113972D02*
X00252400Y00113972D01*
X00258398Y00107973D02*
X00283361Y00107973D01*
X00289359Y00101975D02*
X00264397Y00101975D01*
X00267338Y00095976D02*
X00295483Y00095976D01*
X00309965Y00089978D02*
X00267338Y00089978D01*
X00267338Y00083979D02*
X00403339Y00083979D01*
X00403339Y00077981D02*
X00341659Y00077981D01*
X00348195Y00075273D02*
X00331025Y00082386D01*
X00312440Y00082386D01*
X00295269Y00075273D01*
X00282128Y00062132D01*
X00275016Y00044962D01*
X00275016Y00026377D01*
X00282128Y00009206D01*
X00295269Y-00003935D01*
X00312440Y-00011047D01*
X00331025Y-00011047D01*
X00348195Y-00003935D01*
X00361336Y00009206D01*
X00368449Y00026377D01*
X00368449Y00044962D01*
X00361336Y00062132D01*
X00348195Y00075273D01*
X00351486Y00071982D02*
X00403339Y00071982D01*
X00403339Y00065984D02*
X00357485Y00065984D01*
X00362226Y00059985D02*
X00403339Y00059985D01*
X00403339Y00053987D02*
X00364711Y00053987D01*
X00367195Y00047988D02*
X00403339Y00047988D01*
X00403339Y00041990D02*
X00368449Y00041990D01*
X00368449Y00035991D02*
X00403339Y00035991D01*
X00403339Y00029993D02*
X00368449Y00029993D01*
X00367462Y00023994D02*
X00403339Y00023994D01*
X00403339Y00017996D02*
X00364977Y00017996D01*
X00362492Y00011997D02*
X00403339Y00011997D01*
X00403339Y00005999D02*
X00358128Y00005999D01*
X00352130Y00000000D02*
X00403339Y00000000D01*
X00403339Y-00005999D02*
X00343213Y-00005999D01*
X00331946Y-00017996D02*
X00403339Y-00017996D01*
X00403339Y-00023994D02*
X00346427Y-00023994D01*
X00348195Y-00024726D02*
X00331025Y-00017614D01*
X00312440Y-00017614D01*
X00295269Y-00024726D01*
X00282128Y-00037868D01*
X00275016Y-00055038D01*
X00275016Y-00073623D01*
X00282128Y-00090793D01*
X00295269Y-00103935D01*
X00312440Y-00111047D01*
X00331025Y-00111047D01*
X00348195Y-00103935D01*
X00361336Y-00090793D01*
X00368449Y-00073623D01*
X00368449Y-00055038D01*
X00361336Y-00037868D01*
X00348195Y-00024726D01*
X00353461Y-00029993D02*
X00403339Y-00029993D01*
X00403339Y-00035991D02*
X00359460Y-00035991D01*
X00363044Y-00041990D02*
X00403339Y-00041990D01*
X00403339Y-00047988D02*
X00365529Y-00047988D01*
X00368013Y-00053987D02*
X00403339Y-00053987D01*
X00403339Y-00059985D02*
X00368449Y-00059985D01*
X00368449Y-00065984D02*
X00403339Y-00065984D01*
X00403339Y-00071982D02*
X00368449Y-00071982D01*
X00366644Y-00077981D02*
X00403339Y-00077981D01*
X00403339Y-00083979D02*
X00364159Y-00083979D01*
X00361674Y-00089978D02*
X00403339Y-00089978D01*
X00403339Y-00095976D02*
X00356154Y-00095976D01*
X00350155Y-00101975D02*
X00403339Y-00101975D01*
X00403339Y-00107973D02*
X00338445Y-00107973D01*
X00336713Y-00119970D02*
X00403339Y-00119970D01*
X00403339Y-00113972D02*
X00267338Y-00113972D01*
X00267338Y-00107973D02*
X00305019Y-00107973D01*
X00306751Y-00119970D02*
X00267338Y-00119970D01*
X00267338Y-00125969D02*
X00294027Y-00125969D01*
X00295269Y-00124726D02*
X00282128Y-00137868D01*
X00275016Y-00155038D01*
X00275016Y-00173623D01*
X00282128Y-00190793D01*
X00295269Y-00203935D01*
X00312440Y-00211047D01*
X00331025Y-00211047D01*
X00348195Y-00203935D01*
X00361336Y-00190793D01*
X00368449Y-00173623D01*
X00368449Y-00155038D01*
X00361336Y-00137868D01*
X00348195Y-00124726D01*
X00331025Y-00117614D01*
X00312440Y-00117614D01*
X00295269Y-00124726D01*
X00288028Y-00131968D02*
X00267338Y-00131968D01*
X00267338Y-00137966D02*
X00282087Y-00137966D01*
X00279603Y-00143965D02*
X00267338Y-00143965D01*
X00267338Y-00149963D02*
X00277118Y-00149963D01*
X00275016Y-00155962D02*
X00267338Y-00155962D01*
X00267338Y-00161960D02*
X00275016Y-00161960D01*
X00275016Y-00167959D02*
X00267338Y-00167959D01*
X00267338Y-00173957D02*
X00275154Y-00173957D01*
X00277639Y-00179956D02*
X00267338Y-00179956D01*
X00267338Y-00185954D02*
X00280123Y-00185954D01*
X00283287Y-00191953D02*
X00267338Y-00191953D01*
X00267338Y-00197951D02*
X00289286Y-00197951D01*
X00295305Y-00203950D02*
X00267338Y-00203950D01*
X00267338Y-00209948D02*
X00309787Y-00209948D01*
X00309856Y-00214863D02*
X00302264Y-00217330D01*
X00295151Y-00220954D01*
X00288693Y-00225646D01*
X00283048Y-00231291D01*
X00278356Y-00237749D01*
X00274731Y-00244862D01*
X00272265Y-00252454D01*
X00271016Y-00260339D01*
X00271016Y-00261331D01*
X00318732Y-00261331D01*
X00318732Y-00267330D01*
X00271016Y-00267330D01*
X00271016Y-00268322D01*
X00272265Y-00276207D01*
X00274731Y-00283799D01*
X00278356Y-00290912D01*
X00283048Y-00297370D01*
X00288693Y-00303015D01*
X00295151Y-00307707D01*
X00302264Y-00311331D01*
X00309856Y-00313798D01*
X00317741Y-00315047D01*
X00318732Y-00315047D01*
X00318732Y-00267331D01*
X00324732Y-00267331D01*
X00324732Y-00315047D01*
X00325724Y-00315047D01*
X00333608Y-00313798D01*
X00341201Y-00311331D01*
X00348313Y-00307707D01*
X00354772Y-00303015D01*
X00360417Y-00297370D01*
X00365109Y-00290912D01*
X00368733Y-00283799D01*
X00371200Y-00276207D01*
X00372449Y-00268322D01*
X00372449Y-00267330D01*
X00324733Y-00267330D01*
X00324733Y-00261331D01*
X00372449Y-00261331D01*
X00372449Y-00260339D01*
X00371200Y-00252454D01*
X00368733Y-00244862D01*
X00365109Y-00237749D01*
X00360417Y-00231291D01*
X00354772Y-00225646D01*
X00348313Y-00220954D01*
X00341201Y-00217330D01*
X00333608Y-00214863D01*
X00325724Y-00213614D01*
X00324732Y-00213614D01*
X00324732Y-00261330D01*
X00318732Y-00261330D01*
X00318732Y-00213614D01*
X00317741Y-00213614D01*
X00309856Y-00214863D01*
X00306520Y-00215947D02*
X00267338Y-00215947D01*
X00267338Y-00221945D02*
X00293787Y-00221945D01*
X00286395Y-00227944D02*
X00267338Y-00227944D01*
X00267338Y-00233942D02*
X00281122Y-00233942D01*
X00277239Y-00239941D02*
X00267338Y-00239941D01*
X00267338Y-00245939D02*
X00274381Y-00245939D01*
X00272432Y-00251938D02*
X00267338Y-00251938D01*
X00267338Y-00257937D02*
X00271396Y-00257937D01*
X00267338Y-00263935D02*
X00318732Y-00263935D01*
X00318732Y-00269934D02*
X00324732Y-00269934D01*
X00324732Y-00275932D02*
X00318732Y-00275932D01*
X00318732Y-00281931D02*
X00324732Y-00281931D01*
X00324732Y-00287929D02*
X00318732Y-00287929D01*
X00318732Y-00293928D02*
X00324732Y-00293928D01*
X00324732Y-00299926D02*
X00318732Y-00299926D01*
X00318732Y-00305925D02*
X00324732Y-00305925D01*
X00324732Y-00311923D02*
X00318732Y-00311923D01*
X00311697Y-00317922D02*
X00294294Y-00317922D01*
X00288295Y-00311923D02*
X00304085Y-00311923D01*
X00292697Y-00305925D02*
X00282297Y-00305925D01*
X00285604Y-00299926D02*
X00276298Y-00299926D01*
X00280547Y-00293928D02*
X00270300Y-00293928D01*
X00267338Y-00287929D02*
X00276836Y-00287929D01*
X00274124Y-00281931D02*
X00267338Y-00281931D01*
X00267338Y-00275932D02*
X00272221Y-00275932D01*
X00271271Y-00269934D02*
X00267338Y-00269934D01*
X00243339Y-00263935D02*
X-00231945Y-00263935D01*
X-00231945Y-00269934D02*
X-00003591Y-00269934D01*
X-00010099Y-00275932D02*
X-00054602Y-00275932D01*
X-00056953Y-00275168D02*
X-00064726Y-00273937D01*
X-00065661Y-00273937D01*
X-00065661Y-00320936D01*
X-00071661Y-00320936D01*
X-00071661Y-00273937D01*
X-00072596Y-00273937D01*
X-00080370Y-00275168D01*
X-00087855Y-00277600D01*
X-00094867Y-00281173D01*
X-00101234Y-00285799D01*
X-00106799Y-00291364D01*
X-00111425Y-00297731D01*
X-00114998Y-00304744D01*
X-00117430Y-00312229D01*
X-00118661Y-00320002D01*
X-00118661Y-00320937D01*
X-00071662Y-00320937D01*
X-00071662Y-00326937D01*
X-00118661Y-00326937D01*
X-00118661Y-00327872D01*
X-00117430Y-00335645D01*
X-00114998Y-00343130D01*
X-00111425Y-00350143D01*
X-00106799Y-00356510D01*
X-00101234Y-00362075D01*
X-00094867Y-00366701D01*
X-00087855Y-00370274D01*
X-00080370Y-00372706D01*
X-00072596Y-00373937D01*
X-00071661Y-00373937D01*
X-00071661Y-00326938D01*
X-00065661Y-00326938D01*
X-00065661Y-00373937D01*
X-00064726Y-00373937D01*
X-00056953Y-00372706D01*
X-00049468Y-00370274D01*
X-00042456Y-00366701D01*
X-00036089Y-00362075D01*
X-00030523Y-00356510D01*
X-00025898Y-00350143D01*
X-00022325Y-00343130D01*
X-00019893Y-00335645D01*
X-00018661Y-00327872D01*
X-00018661Y-00326937D01*
X-00065661Y-00326937D01*
X-00065661Y-00320937D01*
X-00018661Y-00320937D01*
X-00018661Y-00320002D01*
X-00019893Y-00312229D01*
X-00022325Y-00304744D01*
X-00025898Y-00297731D01*
X-00030523Y-00291364D01*
X-00036089Y-00285799D01*
X-00042456Y-00281173D01*
X-00049468Y-00277600D01*
X-00056953Y-00275168D01*
X-00065661Y-00275932D02*
X-00071661Y-00275932D01*
X-00071661Y-00281931D02*
X-00065661Y-00281931D01*
X-00065661Y-00287929D02*
X-00071661Y-00287929D01*
X-00071661Y-00293928D02*
X-00065661Y-00293928D01*
X-00065661Y-00299926D02*
X-00071661Y-00299926D01*
X-00071661Y-00305925D02*
X-00065661Y-00305925D01*
X-00065661Y-00311923D02*
X-00071661Y-00311923D01*
X-00071661Y-00317922D02*
X-00065661Y-00317922D01*
X-00065661Y-00323920D02*
X00098338Y-00323920D01*
X00051668Y-00317922D02*
X00026313Y-00317922D01*
X00032794Y-00311923D02*
X00052669Y-00311923D01*
X00054618Y-00305925D02*
X00036561Y-00305925D01*
X00039045Y-00299926D02*
X00057456Y-00299926D01*
X00061338Y-00293928D02*
X00039228Y-00293928D01*
X00039038Y-00287929D02*
X00066636Y-00287929D01*
X00074090Y-00281931D02*
X00036553Y-00281931D01*
X00032776Y-00275932D02*
X00087279Y-00275932D01*
X00051663Y-00329919D02*
X-00018986Y-00329919D01*
X-00019981Y-00335917D02*
X00052658Y-00335917D01*
X00054607Y-00341916D02*
X00028759Y-00341916D01*
X00034758Y-00347914D02*
X00057439Y-00347914D01*
X00061314Y-00353913D02*
X00037374Y-00353913D01*
X00039228Y-00359911D02*
X00066602Y-00359911D01*
X00074044Y-00365910D02*
X00039228Y-00365910D01*
X00038224Y-00371908D02*
X00087176Y-00371908D01*
X-00008135Y-00383906D02*
X-00231321Y-00383906D01*
X-00229352Y-00377907D02*
X-00013063Y-00377907D01*
X-00015547Y-00371908D02*
X-00054499Y-00371908D01*
X-00065661Y-00371908D02*
X-00071661Y-00371908D01*
X-00071661Y-00365910D02*
X-00065661Y-00365910D01*
X-00065661Y-00359911D02*
X-00071661Y-00359911D01*
X-00071661Y-00353913D02*
X-00065661Y-00353913D01*
X-00065661Y-00347914D02*
X-00071661Y-00347914D01*
X-00071661Y-00341916D02*
X-00065661Y-00341916D01*
X-00065661Y-00335917D02*
X-00071661Y-00335917D01*
X-00071661Y-00329919D02*
X-00065661Y-00329919D01*
X-00071662Y-00323920D02*
X-00122661Y-00323920D01*
X-00122661Y-00317922D02*
X-00118332Y-00317922D01*
X-00117331Y-00311923D02*
X-00123848Y-00311923D01*
X-00126332Y-00305925D02*
X-00115382Y-00305925D01*
X-00112544Y-00299926D02*
X-00128817Y-00299926D01*
X-00133617Y-00293928D02*
X-00108662Y-00293928D01*
X-00103364Y-00287929D02*
X-00139615Y-00287929D01*
X-00149870Y-00281931D02*
X-00095910Y-00281931D01*
X-00082721Y-00275932D02*
X-00233064Y-00275932D01*
X-00235549Y-00281931D02*
X-00187453Y-00281931D01*
X-00197707Y-00287929D02*
X-00238034Y-00287929D01*
X-00242585Y-00293928D02*
X-00203706Y-00293928D01*
X-00208506Y-00299926D02*
X-00248584Y-00299926D01*
X-00257953Y-00305925D02*
X-00210990Y-00305925D01*
X-00231945Y-00257937D02*
X00243339Y-00257937D01*
X00243339Y-00251938D02*
X-00233066Y-00251938D01*
X-00235551Y-00245939D02*
X-00096101Y-00245939D01*
X-00094460Y-00247581D02*
X-00084209Y-00251827D01*
X-00073114Y-00251827D01*
X-00062863Y-00247581D01*
X-00055018Y-00239735D01*
X-00050772Y-00229485D01*
X-00050772Y-00218389D01*
X-00055018Y-00208139D01*
X-00062863Y-00200293D01*
X-00073114Y-00196047D01*
X-00084209Y-00196047D01*
X-00094460Y-00200293D01*
X-00102305Y-00208139D01*
X-00106551Y-00218389D01*
X-00106551Y-00229485D01*
X-00102305Y-00239735D01*
X-00094460Y-00247581D01*
X-00102099Y-00239941D02*
X-00208561Y-00239941D01*
X-00213114Y-00241827D02*
X-00202863Y-00237581D01*
X-00195018Y-00229735D01*
X-00190772Y-00219485D01*
X-00190772Y-00208389D01*
X-00195018Y-00198139D01*
X-00202863Y-00190293D01*
X-00213114Y-00186047D01*
X-00224209Y-00186047D01*
X-00234460Y-00190293D01*
X-00242305Y-00198139D01*
X-00246551Y-00208389D01*
X-00246551Y-00219485D01*
X-00242305Y-00229735D01*
X-00234460Y-00237581D01*
X-00224209Y-00241827D01*
X-00213114Y-00241827D01*
X-00228762Y-00239941D02*
X-00238035Y-00239941D01*
X-00238098Y-00233942D02*
X-00242589Y-00233942D01*
X-00243047Y-00227944D02*
X-00248587Y-00227944D01*
X-00245532Y-00221945D02*
X-00257962Y-00221945D01*
X-00246551Y-00215947D02*
X-00360661Y-00215947D01*
X-00267667Y-00209948D02*
X-00246551Y-00209948D01*
X-00244712Y-00203950D02*
X-00253185Y-00203950D01*
X-00246609Y-00197951D02*
X-00242118Y-00197951D01*
X-00240610Y-00191953D02*
X-00236119Y-00191953D01*
X-00237216Y-00185954D02*
X-00096086Y-00185954D01*
X-00094460Y-00187581D02*
X-00084209Y-00191827D01*
X-00073114Y-00191827D01*
X-00062863Y-00187581D01*
X-00055018Y-00179735D01*
X-00050772Y-00169485D01*
X-00050772Y-00158389D01*
X-00055018Y-00148139D01*
X-00062863Y-00140293D01*
X-00073114Y-00136047D01*
X-00084209Y-00136047D01*
X-00094460Y-00140293D01*
X-00102305Y-00148139D01*
X-00106551Y-00158389D01*
X-00106551Y-00169485D01*
X-00102305Y-00179735D01*
X-00094460Y-00187581D01*
X-00102085Y-00179956D02*
X-00198597Y-00179956D01*
X-00189240Y-00173957D02*
X-00104699Y-00173957D01*
X-00106551Y-00167959D02*
X-00184282Y-00167959D01*
X-00181797Y-00161960D02*
X-00106551Y-00161960D01*
X-00105545Y-00155962D02*
X-00180772Y-00155962D01*
X-00180772Y-00149963D02*
X-00103061Y-00149963D01*
X-00098131Y-00143965D02*
X-00182604Y-00143965D01*
X-00185190Y-00137966D02*
X-00088841Y-00137966D01*
X-00068481Y-00137966D02*
X-00051603Y-00137966D01*
X-00057601Y-00131968D02*
X-00191189Y-00131968D01*
X-00226134Y-00131968D02*
X-00244564Y-00131968D01*
X-00238853Y-00137966D02*
X-00232133Y-00137966D01*
X-00234718Y-00143965D02*
X-00236369Y-00143965D01*
X-00250562Y-00125969D02*
X-00063600Y-00125969D01*
X-00069598Y-00119970D02*
X-00262730Y-00119970D01*
X-00261555Y-00107973D02*
X-00081595Y-00107973D01*
X-00075597Y-00113972D02*
X-00360661Y-00113972D01*
X-00249845Y-00101975D02*
X-00087594Y-00101975D01*
X-00093592Y-00095976D02*
X-00243846Y-00095976D01*
X-00238326Y-00089978D02*
X-00099591Y-00089978D01*
X-00105589Y-00083979D02*
X-00235841Y-00083979D01*
X-00233356Y-00077981D02*
X-00111588Y-00077981D01*
X-00117586Y-00071982D02*
X-00231551Y-00071982D01*
X-00231551Y-00065984D02*
X-00123585Y-00065984D01*
X-00129584Y-00059985D02*
X-00231551Y-00059985D01*
X-00231987Y-00053987D02*
X-00135582Y-00053987D01*
X-00141581Y-00047988D02*
X-00234471Y-00047988D01*
X-00236956Y-00041990D02*
X-00147579Y-00041990D01*
X-00153578Y-00035991D02*
X-00240540Y-00035991D01*
X-00246539Y-00029993D02*
X-00159576Y-00029993D01*
X-00165575Y-00023994D02*
X-00253573Y-00023994D01*
X-00268054Y-00017996D02*
X-00171573Y-00017996D01*
X-00155628Y00000000D02*
X-00113076Y00000000D01*
X-00115561Y-00005999D02*
X-00149629Y-00005999D01*
X-00143631Y-00011997D02*
X-00116551Y-00011997D01*
X-00116551Y-00017996D02*
X-00137632Y-00017996D01*
X-00131634Y-00023994D02*
X-00114683Y-00023994D01*
X-00112048Y-00029993D02*
X-00125635Y-00029993D01*
X-00119637Y-00035991D02*
X-00106049Y-00035991D01*
X-00113638Y-00041990D02*
X00059449Y-00041990D01*
X00059449Y-00047988D02*
X-00107640Y-00047988D01*
X-00101641Y-00053987D02*
X00061314Y-00053987D01*
X00063945Y-00059985D02*
X-00095643Y-00059985D01*
X-00089644Y-00065984D02*
X00069943Y-00065984D01*
X00075339Y-00071982D02*
X-00083646Y-00071982D01*
X-00077647Y-00077981D02*
X00075339Y-00077981D01*
X00075339Y-00083979D02*
X-00071649Y-00083979D01*
X-00065650Y-00089978D02*
X00075339Y-00089978D01*
X00075339Y-00095976D02*
X-00059652Y-00095976D01*
X-00053653Y-00101975D02*
X00072330Y-00101975D01*
X00066332Y-00107973D02*
X-00047655Y-00107973D01*
X-00041656Y-00113972D02*
X00060333Y-00113972D01*
X00054335Y-00119970D02*
X-00035657Y-00119970D01*
X-00029659Y-00125969D02*
X00048336Y-00125969D01*
X00042337Y-00131968D02*
X-00023660Y-00131968D01*
X-00045604Y-00143965D02*
X-00059192Y-00143965D01*
X-00054262Y-00149963D02*
X-00039606Y-00149963D01*
X-00035545Y-00155962D02*
X-00051777Y-00155962D01*
X-00050772Y-00161960D02*
X-00036551Y-00161960D01*
X-00036551Y-00167959D02*
X-00050772Y-00167959D01*
X-00052624Y-00173957D02*
X-00034699Y-00173957D01*
X-00032085Y-00179956D02*
X-00055238Y-00179956D01*
X-00061237Y-00185954D02*
X-00032161Y-00185954D01*
X-00032161Y-00191953D02*
X-00201203Y-00191953D01*
X-00195205Y-00197951D02*
X-00088806Y-00197951D01*
X-00098116Y-00203950D02*
X-00192610Y-00203950D01*
X-00190772Y-00209948D02*
X-00103055Y-00209948D01*
X-00105539Y-00215947D02*
X-00190772Y-00215947D01*
X-00191791Y-00221945D02*
X-00106551Y-00221945D01*
X-00106551Y-00227944D02*
X-00194276Y-00227944D01*
X-00199225Y-00233942D02*
X-00104705Y-00233942D01*
X-00061222Y-00245939D02*
X-00028887Y-00245939D01*
X-00032161Y-00239941D02*
X-00055223Y-00239941D01*
X-00052618Y-00233942D02*
X-00032161Y-00233942D01*
X-00032161Y-00227944D02*
X-00050772Y-00227944D01*
X-00050772Y-00221945D02*
X-00032161Y-00221945D01*
X-00032161Y-00215947D02*
X-00051783Y-00215947D01*
X-00054268Y-00209948D02*
X-00032161Y-00209948D01*
X-00032161Y-00203950D02*
X-00059206Y-00203950D01*
X-00068517Y-00197951D02*
X-00032161Y-00197951D01*
X-00010661Y-00213937D02*
X-00008661Y-00211937D01*
X-00008661Y-00163937D01*
X-00218661Y00046063D01*
X-00218661Y00064063D01*
X-00230661Y00076063D01*
X-00158661Y00148063D01*
X-00134661Y00148063D01*
X-00026661Y00256063D01*
X-00026661Y00262063D01*
X-00002661Y00286063D01*
X00028339Y00286063D01*
X-00006833Y00251938D02*
X-00014661Y00251938D01*
X-00013817Y00257937D02*
X-00012831Y00257937D01*
X-00019814Y00245939D02*
X-00000834Y00245939D01*
X00011644Y00239941D02*
X-00025813Y00239941D01*
X-00031811Y00233942D02*
X00289776Y00233942D01*
X00286072Y00227944D02*
X-00037810Y00227944D01*
X-00043808Y00221945D02*
X00283588Y00221945D01*
X00283449Y00215947D02*
X-00049807Y00215947D01*
X-00055805Y00209948D02*
X00283684Y00209948D01*
X00286168Y00203950D02*
X00066893Y00203950D01*
X00055784Y00203950D02*
X-00061804Y00203950D01*
X-00067803Y00197951D02*
X00043785Y00197951D01*
X00037786Y00191953D02*
X-00073801Y00191953D01*
X-00079800Y00185954D02*
X00035248Y00185954D01*
X00033449Y00179956D02*
X-00085798Y00179956D01*
X-00091797Y00173957D02*
X00033449Y00173957D01*
X00034508Y00167959D02*
X-00097795Y00167959D01*
X-00103794Y00161960D02*
X00036992Y00161960D01*
X00041998Y00155962D02*
X-00109792Y00155962D01*
X-00115791Y00149963D02*
X00051470Y00149963D01*
X00046886Y00143953D02*
X00057137Y00139707D01*
X00064982Y00131861D01*
X00069228Y00121611D01*
X00069228Y00110515D01*
X00064982Y00100265D01*
X00057137Y00092419D01*
X00046886Y00088173D01*
X00035791Y00088173D01*
X00025540Y00092419D01*
X00017695Y00100265D01*
X00013449Y00110515D01*
X00013449Y00121611D01*
X00017695Y00131861D01*
X00025540Y00139707D01*
X00035791Y00143953D01*
X00046886Y00143953D01*
X00058877Y00137966D02*
X00200910Y00137966D01*
X00198425Y00131968D02*
X00111679Y00131968D01*
X00106886Y00133953D02*
X00095791Y00133953D01*
X00085540Y00129707D01*
X00077695Y00121861D01*
X00073449Y00111611D01*
X00073449Y00100515D01*
X00077695Y00090265D01*
X00085540Y00082419D01*
X00095791Y00078173D01*
X00106886Y00078173D01*
X00117137Y00082419D01*
X00124982Y00090265D01*
X00129228Y00100515D01*
X00129228Y00111611D01*
X00124982Y00121861D01*
X00117137Y00129707D01*
X00106886Y00133953D01*
X00090998Y00131968D02*
X00064876Y00131968D01*
X00067423Y00125969D02*
X00081803Y00125969D01*
X00076912Y00119970D02*
X00069228Y00119970D01*
X00069228Y00113972D02*
X00074427Y00113972D01*
X00073449Y00107973D02*
X00068175Y00107973D01*
X00065691Y00101975D02*
X00073449Y00101975D01*
X00075329Y00095976D02*
X00060694Y00095976D01*
X00051243Y00089978D02*
X00077982Y00089978D01*
X00083980Y00083979D02*
X-00066809Y00083979D01*
X-00064661Y00077981D02*
X00243339Y00077981D01*
X00243339Y00083979D02*
X00118697Y00083979D01*
X00124695Y00089978D02*
X00242453Y00089978D01*
X00236455Y00095976D02*
X00127348Y00095976D01*
X00129228Y00101975D02*
X00207984Y00101975D01*
X00201986Y00107973D02*
X00129228Y00107973D01*
X00128250Y00113972D02*
X00199331Y00113972D01*
X00197449Y00119970D02*
X00125766Y00119970D01*
X00120875Y00125969D02*
X00197449Y00125969D01*
X00205798Y00143965D02*
X-00121789Y00143965D01*
X-00127788Y00137966D02*
X00023800Y00137966D01*
X00017801Y00131968D02*
X-00157786Y00131968D01*
X-00163785Y00125969D02*
X-00151275Y00125969D01*
X-00165264Y00119970D02*
X-00169783Y00119970D01*
X-00171262Y00113972D02*
X-00175782Y00113972D01*
X-00177261Y00107973D02*
X-00181780Y00107973D01*
X-00183059Y00101975D02*
X-00187779Y00101975D01*
X-00185544Y00095976D02*
X-00193777Y00095976D01*
X-00188029Y00089978D02*
X-00199776Y00089978D01*
X-00205774Y00083979D02*
X-00190513Y00083979D01*
X-00192661Y00077981D02*
X-00211773Y00077981D01*
X-00209610Y00071982D02*
X-00192661Y00071982D01*
X-00192661Y00065984D02*
X-00206661Y00065984D01*
X-00206661Y00059985D02*
X-00192661Y00059985D01*
X-00192661Y00053987D02*
X-00206661Y00053987D01*
X-00203616Y00047988D02*
X-00190448Y00047988D01*
X-00187963Y00041990D02*
X-00197618Y00041990D01*
X-00191619Y00035991D02*
X-00185478Y00035991D01*
X-00185621Y00029993D02*
X-00182994Y00029993D01*
X-00179622Y00023994D02*
X-00177102Y00023994D01*
X-00173624Y00017996D02*
X-00171104Y00017996D01*
X-00167625Y00011997D02*
X-00165105Y00011997D01*
X-00161626Y00005999D02*
X-00150893Y00005999D01*
X-00086219Y00017996D02*
X00243339Y00017996D01*
X00243339Y00023994D02*
X-00080221Y00023994D01*
X-00074329Y00029993D02*
X00243339Y00029993D01*
X00243339Y00035991D02*
X-00071844Y00035991D01*
X-00069360Y00041990D02*
X00243339Y00041990D01*
X00243339Y00047988D02*
X-00066875Y00047988D01*
X-00064661Y00053987D02*
X00243339Y00053987D01*
X00243339Y00059985D02*
X-00064661Y00059985D01*
X-00064661Y00065984D02*
X00243339Y00065984D01*
X00243339Y00071982D02*
X-00064661Y00071982D01*
X-00069294Y00089978D02*
X00031434Y00089978D01*
X00021983Y00095976D02*
X-00071779Y00095976D01*
X-00074263Y00101975D02*
X00016986Y00101975D01*
X00014502Y00107973D02*
X-00080062Y00107973D01*
X-00086061Y00113972D02*
X00013449Y00113972D01*
X00013449Y00119970D02*
X-00092059Y00119970D01*
X-00106047Y00125969D02*
X00015254Y00125969D01*
X00071207Y00149963D02*
X00214988Y00149963D01*
X00225339Y00124063D02*
X00255339Y00094063D01*
X00255339Y-00295937D01*
X00321339Y-00361937D01*
X00321732Y-00364331D01*
X00364189Y-00383906D02*
X00400009Y-00383906D01*
X00401958Y-00377907D02*
X00366674Y-00377907D01*
X00368449Y-00371908D02*
X00402711Y-00371908D01*
X00403183Y-00365910D02*
X00368449Y-00365910D01*
X00368449Y-00359911D02*
X00403339Y-00359911D01*
X00403339Y-00353913D02*
X00367983Y-00353913D01*
X00365498Y-00347914D02*
X00403339Y-00347914D01*
X00403339Y-00341916D02*
X00363013Y-00341916D01*
X00359386Y-00335917D02*
X00403339Y-00335917D01*
X00403339Y-00329919D02*
X00353387Y-00329919D01*
X00346249Y-00323920D02*
X00403339Y-00323920D01*
X00403339Y-00317922D02*
X00331767Y-00317922D01*
X00339379Y-00311923D02*
X00403339Y-00311923D01*
X00403339Y-00305925D02*
X00350767Y-00305925D01*
X00357861Y-00299926D02*
X00403339Y-00299926D01*
X00403339Y-00293928D02*
X00362918Y-00293928D01*
X00366629Y-00287929D02*
X00403339Y-00287929D01*
X00403339Y-00281931D02*
X00369340Y-00281931D01*
X00371243Y-00275932D02*
X00403339Y-00275932D01*
X00403339Y-00269934D02*
X00372193Y-00269934D01*
X00372068Y-00257937D02*
X00403339Y-00257937D01*
X00403339Y-00263935D02*
X00324733Y-00263935D01*
X00324732Y-00257937D02*
X00318732Y-00257937D01*
X00318732Y-00251938D02*
X00324732Y-00251938D01*
X00324732Y-00245939D02*
X00318732Y-00245939D01*
X00318732Y-00239941D02*
X00324732Y-00239941D01*
X00324732Y-00233942D02*
X00318732Y-00233942D01*
X00318732Y-00227944D02*
X00324732Y-00227944D01*
X00324732Y-00221945D02*
X00318732Y-00221945D01*
X00318732Y-00215947D02*
X00324732Y-00215947D01*
X00333677Y-00209948D02*
X00403339Y-00209948D01*
X00403339Y-00203950D02*
X00348159Y-00203950D01*
X00354179Y-00197951D02*
X00403339Y-00197951D01*
X00403339Y-00191953D02*
X00360177Y-00191953D01*
X00363341Y-00185954D02*
X00403339Y-00185954D01*
X00403339Y-00179956D02*
X00365826Y-00179956D01*
X00368310Y-00173957D02*
X00403339Y-00173957D01*
X00403339Y-00167959D02*
X00368449Y-00167959D01*
X00368449Y-00161960D02*
X00403339Y-00161960D01*
X00403339Y-00155962D02*
X00368449Y-00155962D01*
X00366347Y-00149963D02*
X00403339Y-00149963D01*
X00403339Y-00143965D02*
X00363862Y-00143965D01*
X00361377Y-00137966D02*
X00403339Y-00137966D01*
X00403339Y-00131968D02*
X00355436Y-00131968D01*
X00349438Y-00125969D02*
X00403339Y-00125969D01*
X00293309Y-00101975D02*
X00267338Y-00101975D01*
X00267338Y-00095976D02*
X00287311Y-00095976D01*
X00281790Y-00089978D02*
X00267338Y-00089978D01*
X00267338Y-00083979D02*
X00279305Y-00083979D01*
X00276821Y-00077981D02*
X00267338Y-00077981D01*
X00267338Y-00071982D02*
X00275016Y-00071982D01*
X00275016Y-00065984D02*
X00267338Y-00065984D01*
X00267338Y-00059985D02*
X00275016Y-00059985D01*
X00275451Y-00053987D02*
X00267338Y-00053987D01*
X00267338Y-00047988D02*
X00277936Y-00047988D01*
X00280421Y-00041990D02*
X00267338Y-00041990D01*
X00267338Y-00035991D02*
X00284005Y-00035991D01*
X00290003Y-00029993D02*
X00267338Y-00029993D01*
X00267338Y-00023994D02*
X00297037Y-00023994D01*
X00311519Y-00017996D02*
X00267338Y-00017996D01*
X00267338Y-00011997D02*
X00403339Y-00011997D01*
X00300251Y-00005999D02*
X00267338Y-00005999D01*
X00267338Y00000000D02*
X00291334Y00000000D01*
X00285336Y00005999D02*
X00267338Y00005999D01*
X00267338Y00011997D02*
X00280972Y00011997D01*
X00278487Y00017996D02*
X00267338Y00017996D01*
X00267338Y00023994D02*
X00276003Y00023994D01*
X00275016Y00029993D02*
X00267338Y00029993D01*
X00267338Y00035991D02*
X00275016Y00035991D01*
X00275016Y00041990D02*
X00267338Y00041990D01*
X00267338Y00047988D02*
X00276269Y00047988D01*
X00278754Y00053987D02*
X00267338Y00053987D01*
X00267338Y00059985D02*
X00281239Y00059985D01*
X00285980Y00065984D02*
X00267338Y00065984D01*
X00267338Y00071982D02*
X00291978Y00071982D01*
X00301805Y00077981D02*
X00267338Y00077981D01*
X00333500Y00089978D02*
X00403339Y00089978D01*
X00403339Y00095976D02*
X00347981Y00095976D01*
X00354105Y00101975D02*
X00403339Y00101975D01*
X00403339Y00107973D02*
X00360103Y00107973D01*
X00363310Y00113972D02*
X00403339Y00113972D01*
X00403339Y00119970D02*
X00365795Y00119970D01*
X00368280Y00125969D02*
X00403339Y00125969D01*
X00403339Y00131968D02*
X00368449Y00131968D01*
X00368449Y00137966D02*
X00403339Y00137966D01*
X00403339Y00143965D02*
X00368449Y00143965D01*
X00366377Y00149963D02*
X00403339Y00149963D01*
X00403339Y00155962D02*
X00363892Y00155962D01*
X00361408Y00161960D02*
X00403339Y00161960D01*
X00403339Y00167959D02*
X00355510Y00167959D01*
X00349511Y00173957D02*
X00403339Y00173957D01*
X00403339Y00179956D02*
X00391189Y00179956D01*
X00400672Y00185954D02*
X00403339Y00185954D01*
X00357002Y00251938D02*
X00325975Y00251938D01*
X00332654Y00257937D02*
X00354517Y00257937D01*
X00353449Y00263935D02*
X00336503Y00263935D01*
X00338987Y00269934D02*
X00353449Y00269934D01*
X00355239Y00275932D02*
X00339228Y00275932D01*
X00339096Y00281931D02*
X00357764Y00281931D01*
X00363763Y00287929D02*
X00336611Y00287929D01*
X00332916Y00293928D02*
X00375731Y00293928D01*
X00386947Y00293928D02*
X00403339Y00293928D01*
X00403339Y00299926D02*
X00326607Y00299926D01*
X00315939Y00311923D02*
X00356737Y00311923D01*
X00355540Y00312419D02*
X00365791Y00308173D01*
X00376886Y00308173D01*
X00387137Y00312419D01*
X00394982Y00320265D01*
X00399228Y00330515D01*
X00399228Y00341611D01*
X00394982Y00351861D01*
X00387137Y00359707D01*
X00376886Y00363953D01*
X00365791Y00363953D01*
X00355540Y00359707D01*
X00347695Y00351861D01*
X00343449Y00341611D01*
X00343449Y00330515D01*
X00347695Y00320265D01*
X00355540Y00312419D01*
X00350038Y00317922D02*
X00322639Y00317922D01*
X00326496Y00323920D02*
X00346180Y00323920D01*
X00343696Y00329919D02*
X00328981Y00329919D01*
X00329228Y00335917D02*
X00343449Y00335917D01*
X00343575Y00341916D02*
X00329102Y00341916D01*
X00326617Y00347914D02*
X00346060Y00347914D01*
X00349746Y00353913D02*
X00322931Y00353913D01*
X00316643Y00359911D02*
X00356035Y00359911D01*
X00386643Y00359911D02*
X00403339Y00359911D01*
X00403339Y00353913D02*
X00392931Y00353913D01*
X00396617Y00347914D02*
X00403339Y00347914D01*
X00403339Y00341916D02*
X00399102Y00341916D01*
X00399228Y00335917D02*
X00403339Y00335917D01*
X00403339Y00329919D02*
X00398981Y00329919D01*
X00396496Y00323920D02*
X00403339Y00323920D01*
X00403339Y00317922D02*
X00392639Y00317922D01*
X00385939Y00311923D02*
X00403339Y00311923D01*
X00403339Y00305925D02*
X00073149Y00305925D01*
X00096773Y00371908D02*
X-00109845Y00371908D01*
X-00115844Y00365910D02*
X00403339Y00365910D01*
X00403339Y00371908D02*
X00245904Y00371908D01*
X00247137Y00372419D02*
X00254982Y00380265D01*
X00259228Y00390515D01*
X00259228Y00401611D01*
X00254982Y00411861D01*
X00247137Y00419707D01*
X00236886Y00423953D01*
X00225791Y00423953D01*
X00215540Y00419707D01*
X00207695Y00411861D01*
X00203449Y00401611D01*
X00203449Y00390515D01*
X00207695Y00380265D01*
X00215540Y00372419D01*
X00225791Y00368173D01*
X00236886Y00368173D01*
X00247137Y00372419D01*
X00252625Y00377907D02*
X00403339Y00377907D01*
X00403339Y00383906D02*
X00256490Y00383906D01*
X00258975Y00389904D02*
X00403339Y00389904D01*
X00403339Y00395903D02*
X00259228Y00395903D01*
X00259108Y00401901D02*
X00403339Y00401901D01*
X00403339Y00407900D02*
X00256623Y00407900D01*
X00252945Y00413898D02*
X00403339Y00413898D01*
X00403339Y00419897D02*
X00246678Y00419897D01*
X00245868Y00431894D02*
X00403339Y00431894D01*
X00403339Y00425895D02*
X-00031907Y00425895D01*
X-00029661Y00431894D02*
X00096809Y00431894D01*
X00095540Y00432419D02*
X00105791Y00428173D01*
X00116886Y00428173D01*
X00127137Y00432419D01*
X00134982Y00440265D01*
X00139228Y00450515D01*
X00139228Y00461611D01*
X00134982Y00471861D01*
X00127137Y00479707D01*
X00116886Y00483953D01*
X00105791Y00483953D01*
X00095540Y00479707D01*
X00087695Y00471861D01*
X00083449Y00461611D01*
X00083449Y00450515D01*
X00087695Y00440265D01*
X00095540Y00432419D01*
X00090067Y00437892D02*
X-00029661Y00437892D01*
X-00029661Y00443891D02*
X00086193Y00443891D01*
X00083708Y00449889D02*
X-00029661Y00449889D01*
X-00031765Y00455888D02*
X00083449Y00455888D01*
X00083563Y00461886D02*
X-00034250Y00461886D01*
X-00036734Y00467885D02*
X00086048Y00467885D01*
X00089717Y00473883D02*
X-00042185Y00473883D01*
X-00048184Y00479882D02*
X00095963Y00479882D01*
X00126714Y00479882D02*
X00155963Y00479882D01*
X00155540Y00479707D02*
X00147695Y00471861D01*
X00143449Y00461611D01*
X00143449Y00450515D01*
X00147695Y00440265D01*
X00155540Y00432419D01*
X00165791Y00428173D01*
X00176886Y00428173D01*
X00187137Y00432419D01*
X00194982Y00440265D01*
X00199228Y00450515D01*
X00199228Y00461611D01*
X00194982Y00471861D01*
X00187137Y00479707D01*
X00176886Y00483953D01*
X00165791Y00483953D01*
X00155540Y00479707D01*
X00149717Y00473883D02*
X00132960Y00473883D01*
X00136629Y00467885D02*
X00146048Y00467885D01*
X00143563Y00461886D02*
X00139114Y00461886D01*
X00139228Y00455888D02*
X00143449Y00455888D01*
X00143708Y00449889D02*
X00138969Y00449889D01*
X00136484Y00443891D02*
X00146193Y00443891D01*
X00150067Y00437892D02*
X00132610Y00437892D01*
X00125868Y00431894D02*
X00156809Y00431894D01*
X00165791Y00423953D02*
X00155540Y00419707D01*
X00147695Y00411861D01*
X00143449Y00401611D01*
X00143449Y00390515D01*
X00147695Y00380265D01*
X00155540Y00372419D01*
X00165791Y00368173D01*
X00176886Y00368173D01*
X00187137Y00372419D01*
X00194982Y00380265D01*
X00199228Y00390515D01*
X00199228Y00401611D01*
X00194982Y00411861D01*
X00187137Y00419707D01*
X00176886Y00423953D01*
X00165791Y00423953D01*
X00155999Y00419897D02*
X00126678Y00419897D01*
X00127137Y00419707D02*
X00116886Y00423953D01*
X00105791Y00423953D01*
X00095540Y00419707D01*
X00087695Y00411861D01*
X00083449Y00401611D01*
X00083449Y00390515D01*
X00087695Y00380265D01*
X00095540Y00372419D01*
X00105791Y00368173D01*
X00116886Y00368173D01*
X00127137Y00372419D01*
X00134982Y00380265D01*
X00139228Y00390515D01*
X00139228Y00401611D01*
X00134982Y00411861D01*
X00127137Y00419707D01*
X00132945Y00413898D02*
X00149732Y00413898D01*
X00146054Y00407900D02*
X00136623Y00407900D01*
X00139108Y00401901D02*
X00143569Y00401901D01*
X00143449Y00395903D02*
X00139228Y00395903D01*
X00138975Y00389904D02*
X00143702Y00389904D01*
X00146187Y00383906D02*
X00136490Y00383906D01*
X00132625Y00377907D02*
X00150052Y00377907D01*
X00156773Y00371908D02*
X00125904Y00371908D01*
X00090052Y00377907D02*
X-00103847Y00377907D01*
X-00097848Y00383906D02*
X00086187Y00383906D01*
X00083702Y00389904D02*
X-00091850Y00389904D01*
X-00113794Y00401901D02*
X-00138527Y00401901D01*
X-00137121Y00403307D02*
X-00129661Y00421316D01*
X-00129661Y00440810D01*
X-00137121Y00458819D01*
X-00150905Y00472603D01*
X-00168915Y00480063D01*
X-00188408Y00480063D01*
X-00206418Y00472603D01*
X-00220202Y00458819D01*
X-00225708Y00445526D01*
X-00226966Y00453474D01*
X-00229544Y00461408D01*
X-00233332Y00468841D01*
X-00238235Y00475590D01*
X-00244134Y00481489D01*
X-00250883Y00486393D01*
X-00258316Y00490180D01*
X-00266250Y00492758D01*
X-00274490Y00494063D01*
X-00275661Y00494063D01*
X-00275661Y00444063D01*
X-00281661Y00444063D01*
X-00281661Y00494063D01*
X-00282833Y00494063D01*
X-00291072Y00492758D01*
X-00299006Y00490180D01*
X-00306439Y00486393D01*
X-00313188Y00481489D01*
X-00319087Y00475590D01*
X-00323991Y00468841D01*
X-00327778Y00461408D01*
X-00330356Y00453474D01*
X-00331661Y00445234D01*
X-00331661Y00444063D01*
X-00281662Y00444063D01*
X-00281662Y00438063D01*
X-00331661Y00438063D01*
X-00331661Y00436892D01*
X-00330356Y00428652D01*
X-00327778Y00420718D01*
X-00323991Y00413285D01*
X-00319087Y00406536D01*
X-00313188Y00400637D01*
X-00306439Y00395733D01*
X-00299006Y00391946D01*
X-00291072Y00389368D01*
X-00282833Y00388063D01*
X-00281661Y00388063D01*
X-00281661Y00438062D01*
X-00275661Y00438062D01*
X-00275661Y00388063D01*
X-00274490Y00388063D01*
X-00266250Y00389368D01*
X-00258316Y00391946D01*
X-00250883Y00395733D01*
X-00244134Y00400637D01*
X-00238235Y00406536D01*
X-00233332Y00413285D01*
X-00229544Y00420718D01*
X-00227661Y00426514D01*
X-00227661Y00421316D01*
X-00220202Y00403307D01*
X-00206418Y00389523D01*
X-00188408Y00382063D01*
X-00168915Y00382063D01*
X-00150905Y00389523D01*
X-00137121Y00403307D01*
X-00135219Y00407900D02*
X-00114794Y00407900D01*
X-00120447Y00413898D02*
X-00132734Y00413898D01*
X-00130250Y00419897D02*
X-00122931Y00419897D01*
X-00125416Y00425895D02*
X-00129661Y00425895D01*
X-00129661Y00431894D02*
X-00127661Y00431894D01*
X-00127661Y00437892D02*
X-00129661Y00437892D01*
X-00130938Y00443891D02*
X-00127661Y00443891D01*
X-00127661Y00449889D02*
X-00133422Y00449889D01*
X-00135907Y00455888D02*
X-00125558Y00455888D01*
X-00123073Y00461886D02*
X-00140188Y00461886D01*
X-00146187Y00467885D02*
X-00120588Y00467885D01*
X-00115137Y00473883D02*
X-00153996Y00473883D01*
X-00168478Y00479882D02*
X-00109139Y00479882D01*
X-00098505Y00485880D02*
X-00250178Y00485880D01*
X-00242527Y00479882D02*
X-00188845Y00479882D01*
X-00203327Y00473883D02*
X-00236995Y00473883D01*
X-00232844Y00467885D02*
X-00211136Y00467885D01*
X-00217134Y00461886D02*
X-00229788Y00461886D01*
X-00227751Y00455888D02*
X-00221416Y00455888D01*
X-00223900Y00449889D02*
X-00226399Y00449889D01*
X-00227661Y00425895D02*
X-00227862Y00425895D01*
X-00227073Y00419897D02*
X-00229963Y00419897D01*
X-00233019Y00413898D02*
X-00224589Y00413898D01*
X-00222104Y00407900D02*
X-00237244Y00407900D01*
X-00242870Y00401901D02*
X-00218796Y00401901D01*
X-00212797Y00395903D02*
X-00250650Y00395903D01*
X-00264601Y00389904D02*
X-00206799Y00389904D01*
X-00192856Y00383906D02*
X-00360661Y00383906D01*
X-00360661Y00389904D02*
X-00292722Y00389904D01*
X-00281661Y00389904D02*
X-00275661Y00389904D01*
X-00275661Y00395903D02*
X-00281661Y00395903D01*
X-00281661Y00401901D02*
X-00275661Y00401901D01*
X-00275661Y00407900D02*
X-00281661Y00407900D01*
X-00281661Y00413898D02*
X-00275661Y00413898D01*
X-00275661Y00419897D02*
X-00281661Y00419897D01*
X-00281661Y00425895D02*
X-00275661Y00425895D01*
X-00275661Y00431894D02*
X-00281661Y00431894D01*
X-00281661Y00437892D02*
X-00275661Y00437892D01*
X-00281662Y00443891D02*
X-00360045Y00443891D01*
X-00360517Y00437892D02*
X-00331661Y00437892D01*
X-00330870Y00431894D02*
X-00360661Y00431894D01*
X-00360661Y00425895D02*
X-00329461Y00425895D01*
X-00327360Y00419897D02*
X-00360661Y00419897D01*
X-00360661Y00413898D02*
X-00324304Y00413898D01*
X-00320078Y00407900D02*
X-00360661Y00407900D01*
X-00360661Y00401901D02*
X-00314453Y00401901D01*
X-00306672Y00395903D02*
X-00360661Y00395903D01*
X-00360661Y00377907D02*
X-00137788Y00377907D01*
X-00143786Y00371908D02*
X-00208179Y00371908D01*
X-00213114Y00373953D02*
X-00224209Y00373953D01*
X-00234460Y00369707D01*
X-00242305Y00361861D01*
X-00246551Y00351611D01*
X-00246551Y00340515D01*
X-00242305Y00330265D01*
X-00234460Y00322419D01*
X-00224209Y00318173D01*
X-00213114Y00318173D01*
X-00202863Y00322419D01*
X-00195018Y00330265D01*
X-00190772Y00340515D01*
X-00190772Y00351611D01*
X-00195018Y00361861D01*
X-00202863Y00369707D01*
X-00213114Y00373953D01*
X-00229144Y00371908D02*
X-00308179Y00371908D01*
X-00313114Y00373953D02*
X-00324209Y00373953D01*
X-00334460Y00369707D01*
X-00342305Y00361861D01*
X-00346551Y00351611D01*
X-00346551Y00340515D01*
X-00342305Y00330265D01*
X-00334460Y00322419D01*
X-00324209Y00318173D01*
X-00313114Y00318173D01*
X-00302863Y00322419D01*
X-00295018Y00330265D01*
X-00290772Y00340515D01*
X-00290772Y00351611D01*
X-00295018Y00361861D01*
X-00302863Y00369707D01*
X-00313114Y00373953D01*
X-00329144Y00371908D02*
X-00360661Y00371908D01*
X-00360661Y00365910D02*
X-00338256Y00365910D01*
X-00343113Y00359911D02*
X-00360661Y00359911D01*
X-00360661Y00353913D02*
X-00345597Y00353913D01*
X-00346551Y00347914D02*
X-00360661Y00347914D01*
X-00360661Y00341916D02*
X-00346551Y00341916D01*
X-00344647Y00335917D02*
X-00360661Y00335917D01*
X-00360661Y00329919D02*
X-00341959Y00329919D01*
X-00335961Y00323920D02*
X-00360661Y00323920D01*
X-00360661Y00317922D02*
X-00197773Y00317922D01*
X-00201362Y00323920D02*
X-00191774Y00323920D01*
X-00195363Y00329919D02*
X-00185776Y00329919D01*
X-00179777Y00335917D02*
X-00192676Y00335917D01*
X-00190772Y00341916D02*
X-00173779Y00341916D01*
X-00167780Y00347914D02*
X-00190772Y00347914D01*
X-00191725Y00353913D02*
X-00161782Y00353913D01*
X-00155783Y00359911D02*
X-00194210Y00359911D01*
X-00199066Y00365910D02*
X-00149785Y00365910D01*
X-00133839Y00347914D02*
X00276060Y00347914D01*
X00273575Y00341916D02*
X-00139838Y00341916D01*
X-00127841Y00353913D02*
X00279746Y00353913D01*
X00286035Y00359911D02*
X-00121842Y00359911D01*
X-00131789Y00383906D02*
X-00164466Y00383906D01*
X-00150524Y00389904D02*
X-00125791Y00389904D01*
X-00119792Y00395903D02*
X-00144525Y00395903D01*
X-00080661Y00418063D02*
X-00080661Y00436063D01*
X-00078661Y00441063D01*
X-00034392Y00419897D02*
X00095999Y00419897D01*
X00089732Y00413898D02*
X-00036876Y00413898D01*
X-00042528Y00407900D02*
X00086054Y00407900D01*
X00083569Y00401901D02*
X-00048527Y00401901D01*
X-00059645Y00395903D02*
X00083449Y00395903D01*
X00185904Y00371908D02*
X00216773Y00371908D01*
X00210052Y00377907D02*
X00192625Y00377907D01*
X00196490Y00383906D02*
X00206187Y00383906D01*
X00203702Y00389904D02*
X00198975Y00389904D01*
X00199228Y00395903D02*
X00203449Y00395903D01*
X00203569Y00401901D02*
X00199108Y00401901D01*
X00196623Y00407900D02*
X00206054Y00407900D01*
X00209732Y00413898D02*
X00192945Y00413898D01*
X00186678Y00419897D02*
X00215999Y00419897D01*
X00216809Y00431894D02*
X00185868Y00431894D01*
X00192610Y00437892D02*
X00210067Y00437892D01*
X00207695Y00440265D02*
X00215540Y00432419D01*
X00225791Y00428173D01*
X00236886Y00428173D01*
X00247137Y00432419D01*
X00254982Y00440265D01*
X00259228Y00450515D01*
X00259228Y00461611D01*
X00254982Y00471861D01*
X00247137Y00479707D01*
X00236886Y00483953D01*
X00225791Y00483953D01*
X00215540Y00479707D01*
X00207695Y00471861D01*
X00203449Y00461611D01*
X00203449Y00450515D01*
X00207695Y00440265D01*
X00206193Y00443891D02*
X00196484Y00443891D01*
X00198969Y00449889D02*
X00203708Y00449889D01*
X00203449Y00455888D02*
X00199228Y00455888D01*
X00199114Y00461886D02*
X00203563Y00461886D01*
X00206048Y00467885D02*
X00196629Y00467885D01*
X00192960Y00473883D02*
X00209717Y00473883D01*
X00215963Y00479882D02*
X00186714Y00479882D01*
X00246714Y00479882D02*
X00377520Y00479882D01*
X00383518Y00473883D02*
X00252960Y00473883D01*
X00256629Y00467885D02*
X00389517Y00467885D01*
X00395515Y00461886D02*
X00259114Y00461886D01*
X00259228Y00455888D02*
X00400055Y00455888D01*
X00402004Y00449889D02*
X00258969Y00449889D01*
X00256484Y00443891D02*
X00402722Y00443891D01*
X00403195Y00437892D02*
X00252610Y00437892D01*
X00353525Y00503876D02*
X-00310848Y00503876D01*
X-00304850Y00509875D02*
X00347527Y00509875D01*
X00337799Y00515873D02*
X-00295122Y00515873D01*
X-00316847Y00497877D02*
X00359524Y00497877D01*
X00365523Y00491879D02*
X-00263545Y00491879D01*
X-00275661Y00491879D02*
X-00281661Y00491879D01*
X-00281661Y00485880D02*
X-00275661Y00485880D01*
X-00275661Y00479882D02*
X-00281661Y00479882D01*
X-00281661Y00473883D02*
X-00275661Y00473883D01*
X-00275661Y00467885D02*
X-00281661Y00467885D01*
X-00281661Y00461886D02*
X-00275661Y00461886D01*
X-00275661Y00455888D02*
X-00281661Y00455888D01*
X-00281661Y00449889D02*
X-00275661Y00449889D01*
X-00314796Y00479882D02*
X-00334842Y00479882D01*
X-00328844Y00485880D02*
X-00307144Y00485880D01*
X-00293777Y00491879D02*
X-00322845Y00491879D01*
X-00320327Y00473883D02*
X-00340841Y00473883D01*
X-00346839Y00467885D02*
X-00324478Y00467885D01*
X-00327534Y00461886D02*
X-00352838Y00461886D01*
X-00357378Y00455888D02*
X-00329572Y00455888D01*
X-00330924Y00449889D02*
X-00359327Y00449889D01*
X-00299066Y00365910D02*
X-00238256Y00365910D01*
X-00243113Y00359911D02*
X-00294210Y00359911D01*
X-00291725Y00353913D02*
X-00245597Y00353913D01*
X-00246551Y00347914D02*
X-00290772Y00347914D01*
X-00290772Y00341916D02*
X-00246551Y00341916D01*
X-00244647Y00335917D02*
X-00292676Y00335917D01*
X-00295363Y00329919D02*
X-00241959Y00329919D01*
X-00235961Y00323920D02*
X-00301362Y00323920D01*
X-00360661Y00311923D02*
X-00203771Y00311923D01*
X-00209770Y00305925D02*
X-00360661Y00305925D01*
X-00360661Y00299926D02*
X-00215768Y00299926D01*
X-00221767Y00293928D02*
X-00360661Y00293928D01*
X-00360661Y00287929D02*
X-00227766Y00287929D01*
X-00233764Y00281931D02*
X-00360661Y00281931D01*
X-00360661Y00275932D02*
X-00239763Y00275932D01*
X-00245761Y00269934D02*
X-00360661Y00269934D01*
X-00360661Y00263935D02*
X-00251760Y00263935D01*
X-00257758Y00257937D02*
X-00360661Y00257937D01*
X-00360661Y00251938D02*
X-00263757Y00251938D01*
X-00269755Y00245939D02*
X-00360661Y00245939D01*
X-00360661Y00239941D02*
X-00275754Y00239941D01*
X-00281752Y00233942D02*
X-00360661Y00233942D01*
X-00360661Y00227944D02*
X-00287751Y00227944D01*
X-00293749Y00221945D02*
X-00360661Y00221945D01*
X-00360661Y00215947D02*
X-00299748Y00215947D01*
X-00305746Y00209948D02*
X-00360661Y00209948D01*
X-00360661Y00203950D02*
X-00311745Y00203950D01*
X-00317743Y00197951D02*
X-00360661Y00197951D01*
X-00360661Y00191953D02*
X-00323742Y00191953D01*
X-00329740Y00185954D02*
X-00360661Y00185954D01*
X-00360661Y00179956D02*
X-00335739Y00179956D01*
X-00341737Y00173957D02*
X-00360661Y00173957D01*
X-00360661Y00167959D02*
X-00347736Y00167959D01*
X-00350661Y00161960D02*
X-00360661Y00161960D01*
X-00360661Y00155962D02*
X-00350661Y00155962D01*
X-00350661Y00149963D02*
X-00360661Y00149963D01*
X-00360661Y00143965D02*
X-00350661Y00143965D01*
X-00350661Y00137966D02*
X-00360661Y00137966D01*
X-00360661Y00131968D02*
X-00350661Y00131968D01*
X-00350661Y00125969D02*
X-00360661Y00125969D01*
X-00360661Y00119970D02*
X-00350661Y00119970D01*
X-00350661Y00113972D02*
X-00360661Y00113972D01*
X-00360661Y00107973D02*
X-00350661Y00107973D01*
X-00350661Y00101975D02*
X-00360661Y00101975D01*
X-00360661Y00095976D02*
X-00345545Y00095976D01*
X-00339547Y00089978D02*
X-00360661Y00089978D01*
X-00360661Y00083979D02*
X-00333548Y00083979D01*
X-00327550Y00077981D02*
X-00360661Y00077981D01*
X-00360661Y00071982D02*
X-00321551Y00071982D01*
X-00315553Y00065984D02*
X-00360661Y00065984D01*
X-00360661Y00059985D02*
X-00318761Y00059985D01*
X-00321246Y00053987D02*
X-00360661Y00053987D01*
X-00360661Y00047988D02*
X-00323730Y00047988D01*
X-00324984Y00041990D02*
X-00360661Y00041990D01*
X-00360661Y00035991D02*
X-00324984Y00035991D01*
X-00324984Y00029993D02*
X-00360661Y00029993D01*
X-00360661Y00023994D02*
X-00323997Y00023994D01*
X-00321513Y00017996D02*
X-00360661Y00017996D01*
X-00360661Y00011997D02*
X-00319028Y00011997D01*
X-00314664Y00005999D02*
X-00360661Y00005999D01*
X-00360661Y00000000D02*
X-00308665Y00000000D01*
X-00278268Y00035669D02*
X-00272661Y00040063D01*
X-00338661Y00106063D01*
X-00338661Y00160063D01*
X-00080661Y00418063D01*
X-00058817Y00485880D02*
X00371521Y00485880D01*
X00398914Y00287929D02*
X00403339Y00287929D01*
X00296106Y00239941D02*
X00045033Y00239941D01*
X00078892Y00197951D02*
X00290008Y00197951D01*
X00296666Y00191953D02*
X00084891Y00191953D01*
X-00102356Y00239941D02*
X-00113429Y00239941D01*
X-00114834Y00245939D02*
X-00235814Y00245939D01*
X-00241813Y00239941D02*
X-00203894Y00239941D01*
X-00204460Y00239707D02*
X-00212305Y00231861D01*
X-00216551Y00221611D01*
X-00216551Y00210515D01*
X-00212305Y00200265D01*
X-00204460Y00192419D01*
X-00194209Y00188173D01*
X-00183114Y00188173D01*
X-00172863Y00192419D01*
X-00165018Y00200265D01*
X-00160772Y00210515D01*
X-00160772Y00221611D01*
X-00165018Y00231861D01*
X-00172863Y00239707D01*
X-00183114Y00243953D01*
X-00194209Y00243953D01*
X-00204460Y00239707D01*
X-00210224Y00233942D02*
X-00247811Y00233942D01*
X-00253810Y00227944D02*
X-00213928Y00227944D01*
X-00216412Y00221945D02*
X-00259808Y00221945D01*
X-00265807Y00215947D02*
X-00216551Y00215947D01*
X-00216316Y00209948D02*
X-00271805Y00209948D01*
X-00277804Y00203950D02*
X-00213832Y00203950D01*
X-00209992Y00197951D02*
X-00283803Y00197951D01*
X-00289801Y00191953D02*
X-00203334Y00191953D01*
X-00173989Y00191953D02*
X-00143334Y00191953D01*
X-00149992Y00197951D02*
X-00167331Y00197951D01*
X-00163491Y00203950D02*
X-00153832Y00203950D01*
X-00156316Y00209948D02*
X-00161007Y00209948D01*
X-00160772Y00215947D02*
X-00156551Y00215947D01*
X-00156412Y00221945D02*
X-00160910Y00221945D01*
X-00163395Y00227944D02*
X-00153928Y00227944D01*
X-00150224Y00233942D02*
X-00167099Y00233942D01*
X-00173429Y00239941D02*
X-00143894Y00239941D01*
X-00126831Y00257937D02*
X-00223817Y00257937D01*
X-00217819Y00263935D02*
X-00129533Y00263935D01*
X-00132018Y00269934D02*
X-00211820Y00269934D01*
X-00205822Y00275932D02*
X-00134502Y00275932D01*
X-00134661Y00281931D02*
X-00199823Y00281931D01*
X-00193825Y00287929D02*
X-00134661Y00287929D01*
X-00134661Y00293928D02*
X-00187826Y00293928D01*
X-00181828Y00299926D02*
X-00132956Y00299926D01*
X-00130471Y00305925D02*
X-00175829Y00305925D01*
X-00169831Y00311923D02*
X-00127987Y00311923D01*
X-00123099Y00317922D02*
X-00163832Y00317922D01*
X-00157834Y00323920D02*
X-00117100Y00323920D01*
X-00120833Y00251938D02*
X-00229816Y00251938D01*
X-00263109Y00179956D02*
X-00119739Y00179956D01*
X-00125738Y00173957D02*
X-00250489Y00173957D01*
X-00244490Y00167959D02*
X-00131736Y00167959D01*
X-00137735Y00161960D02*
X-00238592Y00161960D01*
X-00236107Y00155962D02*
X-00167733Y00155962D01*
X-00173732Y00149963D02*
X-00233623Y00149963D01*
X-00231551Y00143965D02*
X-00179730Y00143965D01*
X-00185729Y00137966D02*
X-00231551Y00137966D01*
X-00231551Y00131968D02*
X-00191727Y00131968D01*
X-00197726Y00125969D02*
X-00231720Y00125969D01*
X-00234205Y00119970D02*
X-00203724Y00119970D01*
X-00209723Y00113972D02*
X-00236689Y00113972D01*
X-00239897Y00107973D02*
X-00215721Y00107973D01*
X-00221720Y00101975D02*
X-00239603Y00101975D01*
X-00233604Y00095976D02*
X-00227718Y00095976D01*
X-00230661Y00076063D02*
X-00272661Y00118063D01*
X-00272661Y00130063D01*
X-00278268Y00135669D01*
X-00266500Y00089978D02*
X-00261547Y00089978D01*
X-00078392Y00011997D02*
X00243339Y00011997D01*
X00243339Y00005999D02*
X-00069155Y00005999D01*
X-00064247Y00000000D02*
X00243339Y00000000D01*
X00243339Y-00005999D02*
X-00061762Y-00005999D01*
X-00071273Y-00035991D02*
X00060442Y-00035991D01*
X00087339Y-00043937D02*
X00087339Y-00103937D01*
X00021339Y-00169937D01*
X00021339Y-00175937D01*
X00018343Y-00155962D02*
X00018223Y-00155962D01*
X00015738Y-00149963D02*
X00024342Y-00149963D01*
X00030340Y-00143965D02*
X00010808Y-00143965D01*
X00001519Y-00137966D02*
X00036339Y-00137966D01*
X-00013876Y-00281931D02*
X-00041413Y-00281931D01*
X-00033959Y-00287929D02*
X-00016360Y-00287929D01*
X-00016551Y-00293928D02*
X-00028661Y-00293928D01*
X-00024779Y-00299926D02*
X-00016368Y-00299926D01*
X-00013884Y-00305925D02*
X-00021941Y-00305925D01*
X-00019992Y-00311923D02*
X-00010117Y-00311923D01*
X-00003636Y-00317922D02*
X-00018991Y-00317922D01*
X-00021930Y-00341916D02*
X-00006082Y-00341916D01*
X-00012081Y-00347914D02*
X-00024762Y-00347914D01*
X-00028637Y-00353913D02*
X-00014697Y-00353913D01*
X-00016551Y-00359911D02*
X-00033925Y-00359911D01*
X-00041367Y-00365910D02*
X-00016551Y-00365910D01*
X-00082823Y-00371908D02*
X-00228119Y-00371908D01*
X-00275268Y-00359911D02*
X-00281267Y-00359911D01*
X-00281267Y-00353913D02*
X-00275268Y-00353913D01*
X-00275268Y-00347914D02*
X-00281267Y-00347914D01*
X-00281267Y-00341916D02*
X-00275268Y-00341916D01*
X-00275268Y-00335917D02*
X-00281267Y-00335917D01*
X-00281267Y-00329919D02*
X-00275268Y-00329919D01*
X-00275268Y-00323920D02*
X-00281267Y-00323920D01*
X-00281267Y-00317922D02*
X-00275268Y-00317922D01*
X-00298898Y-00317922D02*
X-00360661Y-00317922D01*
X-00360661Y-00323920D02*
X-00308932Y-00323920D01*
X-00315580Y-00329919D02*
X-00360661Y-00329919D01*
X-00360661Y-00335917D02*
X-00320313Y-00335917D01*
X-00323767Y-00341916D02*
X-00360661Y-00341916D01*
X-00360661Y-00347914D02*
X-00326260Y-00347914D01*
X-00327966Y-00353913D02*
X-00360661Y-00353913D01*
X-00360661Y-00359911D02*
X-00328916Y-00359911D01*
X-00328416Y-00371908D02*
X-00360034Y-00371908D01*
X-00360506Y-00365910D02*
X-00281268Y-00365910D01*
X-00322158Y-00389904D02*
X-00352694Y-00389904D01*
X-00357332Y-00383906D02*
X-00325214Y-00383906D01*
X-00327183Y-00377907D02*
X-00359281Y-00377907D01*
X-00346696Y-00395903D02*
X-00318018Y-00395903D01*
X-00312421Y-00401901D02*
X-00340697Y-00401901D01*
X-00334699Y-00407900D02*
X-00304472Y-00407900D01*
X-00289514Y-00413898D02*
X-00328700Y-00413898D01*
X-00322702Y-00419897D02*
X00365379Y-00419897D01*
X00359380Y-00425895D02*
X-00316703Y-00425895D01*
X-00310705Y-00431894D02*
X00353382Y-00431894D01*
X00347383Y-00437892D02*
X-00304706Y-00437892D01*
X-00294680Y-00443891D02*
X00337357Y-00443891D01*
X00350229Y-00401901D02*
X00383374Y-00401901D01*
X00389373Y-00395903D02*
X00356227Y-00395903D01*
X00361705Y-00389904D02*
X00395371Y-00389904D01*
X00403339Y-00251938D02*
X00371032Y-00251938D01*
X00369083Y-00245939D02*
X00403339Y-00245939D01*
X00403339Y-00239941D02*
X00366226Y-00239941D01*
X00362343Y-00233942D02*
X00403339Y-00233942D01*
X00403339Y-00227944D02*
X00357069Y-00227944D01*
X00349678Y-00221945D02*
X00403339Y-00221945D01*
X00403339Y-00215947D02*
X00336944Y-00215947D01*
X-00095956Y-00365910D02*
X-00149789Y-00365910D01*
X-00139582Y-00359911D02*
X-00103398Y-00359911D01*
X-00108686Y-00353913D02*
X-00133584Y-00353913D01*
X-00128803Y-00347914D02*
X-00112561Y-00347914D01*
X-00115393Y-00341916D02*
X-00126319Y-00341916D01*
X-00123834Y-00335917D02*
X-00117342Y-00335917D01*
X-00118337Y-00329919D02*
X-00122661Y-00329919D01*
X-00218726Y-00179956D02*
X-00234731Y-00179956D01*
X-00232246Y-00173957D02*
X-00228083Y-00173957D01*
D16*
X-00208661Y-00153937D03*
X-00218661Y-00213937D03*
X-00078661Y-00223937D03*
X-00078661Y-00163937D03*
X-00008661Y-00163937D03*
X00087339Y-00043937D03*
X-00088661Y-00013937D03*
X00041339Y00116063D03*
X00101339Y00106063D03*
X00061339Y00176063D03*
X00225339Y00124063D03*
X00311339Y00216063D03*
X00381339Y00206063D03*
X00381339Y00266063D03*
X00311339Y00276063D03*
X00301339Y00336063D03*
X00371339Y00336063D03*
X00231339Y00396063D03*
X00171339Y00396063D03*
X00111339Y00396063D03*
X00111339Y00456063D03*
X00171339Y00456063D03*
X00231339Y00456063D03*
X-00128661Y00216063D03*
X-00188661Y00216063D03*
X-00218661Y00346063D03*
X-00318661Y00346063D03*
X00011339Y-00293937D03*
X00011339Y-00363937D03*
M02*
